<svg xmlns="http://www.w3.org/2000/svg" viewBox="0 0 500 500"><g id="freepik--background-complete--inject-4"><path d="M430.93,302.62c-15.94,2-33.57-6.88-44.5-18.66s-14.9-30-8.57-44.77c4.8-11.18,14.85-20,17.14-32,1.56-8.16-.78-16.55-.41-24.84.75-17.13,14.91-33,32-34.7s34.5,11.93,36,29c1.12,12.44-5.24,25.31-1.29,37.16,2.71,8.14,9.74,14,14.33,21.23,9.93,15.72,6.74,37.89-5.88,51.54s-33.08,18.75-51.21,14.61" style="fill:#f5f5f5"></path><path d="M429.66,411.29c-.14,0-.26-50.1-.26-111.89s.12-111.91.26-111.91.26,50.1.26,111.91S429.81,411.29,429.66,411.29Z" style="fill:#e0e0e0"></path><path d="M455.29,239.65c.09.12-4.37,6.42-11.81,12.23a61.33,61.33,0,0,1-15.14,8.82c-.09-.11,5.87-4.92,13.32-10.73S455.21,239.54,455.29,239.65Z" style="fill:#e0e0e0"></path><path d="M428.19,225.52c-.66.95.8.87-8.26-5.39a94.06,94.06,0,0,1-8-5.82,93.75,93.75,0,0,1,8.26,5.39A93.45,93.45,0,0,1,428.19,225.52Z" style="fill:#e0e0e0"></path><path d="M79.62,409.47c-.15,0-.26-34-.26-76s.11-76,.26-76,.26,34,.26,76S79.76,409.47,79.62,409.47Z" style="fill:#e0e0e0"></path><polygon points="42.28 298.17 119.03 298.17 80.65 179.11 42.28 298.17" style="fill:#e6e6e6"></polygon><path d="M90.57,298.07a13.23,13.23,0,0,1-1.6,1.84c-1,1.11-2.39,2.65-3.84,4.42s-2.68,3.43-3.56,4.64a13.4,13.4,0,0,1-1.48,1.93,9.73,9.73,0,0,1,1.18-2.13A49.31,49.31,0,0,1,84.73,304a50.67,50.67,0,0,1,4-4.35A10,10,0,0,1,90.57,298.07Z" style="fill:#e0e0e0"></path><path d="M80.24,323.52a12,12,0,0,1-2-1.17c-1.23-.76-2.93-1.81-4.82-2.92s-3.64-2.09-4.9-2.79a12.41,12.41,0,0,1-2-1.21,9.07,9.07,0,0,1,2.18.88c1.31.63,3.09,1.55,5,2.67s3.58,2.23,4.76,3.07A9.33,9.33,0,0,1,80.24,323.52Z" style="fill:#e0e0e0"></path><path d="M375.78,100.88c15.46,23.74,17.19,44.79,6.46,71C374,192,358,210.2,336.85,215.17c-15,3.53-31.14,0-44.67-7.45C265.42,193,248,161.36,253,131.23S277.77,75,318.23,72.14C318.23,72.14,355.52,69.79,375.78,100.88Z" style="fill:#e0e0e0"></path><path d="M327.23,409.47c-.14,0-.26-55.84-.26-124.7s.12-124.72.26-124.72.26,55.83.26,124.72S327.38,409.47,327.23,409.47Z" style="fill:#263238"></path><path d="M346.28,180.12c.1.11-4.09,4-9.35,8.81s-9.6,8.53-9.7,8.42,4.09-4,9.35-8.81S346.18,180,346.28,180.12Z" style="fill:#263238"></path><path d="M327.49,178.52a22.17,22.17,0,0,1-2.57-2l-6-4.93-6-4.92a20.12,20.12,0,0,1-2.44-2.12,18.78,18.78,0,0,1,2.66,1.83c1.61,1.19,3.79,2.88,6.15,4.81s4.45,3.72,5.94,5.05A17.88,17.88,0,0,1,327.49,178.52Z" style="fill:#263238"></path><path d="M107,376.81a7.63,7.63,0,0,0-.37,1.57,7.71,7.71,0,0,0-1.47-2.5,16.67,16.67,0,0,0-3.73-2.87l-.13-.08a10.66,10.66,0,0,0,.63,5.46,8,8,0,0,0,.52,1l-1-.15a36.32,36.32,0,0,0-7.7.58,19.62,19.62,0,0,0,7.22,4.4l.49.16a7.3,7.3,0,0,0-1.12.82,16.42,16.42,0,0,0-2.88,3.73s0,.08-.07.13a10.68,10.68,0,0,0,5.46-.63,7.53,7.53,0,0,0,2-1.33,8,8,0,0,0-.18,1.19,9.75,9.75,0,0,0,1,4.56l.07-.11a16.06,16.06,0,0,0,1.91-3.55,8.26,8.26,0,0,0,.32-3.83,22.15,22.15,0,0,0-.57-2.47h0c.81-1.1,1.08-1.33,1.51-2.05a8.46,8.46,0,0,0,1.22-3.64,16.21,16.21,0,0,0-.35-4l0-.12A9.87,9.87,0,0,0,107,376.81Z" style="fill:#f5f5f5"></path><path d="M112.58,383.46a41.14,41.14,0,0,1-6.49-.68,41.31,41.31,0,0,1-6.41-1.2,41.14,41.14,0,0,1,6.49.68A41.31,41.31,0,0,1,112.58,383.46Z" style="fill:#e0e0e0"></path><path d="M105.75,382.48c.09.11-.28.61-.84,1.11s-1.1.83-1.2.73.29-.61.85-1.11S105.65,382.38,105.75,382.48Z" style="fill:#e0e0e0"></path><path d="M104.36,382.4c-.14,0-.39-.33-.64-.8s-.43-.89-.32-1,.5.21.78.73S104.49,382.36,104.36,382.4Z" style="fill:#e0e0e0"></path><path d="M225.65,158.12a13.29,13.29,0,0,0-1.89,2.14,13.75,13.75,0,0,0-.2-5.15,29.28,29.28,0,0,0-3.4-7.64l-.12-.22a18.82,18.82,0,0,0-3.64,9.06,12.43,12.43,0,0,0,0,1.93c-.48-.37-1-.74-1.47-1.08-3.37-2.34-9.54-4.52-12.52-5.61a34.75,34.75,0,0,0,7.56,13l.65.66a13.86,13.86,0,0,0-2.46.34,29.13,29.13,0,0,0-7.64,3.4l-.22.12a18.77,18.77,0,0,0,9.06,3.63,12.91,12.91,0,0,0,4.23-.39,13.21,13.21,0,0,0-1.29,1.71,17.37,17.37,0,0,0-2.33,7.93l.19-.1a27.84,27.84,0,0,0,6-3.94,14.75,14.75,0,0,0,3.74-5.7,43.68,43.68,0,0,0,1.19-4.35h0a42.28,42.28,0,0,0,4.08-1.92,14.84,14.84,0,0,0,5-4.66,28.23,28.23,0,0,0,2.85-6.58l.07-.21A17.49,17.49,0,0,0,225.65,158.12Z" style="fill:#e6e6e6"></path><path d="M228.73,173.2c-.09.11-4.32-2.89-9.44-6.71s-9.22-7-9.13-7.12,4.31,2.88,9.44,6.7S228.81,173.08,228.73,173.2Z" style="fill:#e0e0e0"></path><path d="M218.88,165.9a6,6,0,0,1-2.3.83,5.85,5.85,0,0,1-2.43.32,11.49,11.49,0,0,1,4.73-1.15Z" style="fill:#e0e0e0"></path><path d="M216.78,164.6c-.15,0-.12-.83-.12-1.8s0-1.76.13-1.79.4.77.4,1.8S216.92,164.63,216.78,164.6Z" style="fill:#e0e0e0"></path><path d="M116.14,128.14l47.17.34s.08-10.79-5.49-10.83a8.57,8.57,0,0,0-8.7,6.63s.15-20.16-10-17.27c-9.61,2.72-10.79,15.62-10.79,15.62s-1.68-6.5-6.91-2.88S116.14,128.14,116.14,128.14Z" style="fill:#f0f0f0"></path></g><g id="freepik--Shadow--inject-4"><ellipse cx="251.46" cy="438.27" rx="159.39" ry="5.61" style="fill:#f0f0f0"></ellipse></g><g id="freepik--Floor--inject-4"><path d="M462.23,409.47c0,.14-91.74.26-204.88.26s-204.9-.12-204.9-.26,91.72-.26,204.9-.26S462.23,409.33,462.23,409.47Z" style="fill:#263238"></path></g><g id="freepik--Leaves--inject-4"><path d="M151.45,199.36a8.83,8.83,0,0,0-.85,1.91,9.91,9.91,0,0,0-1.28-3.55,21.81,21.81,0,0,0-4.06-4.57l-.14-.12a13.63,13.63,0,0,0-.52,7.12,10.45,10.45,0,0,0,.43,1.34c-.41-.15-.84-.3-1.26-.43-2.87-.88-7.65-1-10-1.13a25.18,25.18,0,0,0,8.15,7.36l.59.32a10.67,10.67,0,0,0-1.64.78,21.29,21.29,0,0,0-4.56,4.07,1.59,1.59,0,0,0-.13.13,13.73,13.73,0,0,0,7.12.52,9.48,9.48,0,0,0,2.86-1.21,8.83,8.83,0,0,0-.51,1.47,12.68,12.68,0,0,0,.13,6l.11-.11a20.58,20.58,0,0,0,3.3-4.08,10.8,10.8,0,0,0,1.34-4.8c.06-1.08-.06-1.54-.13-3.3h0a32.25,32.25,0,0,0,2.41-2.24,11,11,0,0,0,2.44-4.36,21,21,0,0,0,.52-5.21v-.16A12.62,12.62,0,0,0,151.45,199.36Z" style="fill:#D7DF23"></path><path d="M156.94,209.18a70.69,70.69,0,0,1-8.09-2.51,68.79,68.79,0,0,1-7.92-3,71.38,71.38,0,0,1,8.09,2.51A69.7,69.7,0,0,1,156.94,209.18Z" style="fill:#263238"></path><path d="M148.45,206.28c.08.12-.54.64-1.38,1.15s-1.58.82-1.65.7.54-.64,1.38-1.15S148.38,206.16,148.45,206.28Z" style="fill:#263238"></path><path d="M146.7,205.84c-.14,0-.33-.54-.54-1.2s-.38-1.24-.25-1.3.52.42.74,1.14S146.84,205.82,146.7,205.84Z" style="fill:#263238"></path><path d="M397.42,375.94a13.28,13.28,0,0,0,.88,2.72,13.65,13.65,0,0,0-4.53-2.45,29.54,29.54,0,0,0-8.31-1h-.25a18.77,18.77,0,0,0,6,7.73,13.27,13.27,0,0,0,1.67,1c-.57.22-1.13.46-1.68.71-3.73,1.72-8.73,5.93-11.2,7.94a34.61,34.61,0,0,0,15,.07l.9-.21a12.57,12.57,0,0,0-1,2.29,29.46,29.46,0,0,0-1,8.3v.26a18.94,18.94,0,0,0,7.73-6,13.13,13.13,0,0,0,1.81-3.84,12.59,12.59,0,0,0,.82,2,17.44,17.44,0,0,0,5.65,6,1.7,1.7,0,0,1,0-.22,28.44,28.44,0,0,0-.35-7.16,14.78,14.78,0,0,0-3-6.12,40.33,40.33,0,0,0-3.13-3.23h0a42.82,42.82,0,0,0,.41-4.49,14.72,14.72,0,0,0-1.48-6.66,28.25,28.25,0,0,0-4.22-5.8l-.15-.16A17.46,17.46,0,0,0,397.42,375.94Z" style="fill:#D7DF23"></path><path d="M412,381c0,.13-4.68,2.25-10.57,4.72s-10.72,4.38-10.78,4.24,4.68-2.24,10.57-4.72S411.91,380.82,412,381Z" style="fill:#263238"></path><path d="M400.68,385.72a5.8,5.8,0,0,1-.45,2.41,5.88,5.88,0,0,1-1,2.25,5.87,5.87,0,0,1,.46-2.4A6,6,0,0,1,400.68,385.72Z" style="fill:#263238"></path><path d="M398.49,386.87c-.09.11-.77-.32-1.6-.81s-1.54-.88-1.48-1,.86,0,1.74.57S398.59,386.77,398.49,386.87Z" style="fill:#263238"></path><path d="M81.72,367.89a9.54,9.54,0,0,0-2,.59,10,10,0,0,0,1.88-3.27,21.84,21.84,0,0,0,.85-6c0-.06,0-.13,0-.19a13.78,13.78,0,0,0-5.77,4.21,9.21,9.21,0,0,0-.74,1.2c-.15-.42-.32-.83-.49-1.24-1.19-2.76-4.17-6.5-5.59-8.34a25.19,25.19,0,0,0-.34,11c0,.22.09.44.14.66A8.56,8.56,0,0,0,68,365.7a21.47,21.47,0,0,0-6.05-.86h-.19A13.87,13.87,0,0,0,66,370.6a9.69,9.69,0,0,0,2.78,1.4,8.62,8.62,0,0,0-1.46.56,12.77,12.77,0,0,0-4.53,4h.16a21.38,21.38,0,0,0,5.25-.11,10.92,10.92,0,0,0,4.53-2.1,29.24,29.24,0,0,0,2.42-2.23h0a32.41,32.41,0,0,0,3.28.39,10.73,10.73,0,0,0,4.89-1,20.76,20.76,0,0,0,4.32-3l.12-.1A12.82,12.82,0,0,0,81.72,367.89Z" style="fill:#D7DF23"></path><path d="M77.78,378.43a69.6,69.6,0,0,1-3.31-7.79,66.56,66.56,0,0,1-2.83-8,71.57,71.57,0,0,1,3.31,7.8A66.8,66.8,0,0,1,77.78,378.43Z" style="fill:#263238"></path><path d="M74.51,370.09c-.05.14-.84,0-1.77-.31s-1.65-.68-1.61-.81.84,0,1.77.31S74.55,370,74.51,370.09Z" style="fill:#263238"></path><path d="M73.71,368.47c-.11-.1.19-.6.57-1.2s.69-1.08.83-1,0,.67-.39,1.31S73.81,368.56,73.71,368.47Z" style="fill:#263238"></path><path d="M83.71,286.45a7,7,0,0,0,.18,1.58,7.63,7.63,0,0,0-2.2-1.83,16.4,16.4,0,0,0-4.41-1.43l-.14,0a10.51,10.51,0,0,0,2.4,4.86,6.67,6.67,0,0,0,.79.71l-1,.2a36.57,36.57,0,0,0-7,3.09,19.21,19.21,0,0,0,8.16,1.69l.51,0a6.9,6.9,0,0,0-.77,1.14,16.4,16.4,0,0,0-1.43,4.41l0,.14a10.59,10.59,0,0,0,4.86-2.39,7.67,7.67,0,0,0,1.4-1.89,7.68,7.68,0,0,0,.23,1.16,9.59,9.59,0,0,0,2.41,3.9l0-.11a16.22,16.22,0,0,0,.6-3.94,8.28,8.28,0,0,0-1-3.65c-.37-.73-.63-1-1.35-2.11h0a24.13,24.13,0,0,0,.71-2.39,8.22,8.22,0,0,0-.07-3.79A15.66,15.66,0,0,0,85,282.14L85,282A9.64,9.64,0,0,0,83.71,286.45Z" style="fill:#D7DF23"></path><path d="M83.71,286.45a7,7,0,0,0,.18,1.58,7.63,7.63,0,0,0-2.2-1.83,16.4,16.4,0,0,0-4.41-1.43l-.14,0a10.51,10.51,0,0,0,2.4,4.86,6.67,6.67,0,0,0,.79.71l-1,.2a36.57,36.57,0,0,0-7,3.09,19.21,19.21,0,0,0,8.16,1.69l.51,0a6.9,6.9,0,0,0-.77,1.14,16.4,16.4,0,0,0-1.43,4.41l0,.14a10.59,10.59,0,0,0,4.86-2.39,7.67,7.67,0,0,0,1.4-1.89,7.68,7.68,0,0,0,.23,1.16,9.59,9.59,0,0,0,2.41,3.9l0-.11a16.22,16.22,0,0,0,.6-3.94,8.28,8.28,0,0,0-1-3.65c-.37-.73-.63-1-1.35-2.11h0a24.13,24.13,0,0,0,.71-2.39,8.22,8.22,0,0,0-.07-3.79A15.66,15.66,0,0,0,85,282.14L85,282A9.64,9.64,0,0,0,83.71,286.45Z" style="fill:#fff;opacity:0.2"></path><path d="M91.07,290.77a38.9,38.9,0,0,1-6.24,1.52,40.61,40.61,0,0,1-6.35,1,38.24,38.24,0,0,1,6.24-1.53A39.82,39.82,0,0,1,91.07,290.77Z" style="fill:#263238"></path><path d="M84.41,292.13c.13.07-.06.66-.41,1.31s-.74,1.13-.87,1.07.06-.66.41-1.31S84.28,292.06,84.41,292.13Z" style="fill:#263238"></path><path d="M83.09,292.52c-.11.08-.47-.19-.86-.54s-.69-.67-.61-.8.53,0,1,.42S83.21,292.43,83.09,292.52Z" style="fill:#263238"></path><path d="M139.23,240.48c-.28.79.29,1.27,1,1.55a7.06,7.06,0,0,0-1,.12,3.84,3.84,0,0,0-2,.82c-.94,1,.06,2,1.06,2.51a3.47,3.47,0,0,0-2.2,2.45,1.66,1.66,0,0,0,.87,1.69,2.74,2.74,0,0,0,2.14-.06,3.71,3.71,0,0,0,1.27-.76c0,1.12.52,2.48,1.79,2.06a3.73,3.73,0,0,0,1.58-1.39,9.19,9.19,0,0,0,.6-.93,2.79,2.79,0,0,0,0,.58,1.2,1.2,0,0,0,.54.87,1.11,1.11,0,0,0,1.31-.24,6.89,6.89,0,0,0,2.1-3.37,8.62,8.62,0,0,0,.54-4.2c-.27-1.46-2-2.11-3.23-2.44a11.54,11.54,0,0,0-3.7-.42C141.1,239.39,139.54,239.6,139.23,240.48Z" style="fill:#D7DF23"></path><g style="opacity:0.1"><path d="M139.23,240.48c-.28.79.29,1.27,1,1.55a7.06,7.06,0,0,0-1,.12,3.84,3.84,0,0,0-2,.82c-.94,1,.06,2,1.06,2.51a3.47,3.47,0,0,0-2.2,2.45,1.66,1.66,0,0,0,.87,1.69,2.74,2.74,0,0,0,2.14-.06,3.71,3.71,0,0,0,1.27-.76c0,1.12.52,2.48,1.79,2.06a3.73,3.73,0,0,0,1.58-1.39,9.19,9.19,0,0,0,.6-.93,2.79,2.79,0,0,0,0,.58,1.2,1.2,0,0,0,.54.87,1.11,1.11,0,0,0,1.31-.24,6.89,6.89,0,0,0,2.1-3.37,8.62,8.62,0,0,0,.54-4.2c-.27-1.46-2-2.11-3.23-2.44a11.54,11.54,0,0,0-3.7-.42C141.1,239.39,139.54,239.6,139.23,240.48Z"></path></g><path d="M151.22,239.2a51.22,51.22,0,0,1-6,4.16,51.5,51.5,0,0,1-6.23,3.73,50.52,50.52,0,0,1,5.95-4.16A51.13,51.13,0,0,1,151.22,239.2Z" style="fill:#263238"></path><path d="M146.58,242.1a9.58,9.58,0,0,1-1.21,4.22,4.84,4.84,0,0,1,.35-2.18C146.05,243,146.44,242.06,146.58,242.1Z" style="fill:#263238"></path><path d="M139.59,243.73c0-.14.83-.12,1.79,0s1.73.41,1.71.55-.83.12-1.79,0S139.57,243.88,139.59,243.73Z" style="fill:#263238"></path><path d="M141.84,245.22c.14,0,.19.45.11,1s-.26.91-.4.89-.19-.46-.11-1S141.7,245.19,141.84,245.22Z" style="fill:#263238"></path><path d="M143.38,242c0-.14.56-.18,1.21,0s1.1.47,1,.6-.57.06-1.17-.1S143.36,242.1,143.38,242Z" style="fill:#263238"></path><path d="M202.54,197.8a1.51,1.51,0,0,0-.8,1.15,5,5,0,0,0,.37,1.45c0,.19.12.83-.21.8-.17,0-.39-.33-.48-.44-.22-.27-.39-.57-.61-.83-.55-.66-1.92-1.54-2.53-.46a1.54,1.54,0,0,0,.05,1.43,3.5,3.5,0,0,0,.5.71c.26.3.66.65.53,1.06s-.15.19-.35.05a1.92,1.92,0,0,1-.22-.18c-.17-.15-.32-.31-.48-.46a3.38,3.38,0,0,0-1.25-.71c-.93-.25-2,.57-1.48,1.56.23.47.69.67,1,1,.1.11.15,0,0,.16a.84.84,0,0,1-.3.11l-.6.16c-.79.22-2.27.68-2.29,1.72s1.22,1.49,2.05,1.59a4.19,4.19,0,0,0,1.72-.16c.14,0,.53-.24.68-.18s0,.57-.09.72c-.22.8-.12,1.71.83,1.9s1.76-.68,2-1.6c.11-.43.28-1.39.86-.82a4.21,4.21,0,0,1,.67,1c.43.75,1.44,1.45,2.22.7s.39-2.21,0-3.15a1.69,1.69,0,0,1-.1-.27c0-.11,0-.06.11,0s.22.19.3.26.38.4.57.59a3.22,3.22,0,0,0,1.19.88,1.65,1.65,0,0,0,2.07-.9,2.77,2.77,0,0,0-.61-2.85,13.57,13.57,0,0,0-1.29-1.34c-.31-.31-.24-.68-.31-1.08s-.17-.74-.25-1.1a4.15,4.15,0,0,0-.77-1.71A2.34,2.34,0,0,0,202.54,197.8Z" style="fill:#D7DF23"></path><path d="M202.54,197.8a1.51,1.51,0,0,0-.8,1.15,5,5,0,0,0,.37,1.45c0,.19.12.83-.21.8-.17,0-.39-.33-.48-.44-.22-.27-.39-.57-.61-.83-.55-.66-1.92-1.54-2.53-.46a1.54,1.54,0,0,0,.05,1.43,3.5,3.5,0,0,0,.5.71c.26.3.66.65.53,1.06s-.15.19-.35.05a1.92,1.92,0,0,1-.22-.18c-.17-.15-.32-.31-.48-.46a3.38,3.38,0,0,0-1.25-.71c-.93-.25-2,.57-1.48,1.56.23.47.69.67,1,1,.1.11.15,0,0,.16a.84.84,0,0,1-.3.11l-.6.16c-.79.22-2.27.68-2.29,1.72s1.22,1.49,2.05,1.59a4.19,4.19,0,0,0,1.72-.16c.14,0,.53-.24.68-.18s0,.57-.09.72c-.22.8-.12,1.71.83,1.9s1.76-.68,2-1.6c.11-.43.28-1.39.86-.82a4.21,4.21,0,0,1,.67,1c.43.75,1.44,1.45,2.22.7s.39-2.21,0-3.15a1.69,1.69,0,0,1-.1-.27c0-.11,0-.06.11,0s.22.19.3.26.38.4.57.59a3.22,3.22,0,0,0,1.19.88,1.65,1.65,0,0,0,2.07-.9,2.77,2.77,0,0,0-.61-2.85,13.57,13.57,0,0,0-1.29-1.34c-.31-.31-.24-.68-.31-1.08s-.17-.74-.25-1.1a4.15,4.15,0,0,0-.77-1.71A2.34,2.34,0,0,0,202.54,197.8Z" style="opacity:0.2"></path><path d="M209.52,200.29a20.1,20.1,0,0,1-11.15,4.93c0-.15,2.68-.7,5.75-2.07S209.43,200.16,209.52,200.29Z" style="fill:#263238"></path><path d="M201,202.33c.08-.12.63.13,1.22.56s1,.86.91,1-.63-.13-1.22-.55S200.88,202.45,201,202.33Z" style="fill:#263238"></path><path d="M200.78,204.63c.11.1-.07.49-.3,1s-.46.83-.6.79-.13-.52.13-1S200.67,204.54,200.78,204.63Z" style="fill:#263238"></path><path d="M85.37,244.58s11.27,8.68,19.91-3.72C105.28,240.86,92.66,233,85.37,244.58Z" style="fill:#D7DF23"></path><path d="M85.37,244.58s11.27,8.68,19.91-3.72C105.28,240.86,92.66,233,85.37,244.58Z" style="fill:#fff;opacity:0.30000000000000004"></path><path d="M109.63,239.81a79.66,79.66,0,0,1-8.9,2,81.75,81.75,0,0,1-9,1.47,79.66,79.66,0,0,1,8.9-2A81,81,0,0,1,109.63,239.81Z" style="fill:#263238"></path><path d="M93.49,240.57c.06-.12.84.14,1.74.6s1.57.93,1.5,1.06-.84-.14-1.74-.6S93.42,240.7,93.49,240.57Z" style="fill:#263238"></path><path d="M101.44,241.32c.11.09-.38.83-1.09,1.65s-1.37,1.4-1.48,1.3.38-.83,1.09-1.65S101.33,241.22,101.44,241.32Z" style="fill:#263238"></path><path d="M173,235.34s9.08-2.38,6.09-11.9C179.06,223.44,169.86,226.86,173,235.34Z" style="fill:#D7DF23"></path><path d="M173,235.34s9.08-2.38,6.09-11.9C179.06,223.44,169.86,226.86,173,235.34Z" style="fill:#fff;opacity:0.30000000000000004"></path><path d="M180.27,220.74a35,35,0,0,1-2.48,5.49,35.12,35.12,0,0,1-2.95,5.26,35.83,35.83,0,0,1,2.49-5.49A36.07,36.07,0,0,1,180.27,220.74Z" style="fill:#263238"></path><path d="M174.15,229.48c-.06-.13.38-.46,1-.75s1.14-.4,1.2-.27-.38.46-1,.74S174.21,229.61,174.15,229.48Z" style="fill:#263238"></path><path d="M177.75,225.63c.14,0,.37.51.51,1.21s.14,1.29,0,1.32-.37-.51-.51-1.21S177.61,225.65,177.75,225.63Z" style="fill:#263238"></path><path d="M112.73,326.33s-12.66-3-15.19,10.61C97.54,336.94,111,338.73,112.73,326.33Z" style="fill:#D7DF23"></path><path d="M112.73,326.33s-12.66-3-15.19,10.61C97.54,336.94,111,338.73,112.73,326.33Z" style="opacity:0.2"></path><path d="M94.31,339.46a65.66,65.66,0,0,1,6.66-5,66.34,66.34,0,0,1,7-4.6,65.66,65.66,0,0,1-6.66,5A66.34,66.34,0,0,1,94.31,339.46Z" style="fill:#263238"></path><path d="M107.48,332.73c0,.15-.76.23-1.68.19s-1.66-.2-1.65-.34.76-.23,1.68-.18S107.49,332.59,107.48,332.73Z" style="fill:#263238"></path><path d="M100.57,335.11c-.14,0,0-.84.26-1.79s.63-1.68.77-1.64,0,.84-.27,1.79S100.7,335.16,100.57,335.11Z" style="fill:#263238"></path><path d="M291.66,226.45s3.83,8.57,12.74,4.07C304.4,230.52,299.52,222,291.66,226.45Z" style="fill:#D7DF23"></path><path d="M307.25,231.28c-.09.08-3.05-.92-5.82-1.56a18.5,18.5,0,0,1-5.66-2.05,35.37,35.37,0,0,1,5.82,1.55A36.07,36.07,0,0,1,307.25,231.28Z" style="fill:#263238"></path><path d="M297.63,226.66c.12-.08.52.29.9.84s.59,1.06.47,1.14-.52-.3-.9-.84S297.51,226.74,297.63,226.66Z" style="fill:#263238"></path><path d="M302,229.58c.05.14-.45.45-1.12.7s-1.25.35-1.3.22.45-.45,1.12-.7S302,229.45,302,229.58Z" style="fill:#263238"></path><path d="M106.78,287.77s9.08-2.38,6.09-11.9C112.87,275.87,103.68,279.29,106.78,287.77Z" style="fill:#D7DF23"></path><path d="M114.09,273.17a35.83,35.83,0,0,1-2.49,5.49,34,34,0,0,1-2.94,5.26,35,35,0,0,1,2.48-5.49A35.12,35.12,0,0,1,114.09,273.17Z" style="fill:#263238"></path><path d="M108,281.92c-.06-.13.38-.47,1-.75s1.14-.41,1.2-.28-.38.46-1,.75S108,282.05,108,281.92Z" style="fill:#263238"></path><path d="M111.57,278.06c.14,0,.36.52.5,1.22s.14,1.29,0,1.32-.37-.52-.51-1.22S111.42,278.09,111.57,278.06Z" style="fill:#263238"></path></g></svg>