<svg xmlns="http://www.w3.org/2000/svg" viewBox="0 0 500 500"><g id="freepik--Stars--inject-149"><polygon points="180.37 46.23 190.52 56.58 204.81 51.18 205.38 54.73 199.19 67.4 204.9 76.86 204.42 79.69 190.59 77.36 182.41 86.33 180.49 84.88 178.8 73.47 165.9 66.75 165.33 64.14 178.32 60.59 180.37 46.23" style="fill:#D7DF23"></polygon><g style="opacity:0.30000000000000004"><polygon points="180.37 46.23 190.52 56.58 204.81 51.18 205.38 54.73 199.19 67.4 204.9 76.86 204.42 79.69 190.59 77.36 182.41 86.33 180.49 84.88 178.8 73.47 165.9 66.75 165.33 64.14 178.32 60.59 180.37 46.23"></polygon></g><polygon points="180.37 43.32 190.52 53.68 204.81 51.18 198.1 64.04 204.9 76.86 190.59 74.46 180.49 84.88 178.36 70.53 165.33 64.14 178.32 57.68 180.37 43.32" style="fill:#D7DF23"></polygon><polygon points="285.62 46.23 275.46 56.58 261.17 51.18 260.6 54.73 266.79 67.4 261.08 76.86 261.56 79.69 275.39 77.36 283.57 86.33 285.49 84.88 287.18 73.47 300.08 66.75 300.65 64.14 287.66 60.59 285.62 46.23" style="fill:#D7DF23"></polygon><g style="opacity:0.30000000000000004"><polygon points="285.62 46.23 275.46 56.58 261.17 51.18 260.6 54.73 266.79 67.4 261.08 76.86 261.56 79.69 275.39 77.36 283.57 86.33 285.49 84.88 287.18 73.47 300.08 66.75 300.65 64.14 287.66 60.59 285.62 46.23"></polygon></g><polygon points="285.62 43.32 275.46 53.68 261.17 51.18 267.88 64.04 261.08 76.86 275.39 74.46 285.49 84.88 287.62 70.53 300.65 64.14 287.66 57.68 285.62 43.32" style="fill:#D7DF23"></polygon><polygon points="232.66 28.06 241.11 44.57 260.6 43.42 259.94 47.96 247.56 61.07 250.91 74.78 249.26 78.05 233.27 69.94 219.88 77.78 218.09 75.27 220.37 60.7 207.19 47.59 207.49 44.2 224.69 44.81 232.66 28.06" style="fill:#D7DF23"></polygon><g style="opacity:0.30000000000000004"><polygon points="232.66 28.06 241.11 44.57 260.6 43.42 259.94 47.96 247.56 61.07 250.91 74.78 249.26 78.05 233.27 69.94 219.88 77.78 218.09 75.27 220.37 60.7 207.19 47.59 207.49 44.2 224.69 44.81 232.66 28.06"></polygon></g><polygon points="233.76 24.52 242.21 41.02 260.6 43.42 247.51 56.56 250.91 74.78 234.38 66.4 218.09 75.27 220.96 56.95 207.49 44.2 225.8 41.26 233.76 24.52" style="fill:#D7DF23"></polygon></g></svg>