<svg xmlns="http://www.w3.org/2000/svg" viewBox="0 0 500 500"><g id="freepik--background-complete--inject-58"><path d="M399.73,64.81c.49-3.55-4.53-6.48-8.3-6.78-1.8-.14-3.66.13-5.37-.46-3.68-1.29-5.16-6.06-8.76-7.57-2.69-1.14-5.79-.13-8.4,1.18s-5.18,3-8.1,3.16c-2.54.16-5.29-.78-7.51.46-1.65.92-2.52,2.83-4,4A9.61,9.61,0,0,1,344,60.18a14.89,14.89,0,0,0-5.45.89c-1.69.77-3.08,2.55-2.73,4.37Z" style="fill:#fafafa"></path><path d="M234.25,135.6c.71-5.2-6.62-9.47-12.14-9.92-2.62-.21-5.35.19-7.84-.68-5.4-1.88-7.55-8.85-12.82-11.07-3.94-1.66-8.47-.18-12.28,1.74s-7.59,4.34-11.85,4.61c-3.71.24-7.74-1.14-11,.67-2.42,1.35-3.68,4.14-5.91,5.78s-5,2-7.73,2.1-5.5.17-8,1.3-4.5,3.73-4,6.39Z" style="fill:#ebebeb"></path><path d="M252.88,62.59c.63-4.52-5.75-8.24-10.55-8.63-2.29-.18-4.66.17-6.83-.59-4.69-1.63-6.57-7.69-11.15-9.63-3.42-1.44-7.36-.15-10.68,1.52s-6.6,3.77-10.31,4c-3.22.2-6.73-1-9.55.58-2.1,1.18-3.2,3.6-5.14,5S184.3,56.57,182,56.7s-4.79.15-6.93,1.13-3.92,3.25-3.47,5.56Z" style="fill:#f5f5f5"></path><path d="M452.12,98.5c.41-2.94-3.75-5.37-6.88-5.62-1.49-.12-3,.11-4.45-.38-3.06-1.07-4.28-5-7.27-6.28-2.23-.94-4.8-.11-7,1s-4.31,2.46-6.72,2.62c-2.11.13-4.39-.65-6.23.38-1.37.76-2.09,2.34-3.35,3.28a8,8,0,0,1-4.38,1.18,12.47,12.47,0,0,0-4.52.74A3.57,3.57,0,0,0,399.1,99Z" style="fill:#f5f5f5"></path><polygon points="179.13 278.71 193.42 218.84 215.82 274.47 209.26 272.53 225.48 305.75 216.21 302.66 227.41 315.35 177.2 315.35 181.45 304.21 177.2 310 186.49 274.96 179.13 278.71" style="fill:#f5f5f5"></polygon><polygon points="33.59 251.97 53.28 169.49 84.14 246.12 75.09 243.46 97.44 289.22 84.67 284.96 100.11 314.76 30.93 314.76 36.78 287.09 30.93 295.07 43.72 246.8 33.59 251.97" style="fill:#f5f5f5"></polygon><polygon points="126.6 251.87 146.29 169.39 177.15 246.01 168.11 243.35 190.46 289.12 177.69 284.86 193.12 314.66 123.94 314.66 129.79 286.99 123.94 294.97 136.74 246.69 126.6 251.87" style="fill:#f5f5f5"></polygon><polygon points="207.5 290.46 215.36 257.55 227.67 288.13 224.06 287.06 232.98 305.32 227.88 303.63 234.04 315.51 206.44 315.51 208.77 304.47 206.44 307.66 211.54 288.4 207.5 290.46" style="fill:#e0e0e0"></polygon><polygon points="411.3 278.13 425.59 218.26 447.99 273.88 441.43 271.94 457.65 305.16 448.38 302.07 459.58 314.76 409.37 314.76 413.62 303.62 409.37 309.41 418.66 274.37 411.3 278.13" style="fill:#f5f5f5"></polygon><polygon points="439.9 289.71 447.76 256.8 460.07 287.37 456.47 286.31 465.38 304.57 460.29 302.87 466.44 314.76 438.84 314.76 441.18 303.72 438.84 306.91 443.95 287.65 439.9 289.71" style="fill:#e0e0e0"></polygon><polygon points="91 265.85 106.34 201.6 130.38 261.29 123.34 259.22 140.75 294.87 130.8 291.55 142.82 314.76 88.93 314.76 93.49 293.21 88.93 299.43 98.9 261.82 91 265.85" style="fill:#e0e0e0"></polygon><path d="M484,314.76c0,.15-104,.26-232.21.26s-232.23-.11-232.23-.26,104-.26,232.23-.26S484,314.62,484,314.76Z" style="fill:#e0e0e0"></path><circle cx="94.83" cy="83.61" r="20.89" transform="translate(-2.81 163.93) rotate(-80.84)" style="fill:#e0e0e0"></circle><path d="M91.86,130.32a85,85,0,0,1-.22-8.61,85.17,85.17,0,0,1,.22-8.62,85.17,85.17,0,0,1,.22,8.62A85,85,0,0,1,91.86,130.32Z" style="fill:#e0e0e0"></path><path d="M79.82,108.23c.11.06-1.86,3.66-4.39,8s-4.66,7.88-4.77,7.82,1.86-3.66,4.39-8S79.72,108.17,79.82,108.23Z" style="fill:#e0e0e0"></path><path d="M67.47,100.54a46.65,46.65,0,0,1-4.88,4.16,46.66,46.66,0,0,1-5.15,3.81,48.26,48.26,0,0,1,4.88-4.16A47.14,47.14,0,0,1,67.47,100.54Z" style="fill:#e0e0e0"></path><path d="M112.7,121.83a11.34,11.34,0,0,1-.55-2.12c-.31-1.31-.73-3.12-1.26-5.11s-1.08-3.77-1.48-5.06a12,12,0,0,1-.59-2.11,9.26,9.26,0,0,1,.88,2c.48,1.27,1.07,3,1.61,5s.92,3.83,1.14,5.16A10.85,10.85,0,0,1,112.7,121.83Z" style="fill:#e0e0e0"></path><path d="M133.88,106.8a74.75,74.75,0,0,1-6.17-5.11,74.57,74.57,0,0,1-5.89-5.43,72.42,72.42,0,0,1,6.18,5.1A72.2,72.2,0,0,1,133.88,106.8Z" style="fill:#e0e0e0"></path><path d="M142,86.14a18.86,18.86,0,0,1-2.52-.36c-1.55-.26-3.69-.59-6.06-.87s-4.54-.43-6.11-.53a16.14,16.14,0,0,1-2.53-.22,13.6,13.6,0,0,1,2.55-.09,61,61,0,0,1,6.14.41c2.38.27,4.53.66,6.07,1A12.76,12.76,0,0,1,142,86.14Z" style="fill:#e0e0e0"></path><path d="M142,65.82c0,.12-4.49,1.32-10.1,2.69s-10.17,2.38-10.2,2.26,4.49-1.32,10.1-2.69S142,65.71,142,65.82Z" style="fill:#e0e0e0"></path><path d="M118.42,42.15c.1.07-2.06,3.52-4.83,7.71s-5.1,7.53-5.2,7.47,2.06-3.52,4.83-7.71S118.32,42.09,118.42,42.15Z" style="fill:#e0e0e0"></path><path d="M95,37.21a22,22,0,0,1,0,2.87C95,41.85,95,44.29,95,47s0,5.15.07,6.91a21.13,21.13,0,0,1,0,2.87,16.84,16.84,0,0,1-.29-2.85c-.11-1.77-.2-4.22-.2-6.92s.08-5.16.19-6.92A16.38,16.38,0,0,1,95,37.21Z" style="fill:#e0e0e0"></path><path d="M77.26,59.3c-.11.06-2.31-3.35-4.92-7.62s-4.64-7.79-4.54-7.85,2.31,3.35,4.92,7.62S77.36,59.24,77.26,59.3Z" style="fill:#e0e0e0"></path><path d="M66.66,68.31A11.12,11.12,0,0,1,64.44,68c-1.36-.28-3.22-.74-5.25-1.33s-3.85-1.23-5.14-1.73A11,11,0,0,1,52,64a12.93,12.93,0,0,1,2.16.62c1.32.42,3.14,1,5.16,1.59s3.87,1.1,5.2,1.46A12.19,12.19,0,0,1,66.66,68.31Z" style="fill:#e0e0e0"></path><path d="M62,84.35a49.72,49.72,0,0,1-6.66.87,52.39,52.39,0,0,1-6.71.42,50.8,50.8,0,0,1,6.66-.86A51.43,51.43,0,0,1,62,84.35Z" style="fill:#e0e0e0"></path><path d="M404,373.09l14,99.8,3.65.12C419.31,439.11,416.84,404.54,404,373.09Z" style="fill:#e0e0e0"></path><path d="M442.9,368.42c-9.79,10.72-13.72,25.47-16.2,39.78-3.52,20.29-3.84,44.25-2.79,64.81l5.12.12A281.63,281.63,0,0,1,442.9,368.42Z" style="fill:#e0e0e0"></path><path d="M406.55,432.14c-1.12-4.95-2.41-10-5.23-14.19-3.81-5.69-10-9.29-16.27-12.09s-12.83-5-18.48-8.92c6.3,10.33,20.61,13.08,27.89,22.75,3.62,4.8,5.13,10.84,6.55,16.69,3.09,12.75,5,23.79,8.09,36.55h4.15A325.33,325.33,0,0,0,406.55,432.14Z" style="fill:#e0e0e0"></path><path d="M432.76,473s3.51-39.64,6.12-46.91,27.2-27.39,27-26.44-18.46,22.95-21.06,27.44-7.1,45.91-7.1,45.91Z" style="fill:#e0e0e0"></path><path d="M60,373.09l14,99.8,3.65.12C75.36,439.11,72.88,404.54,60,373.09Z" style="fill:#e0e0e0"></path><path d="M98.94,368.42c-9.79,10.72-13.72,25.47-16.2,39.78C79.22,428.49,78.9,452.45,80,473l5.11.12A281.63,281.63,0,0,1,98.94,368.42Z" style="fill:#e0e0e0"></path><path d="M62.6,432.14c-1.13-4.95-2.42-10-5.24-14.19-3.81-5.69-10-9.29-16.27-12.09s-12.83-5-18.48-8.92c6.3,10.33,20.61,13.08,27.89,22.75,3.62,4.8,5.13,10.84,6.55,16.69,3.09,12.75,5,23.79,8.1,36.55h4.14A327.15,327.15,0,0,0,62.6,432.14Z" style="fill:#e0e0e0"></path><path d="M88.8,473s3.52-39.64,6.12-46.91,27.2-27.39,27-26.44-18.46,22.95-21.06,27.44S93.73,473,93.73,473Z" style="fill:#e0e0e0"></path><path d="M350.86,107.47c.49-3.55-4.53-6.47-8.3-6.78-1.8-.14-3.66.13-5.37-.46-3.68-1.29-5.16-6-8.76-7.57-2.69-1.14-5.79-.13-8.4,1.19s-5.18,3-8.1,3.15c-2.54.16-5.29-.78-7.51.46-1.65.92-2.52,2.83-4,4a9.61,9.61,0,0,1-5.28,1.43,14.9,14.9,0,0,0-5.45.9c-1.69.77-3.08,2.55-2.73,4.37Z" style="fill:#fafafa"></path></g><g id="freepik--Hearts--inject-58"><path d="M331.08,90.94a4.18,4.18,0,0,0-.68-2.35A4,4,0,0,0,328.58,87a3.18,3.18,0,0,0-3.69,1,3.17,3.17,0,0,0-3.13-2,3.82,3.82,0,0,0-2.21.92,4.06,4.06,0,0,0-1.38,2,5,5,0,0,0,.12,3.11,7,7,0,0,0,2,2.62c1.41,1.19,3.27,2.69,3.27,2.69s1.94-1,3.65-1.7A7,7,0,0,0,330,93.85,5,5,0,0,0,331.08,90.94Z" style="fill:#D7DF23"></path><path d="M335.37,111.92a6.77,6.77,0,0,0-1.13-3.89,6.44,6.44,0,0,0-3-2.58,5.34,5.34,0,0,0-4.17.14,5.27,5.27,0,0,0-1.94,1.6,5.25,5.25,0,0,0-1.27-1.91,5.34,5.34,0,0,0-3.91-1.44,6.49,6.49,0,0,0-3.66,1.52A6.68,6.68,0,0,0,314,108.7a8.21,8.21,0,0,0,.21,5.14,11.45,11.45,0,0,0,3.35,4.34c2.33,2,5.41,4.46,5.41,4.46s3.22-1.69,6-2.83a11.71,11.71,0,0,0,4.54-3.06A8.23,8.23,0,0,0,335.37,111.92Z" style="fill:#D7DF23"></path><path d="M345.34,101.51a2.28,2.28,0,0,0-.38-1.31,2.19,2.19,0,0,0-1-.87,1.79,1.79,0,0,0-1.4,0,1.7,1.7,0,0,0-.65.54,1.89,1.89,0,0,0-.43-.65,1.77,1.77,0,0,0-1.31-.48,2.25,2.25,0,0,0-1.24.51,2.36,2.36,0,0,0-.77,1.12,2.87,2.87,0,0,0,.07,1.74,4,4,0,0,0,1.13,1.45c.79.67,1.82,1.5,1.82,1.5s1.09-.56,2-1a4,4,0,0,0,1.53-1A2.71,2.71,0,0,0,345.34,101.51Z" style="fill:#D7DF23"></path></g></svg>