<svg xmlns="http://www.w3.org/2000/svg" viewBox="0 0 750 500"><g id="freepik--charger-station--inject-5"><polygon points="712.99 428.29 653.39 428.94 653.39 279.03 712.99 279.03 712.99 428.29" style="fill:#D7DF23"></polygon><g style="opacity:0.30000000000000004"><polygon points="712.99 428.29 653.39 428.94 653.39 279.03 712.99 279.03 712.99 428.29"></polygon></g><polygon points="686.13 428.58 626.53 428.94 626.53 279.03 686.13 279.03 686.13 428.58" style="fill:#D7DF23"></polygon><polygon points="625.14 266.39 625.14 268.17 688.4 268.17 713.99 231.18 713.36 228.69 625.14 266.39" style="fill:#263238"></polygon><rect x="644.43" y="267.74" width="2.04" height="11.29" style="fill:#263238"></rect><polygon points="692.92 259.57 692.92 279.03 695.39 279.03 695.39 257.48 692.92 259.57" style="fill:#263238"></polygon><polygon points="651.03 228.69 625.14 266.39 687.47 266.39 713.36 228.69 651.03 228.69" style="fill:#455a64"></polygon><path d="M646.43,266.39c-.12-.08,5.72-8.59,13-19s13.34-18.78,13.45-18.69-5.71,8.58-13,19S646.55,266.47,646.43,266.39Z" style="fill:#ebebeb"></path><path d="M667.29,266.39c-.11-.08,5.72-8.59,13-19s13.34-18.78,13.46-18.69-5.72,8.58-13,19S667.41,266.47,667.29,266.39Z" style="fill:#ebebeb"></path><path d="M638.73,247.54c0-.14,13.84-.26,30.91-.26s30.92.12,30.92.26-13.84.26-30.92.26S638.73,247.69,638.73,247.54Z" style="fill:#ebebeb"></path><rect x="639.89" y="295.03" width="34.16" height="38.52" style="fill:#ebebeb"></rect><path d="M648.38,344.43a3.49,3.49,0,0,1-3.49,3.49c-.87,0-3.09-.09-3.09-.09a4.87,4.87,0,0,1-1.84-3.6,3.66,3.66,0,0,1,2.13-3.25s2.08,0,2.8,0A3.49,3.49,0,0,1,648.38,344.43Z" style="fill:#263238"></path><circle cx="642.56" cy="344.43" r="3.49" style="fill:#455a64"></circle><path d="M661.1,344.43a3.49,3.49,0,0,1-3.49,3.49c-.87,0-3.09-.09-3.09-.09a4.87,4.87,0,0,1-1.84-3.6,3.66,3.66,0,0,1,2.13-3.25s2.08,0,2.8,0A3.49,3.49,0,0,1,661.1,344.43Z" style="fill:#263238"></path><circle cx="655.28" cy="344.43" r="3.49" style="fill:#455a64"></circle><path d="M673.69,344.43a3.49,3.49,0,0,1-3.49,3.49c-.87,0-3.09-.09-3.09-.09a4.87,4.87,0,0,1-1.84-3.6A3.66,3.66,0,0,1,667.4,341s2.08,0,2.8,0A3.49,3.49,0,0,1,673.69,344.43Z" style="fill:#263238"></path><path d="M671.36,344.43a3.49,3.49,0,1,1-3.49-3.49A3.49,3.49,0,0,1,671.36,344.43Z" style="fill:#455a64"></path><polygon points="657.79 303.15 650.02 303.26 657.19 314.29 651.76 314.36 659.37 329.52 656.75 318.25 663.91 318.16 657.79 303.15" style="fill:#D7DF23"></polygon><path d="M677.25,421.17s0-.1,0-.3,0-.49,0-.86c0-.78,0-1.89,0-3.32,0-2.92,0-7.13-.07-12.46,0-10.66-.07-25.73-.12-43.5l.24.24-40.57,0c-.06.06.49-.48.26-.24h0v16.68c0,5.43,0,10.71,0,15.8,0,10.18,0,19.6,0,27.93l-.21-.2,29.5.11,8.17.05,2.15,0,.75,0s-.23,0-.7,0l-2.12,0-8.12,0-29.63.11h-.21v-.21c0-8.33,0-17.75,0-27.93,0-5.09,0-10.37,0-15.8V360.76h0c-.23.22.31-.34.26-.28l40.57,0h.24v.23c0,17.83-.09,33-.12,43.66,0,5.3,0,9.5-.06,12.4,0,1.41,0,2.51,0,3.28,0,.35,0,.62,0,.83A1.15,1.15,0,0,1,677.25,421.17Z" style="fill:#263238"></path><path d="M671.63,390.74c.06.06-.23.36-.12.92a1.07,1.07,0,0,0,.48.74,1,1,0,0,0,1.39-1,1.09,1.09,0,0,0-.56-.69c-.5-.27-.88-.09-.91-.16s.35-.42,1.06-.18a1.41,1.41,0,0,1,.87.91,1.34,1.34,0,0,1-.56,1.45,1.36,1.36,0,0,1-1.55.09,1.43,1.43,0,0,1-.59-1.11C671.12,391,671.61,390.68,671.63,390.74Z" style="fill:#263238"></path></g></svg>