<svg xmlns="http://www.w3.org/2000/svg" viewBox="0 0 500 500"><g id="freepik--Sparkles--inject-2"><path d="M349.24,253.23l5.14,1.93-4.46,1.27a4.63,4.63,0,0,0-3.15,3l-1.61,4.94-2-4.95a4.63,4.63,0,0,0-2.72-2.64l-4.52-1.64,4.89-2a4.68,4.68,0,0,0,2.57-2.63l1.77-4.59,1.26,4.26A4.65,4.65,0,0,0,349.24,253.23Z" style="fill:#D7DF23"></path><path d="M173.84,134.15l5.14,1.93-4.46,1.26a4.66,4.66,0,0,0-3.15,3l-1.61,4.93-2-4.94a4.62,4.62,0,0,0-2.73-2.64l-4.51-1.64,4.89-2a4.65,4.65,0,0,0,2.57-2.63l1.77-4.58,1.26,4.26A4.65,4.65,0,0,0,173.84,134.15Z" style="fill:#D7DF23"></path><path d="M159.72,257.14l2.49.93-2.16.62a2.26,2.26,0,0,0-1.53,1.46l-.78,2.39-1-2.39a2.25,2.25,0,0,0-1.32-1.28l-2.19-.8,2.37-1a2.32,2.32,0,0,0,1.25-1.27l.85-2.23.61,2.07A2.28,2.28,0,0,0,159.72,257.14Z" style="fill:#D7DF23"></path><path d="M335.44,228.35l2.63,1-2.29.65a2.4,2.4,0,0,0-1.61,1.55l-.83,2.53-1-2.53a2.42,2.42,0,0,0-1.39-1.36l-2.32-.84,2.51-1a2.43,2.43,0,0,0,1.32-1.35l.9-2.35.65,2.18A2.36,2.36,0,0,0,335.44,228.35Z" style="fill:#D7DF23"></path><path d="M162.63,164l2.63,1-2.28.64a2.39,2.39,0,0,0-1.62,1.56l-.83,2.52-1-2.53a2.46,2.46,0,0,0-1.4-1.36L155.8,165l2.51-1a2.4,2.4,0,0,0,1.32-1.35l.9-2.35.65,2.18A2.36,2.36,0,0,0,162.63,164Z" style="fill:#D7DF23"></path></g><g id="freepik--Character--inject-2"><path d="M288.21,111.83s-19.06-15-42.1-10.24c-21.16,4.4-42.5,20.47-42.5,20.47l-2.74-28.83s4.71,5.61,7.46,4.43,2.76-22.43,2.76-22.43,10.23,13.38,16.13,12.2,14.17-27.94,14.17-27.94,12.2,23.22,19.28,24,13-14.95,13-14.95S278,89.79,283.1,90.77s7.47-8.85,7.47-8.85Z" style="fill:#D7DF23"></path><path d="M287.61,81.74a3,3,0,1,0,3-3A3,3,0,0,0,287.61,81.74Z" style="fill:#D7DF23"></path><circle cx="273.73" cy="66.66" r="2.96" style="fill:#D7DF23"></circle><circle cx="241.24" cy="57.57" r="3.28" style="fill:#D7DF23"></circle><circle cx="211.43" cy="74.07" r="3.28" style="fill:#D7DF23"></circle><path d="M197.3,91.77A2.77,2.77,0,1,0,200.07,89,2.77,2.77,0,0,0,197.3,91.77Z" style="fill:#D7DF23"></path><path d="M288.6,106.93s-.08,0-.21-.12l-.58-.39c-.52-.34-1.22-.92-2.22-1.52a50,50,0,0,0-8.78-4.53,54.17,54.17,0,0,0-14.2-3.47,61.26,61.26,0,0,0-8.65-.28,66.49,66.49,0,0,0-9.22,1.06A83.45,83.45,0,0,0,227.6,103a113.75,113.75,0,0,0-13.07,6.68c-3.6,2.14-6.44,4-8.38,5.31l-2.23,1.52-.58.38c-.14.09-.21.13-.22.12a1.22,1.22,0,0,1,.18-.16l.56-.43c.5-.36,1.22-.92,2.18-1.59,1.9-1.37,4.71-3.28,8.3-5.46a106.75,106.75,0,0,1,13.07-6.81,81.94,81.94,0,0,1,17.23-5.39,66.1,66.1,0,0,1,9.3-1.06,62.1,62.1,0,0,1,8.72.31A53,53,0,0,1,276.94,100a46.12,46.12,0,0,1,8.76,4.7c1,.63,1.67,1.24,2.17,1.6l.55.44C288.55,106.87,288.61,106.93,288.6,106.93Z" style="fill:#263238"></path><g style="opacity:0.30000000000000004"><path d="M247.82,83.59a5.19,5.19,0,0,0-3.58-3.44,4,4,0,0,0-3.86,1.34l.05-.09a7,7,0,0,0,.13,9.38,4.31,4.31,0,0,0,3.82,1.49c1.67-.33,2.76-2,3.3-3.59A8.14,8.14,0,0,0,247.82,83.59Z"></path></g><path d="M241.24,90.22c-.05,0-.46-.36-.87-1.18a6.68,6.68,0,0,1,.58-6.82c.54-.74,1-1.06,1.06-1s-.31.47-.75,1.22a7.42,7.42,0,0,0-.55,6.47A12,12,0,0,1,241.24,90.22Z" style="fill:#fff"></path><g style="opacity:0.30000000000000004"><path d="M221.47,94.17a3.17,3.17,0,0,0-2.71-1.4,2.43,2.43,0,0,0-2,1.45l0-.06a4.33,4.33,0,0,0,1.71,5.52,2.65,2.65,0,0,0,2.51.21,3,3,0,0,0,1.32-2.69A5,5,0,0,0,221.47,94.17Z"></path></g><path d="M218.81,99.2s-.36-.09-.77-.5a4,4,0,0,1-1-2,3.9,3.9,0,0,1,.18-2.22c.21-.54.45-.8.51-.77a8.37,8.37,0,0,0-.18,2.88A8.56,8.56,0,0,0,218.81,99.2Z" style="fill:#fff"></path><g style="opacity:0.30000000000000004"><path d="M274.22,88.85a3.2,3.2,0,0,0-2-2.3,2.42,2.42,0,0,0-2.43.61l0,0a4.34,4.34,0,0,0-.42,5.76A2.68,2.68,0,0,0,271.64,94a3.08,3.08,0,0,0,2.22-2A5,5,0,0,0,274.22,88.85Z"></path></g><path d="M269.74,92.64c-.06,0-.31-.23-.54-.75a4.13,4.13,0,0,1-.24-2.22,4,4,0,0,1,1-2c.39-.42.72-.57.76-.52a8.27,8.27,0,0,0-1.23,2.61A8.53,8.53,0,0,0,269.74,92.64Z" style="fill:#fff"></path><g style="opacity:0.30000000000000004"><path d="M208.71,105.48a2.27,2.27,0,0,0-2.08-.58,1.73,1.73,0,0,0-1.21,1.31v0a3.08,3.08,0,0,0,2,3.58,1.91,1.91,0,0,0,1.77-.22,2.17,2.17,0,0,0,.52-2.06A3.45,3.45,0,0,0,208.71,105.48Z"></path></g><path d="M207.54,109.47c0,.06-.29,0-.65-.2a2.75,2.75,0,0,1-1-1.22,2.69,2.69,0,0,1-.18-1.6c.08-.41.23-.63.29-.61s-.08,1,.37,2S207.61,109.34,207.54,109.47Z" style="fill:#fff"></path><g style="opacity:0.30000000000000004"><path d="M287.44,98.47a2.25,2.25,0,0,0-.63-2.07,1.72,1.72,0,0,0-1.76-.31l0,0a3.08,3.08,0,0,0-1.94,3.61,1.89,1.89,0,0,0,1.14,1.38,2.19,2.19,0,0,0,2-.67A3.52,3.52,0,0,0,287.44,98.47Z"></path></g><path d="M283.45,99.62c-.07,0-.18-.23-.18-.65A2.77,2.77,0,0,1,285,96.42c.39-.15.65-.14.67-.07s-.88.46-1.49,1.38S283.6,99.61,283.45,99.62Z" style="fill:#fff"></path><path d="M190.05,100.42a41.78,41.78,0,0,1-6.38-1.55,41.34,41.34,0,0,1-6.23-2.06,41.22,41.22,0,0,1,6.37,1.56A41.08,41.08,0,0,1,190.05,100.42Z" style="fill:#263238"></path><path d="M202.05,80a89.76,89.76,0,0,1-5.8-7.77,87.71,87.71,0,0,1-5.38-8.07,92.26,92.26,0,0,1,5.8,7.77A87.71,87.71,0,0,1,202.05,80Z" style="fill:#263238"></path><path d="M226.16,68.76c-.14,0-1.12-5.31-2.19-11.9s-1.82-12-1.68-12,1.12,5.3,2.19,11.89S226.3,68.73,226.16,68.76Z" style="fill:#263238"></path><path d="M265.11,35.74a5.74,5.74,0,0,1,0,1.19c0,.77-.11,1.87-.23,3.23-.23,2.73-.64,6.49-1.25,10.62s-1.29,7.85-1.85,10.52c-.27,1.34-.52,2.42-.7,3.17a4.56,4.56,0,0,1-.34,1.14,5.92,5.92,0,0,1,.14-1.18c.15-.87.33-1.93.54-3.19.47-2.7,1.09-6.42,1.7-10.54s1.07-7.86,1.4-10.58q.23-1.9.39-3.21A5,5,0,0,1,265.11,35.74Z" style="fill:#263238"></path><path d="M294.64,59.59a76.79,76.79,0,0,1-5.41,7.18,77.52,77.52,0,0,1-5.83,6.85,78.09,78.09,0,0,1,5.42-7.18A78.31,78.31,0,0,1,294.64,59.59Z" style="fill:#263238"></path><path d="M312.25,91.06a53.07,53.07,0,0,1-7.51,1,55.71,55.71,0,0,1-7.57.48,55.9,55.9,0,0,1,7.52-1A56.63,56.63,0,0,1,312.25,91.06Z" style="fill:#263238"></path><path d="M383.36,310.36s-8.84.67-8.27,4.21,4.85,5.52,10.09,4.73l4.67-5.78Z" style="fill:#eb996e"></path><path d="M372.08,352l10.3,42.7,32.09-48,23,7.2s-45.42,103.39-56.4,101.67-20-2.45-25.44-14-18.4-54.21-18.4-54.21l-3.92-18.88L370.85,352" style="fill:#ffbe9d"></path><path d="M367.67,292.55s40.71,6.16,42.36,7.34,30.06,30.3,30.3,38.58a40.27,40.27,0,0,1-2.84,15.39L415,348.65l-10.41-12.78s-8.52.23-10.65-1.19-4.5-5-4-6.86c0,0-6.39-.24-4.73-8.52,0,0-7.34-4.5-2.37-8.52s14.2-5.45,14.2-5.45-25.08-3.78-27.92-6.62A5.78,5.78,0,0,1,367.67,292.55Z" style="fill:#ffbe9d"></path><path d="M399.71,313.89c0,.16-3.33.68-7.22,2.15s-6.77,3.25-6.85,3.11a7.67,7.67,0,0,1,1.82-1.28,30.45,30.45,0,0,1,4.85-2.32,30,30,0,0,1,5.18-1.44A7.48,7.48,0,0,1,399.71,313.89Z" style="fill:#eb996e"></path><path d="M403.28,324.2c0,.15-2.95.58-6.51,1.52s-6.37,2-6.43,1.86a6.73,6.73,0,0,1,1.77-.88,37.72,37.72,0,0,1,9.2-2.4A6.48,6.48,0,0,1,403.28,324.2Z" style="fill:#eb996e"></path><path d="M423.19,352.25a25.46,25.46,0,0,1-4.57-2.14,24.35,24.35,0,0,1-4.33-2.6,24.65,24.65,0,0,1,4.57,2.14A24.35,24.35,0,0,1,423.19,352.25Z" style="fill:#eb996e"></path><path d="M381.41,415.05a96.63,96.63,0,0,1,.36-10.26,98.26,98.26,0,0,1,.88-10.23c.14,0,0,4.6-.36,10.26S381.55,415.06,381.41,415.05Z" style="fill:#eb996e"></path><path d="M328,275.73c-3.58-5.16-8.25-9.61-10.9-15.3a49.5,49.5,0,0,1-3.29-11.82l-18.09-95-95.23-10.31a177.71,177.71,0,0,0-22.29,84c-.16,15.15.94,32.26-9.49,43.25-4.4,4.64-10.77,8-12.47,14.22-1.45,5.26,1.08,10.86.41,16.28-.78,6.36-5.71,11.26-9.23,16.61a42,42,0,0,0-6.74,26.21c.36,4.4,1.76,9.23,5.59,11.43,2.37,1.36,5.23,1.44,8,1.49,59.76,1.13,120.16,2.2,178.55-10.54,2.4-11.89,4.81-23.87,4.79-36S334.9,285.69,328,275.73Z" style="fill:#263238"></path><path d="M184.16,361.69s-.1-.13-.27-.39-.42-.68-.74-1.18a39.93,39.93,0,0,1-2.4-4.76,41.7,41.7,0,0,1-2.39-8.1,42.48,42.48,0,0,1-.55-11.17A40.05,40.05,0,0,1,181.28,323c2-4.45,4.95-8.82,6.81-13.94a26,26,0,0,0,1.06-4,22.25,22.25,0,0,0,.3-4.18,35.78,35.78,0,0,0-1.49-8.56c-.79-2.85-1.78-5.72-2.61-8.7a40,40,0,0,1-1.57-9.25c-.26-6.38,1-12.52,2.42-18.3s3.1-11.29,4.23-16.64a164.31,164.31,0,0,0,3.62-28.78,167.73,167.73,0,0,0-.47-19.57c-.2-2.3-.37-4.09-.52-5.3-.06-.59-.11-1.05-.14-1.38s0-.47,0-.47a4,4,0,0,1,.08.46c.05.33.11.79.2,1.37.18,1.21.38,3,.61,5.3a157.49,157.49,0,0,1,.64,19.61,161.75,161.75,0,0,1-3.52,28.87c-1.12,5.36-2.75,10.89-4.2,16.66s-2.66,11.85-2.4,18.14,2.56,12.11,4.16,17.85A36.31,36.31,0,0,1,190,300.9a22.61,22.61,0,0,1-.32,4.28,25.55,25.55,0,0,1-1.09,4c-1.9,5.2-4.85,9.55-6.87,14a40,40,0,0,0-3.5,12.94,42,42,0,0,0,.48,11.08,43,43,0,0,0,2.28,8.08,45.25,45.25,0,0,0,2.31,4.79q.45.76.69,1.2C184.09,361.54,184.16,361.69,184.16,361.69Z" style="fill:#455a64"></path><path d="M260.21,109.89c-18.16-.58-35.77,3.53-48.72,16.27-11.88,11.7-17.17,22.55-18.14,39.7-.33,5.88,2.19,18.83,4.57,24.21s9,19,14.51,21,8.2-7.42,12-11.88c2.35-2.72,3.41-6.3,4.45-9.74,4.39-14.56,9.7-29.11,18.79-41.31s22.47-21.88,37.6-23.48l9.66-.22C282.64,112.52,272.19,110.28,260.21,109.89Z" style="fill:#455a64"></path><path d="M275.25,129.06l-49.36,18.46a9.62,9.62,0,0,0-7.48,10.65L235.6,268.41a34.56,34.56,0,0,0,10.31,19.72l5.8,5.54c13.23,12.63,35.47,7.82,41.54-9.44a12.8,12.8,0,0,0,.74-3.06,23.59,23.59,0,0,0,.1-2.57,80.81,80.81,0,0,0-1.62-16.84c-1-9.89-1.43-13.95-1.42-13.86s20.47-5.77,21.78-33.45c.65-13.77-2.49-35.88-5.64-53.88C304.35,144.36,291.32,125.54,275.25,129.06Z" style="fill:#ffbe9d"></path><path d="M299.21,180.39a3.51,3.51,0,0,1-3,3.89,3.36,3.36,0,0,1-3.95-2.75,3.52,3.52,0,0,1,3-3.89A3.35,3.35,0,0,1,299.21,180.39Z" style="fill:#263238"></path><path d="M304.6,172.64c-.39.5-3.25-1.16-7-.73s-6.3,2.61-6.75,2.19c-.23-.18.12-1,1.22-2.06a9.68,9.68,0,0,1,5.35-2.32,9.26,9.26,0,0,1,5.63,1.16C304.3,171.63,304.79,172.41,304.6,172.64Z" style="fill:#263238"></path><path d="M263.78,183.76a3.51,3.51,0,0,1-3,3.89,3.36,3.36,0,0,1-3.95-2.75,3.51,3.51,0,0,1,3-3.89A3.36,3.36,0,0,1,263.78,183.76Z" style="fill:#263238"></path><path d="M266.83,176.14c-.38.51-3.25-1.16-7-.73s-6.29,2.61-6.75,2.19c-.22-.18.12-1,1.23-2.06a9.61,9.61,0,0,1,5.34-2.32,9.3,9.3,0,0,1,5.64,1.16C266.53,175.14,267,175.92,266.83,176.14Z" style="fill:#263238"></path><path d="M283.54,203.76c0-.21,2.25-.87,6-1.77.94-.21,1.83-.5,1.92-1.17a4.89,4.89,0,0,0-1-2.77c-1.15-2.22-2.37-4.55-3.64-7-5.09-9.95-8.89-18.19-8.48-18.39s4.85,7.71,9.94,17.67l3.53,7c.48,1.05,1.24,2.22.91,3.71a2.41,2.41,0,0,1-1.42,1.57,6.28,6.28,0,0,1-1.6.41C285.94,203.7,283.58,204,283.54,203.76Z" style="fill:#263238"></path><path d="M291.05,247.9a69.62,69.62,0,0,1-37.51-5.68s11.25,17.82,38.2,12.26Z" style="fill:#eb996e"></path><path d="M283,213a6.77,6.77,0,0,0-6.34-1.84,6.17,6.17,0,0,0-4,2.76,4,4,0,0,0,.2,4.51c1.17,1.31,3.32,1.4,5.06.69a14.25,14.25,0,0,0,4.48-3.39,4.32,4.32,0,0,0,1-1.23,1.28,1.28,0,0,0-.16-1.4" style="fill:#eb996e"></path><path d="M272.78,207.58c.61-.1,1.06,4,4.87,6.48s8.1,1.58,8.19,2.15c.09.24-.88.89-2.7,1.15a10.25,10.25,0,0,1-6.82-1.56,8.9,8.9,0,0,1-3.82-5.46C272.15,208.65,272.5,207.59,272.78,207.58Z" style="fill:#263238"></path><path d="M266.57,158.34c-.44,1-4.17.24-8.63.45s-8.12,1.16-8.64.2c-.23-.46.46-1.38,2-2.26a15,15,0,0,1,13.16-.5C266,157,266.77,157.86,266.57,158.34Z" style="fill:#263238"></path><path d="M287.09,163.72c.7-.95,4-.49,7.84-1s7-1.51,7.86-.72c.39.39,0,1.31-1.32,2.3a12.82,12.82,0,0,1-6.18,2.24,12.69,12.69,0,0,1-6.47-.88C287.35,165,286.78,164.19,287.09,163.72Z" style="fill:#263238"></path><path d="M231.17,202.89c-.23-2-3.1-6.54-5.14-6.63-5.44-.24-15,1.26-13.6,14.84,1.93,18.56,20.16,12.79,20.14,12.25S232,209.89,231.17,202.89Z" style="fill:#ffbe9d"></path><path d="M226.17,216.91c-.09,0-.3.26-.82.57a3.26,3.26,0,0,1-2.41.3c-2-.52-4-3.46-4.45-6.79a10.66,10.66,0,0,1,.42-4.73,3.78,3.78,0,0,1,2.18-2.73,1.67,1.67,0,0,1,2,.68c.3.5.22.88.32.9s.37-.35.14-1.1a2.12,2.12,0,0,0-.85-1.09,2.47,2.47,0,0,0-1.84-.28c-1.42.24-2.57,1.69-3.08,3.22a11.13,11.13,0,0,0-.58,5.3c.51,3.72,2.79,7,5.55,7.52a3.5,3.5,0,0,0,2.91-.8C226.18,217.36,226.24,216.94,226.17,216.91Z" style="fill:#eb996e"></path><path d="M295,123.81c-6.44-5.82-14.85-9.11-23.39-10.69a57,57,0,0,0-22.35.15h0c-16.56,1-36.46,25.61-39.41,41.93-1.41,7.78-.31,15.79,1.11,23.57.72,4,1.55,8,3.5,11.49s5.2,6.53,9.15,7.25,8.51-1.44,9.69-5.29c.89-2.88-.16-6.09.67-9,1.9-6.64,11.86-7.65,14.73-13.94,2.07-4.53-.34-10.24,1.94-14.67s7.77-5.46,12.22-7.47a25.58,25.58,0,0,0,14.26-18.41l.37,0c18.09-.56,26.24,18.51,28.95,26.3A36.26,36.26,0,0,0,295,123.81Z" style="fill:#263238"></path><path d="M220.07,134.72a2.12,2.12,0,0,1,.58,0l1.65.2c.72.1,1.6.2,2.62.29s2.18.23,3.47.3c2.57.21,5.65.3,9.06.29s7.16-.23,11.08-.62,7.62-1,11-1.68,6.33-1.43,8.8-2.17c1.25-.33,2.36-.7,3.33-1s1.82-.58,2.5-.83l1.58-.53a2.27,2.27,0,0,1,.56-.16,2.17,2.17,0,0,1-.52.25l-1.55.63c-.67.28-1.5.59-2.47.92s-2.08.73-3.32,1.09c-2.47.78-5.47,1.54-8.82,2.28s-7.07,1.3-11,1.73-7.7.56-11.13.58-6.51-.14-9.09-.4c-1.29-.09-2.45-.25-3.47-.38s-1.9-.25-2.61-.38l-1.65-.3A3.34,3.34,0,0,1,220.07,134.72Z" style="fill:#455a64"></path><path d="M212.89,145.63a3.59,3.59,0,0,1,.69.13l2,.46,1.42.34c.52.12,1.09.2,1.7.31,1.23.19,2.61.51,4.17.63l2.43.26c.85.1,1.74.08,2.66.13,1.83.13,3.79,0,5.85,0A70.26,70.26,0,0,0,247,145.77,72.31,72.31,0,0,0,259.54,141l2.68-1.4c.87-.43,1.65-1,2.45-1.44s1.56-.9,2.25-1.4l2-1.4c1.31-.85,2.37-1.79,3.36-2.55.48-.38.95-.73,1.35-1.08l1.08-1,1.52-1.33a4.25,4.25,0,0,1,.55-.44,2.91,2.91,0,0,1-.48.51L274.87,131l-1.06,1c-.39.36-.85.72-1.33,1.12-1,.78-2,1.74-3.33,2.62l-2,1.43c-.69.51-1.48.94-2.26,1.44s-1.57,1-2.45,1.47l-2.68,1.43a71,71,0,0,1-12.62,4.81,69,69,0,0,1-13.34,2.06,57.77,57.77,0,0,1-5.9,0c-.92-.06-1.82,0-2.67-.16l-2.45-.29c-1.57-.14-2.95-.5-4.18-.72-.61-.12-1.18-.21-1.7-.35l-1.4-.39-1.95-.55A3.53,3.53,0,0,1,212.89,145.63Z" style="fill:#455a64"></path><path d="M229.3,228s0,.09,0,.26a3.37,3.37,0,0,1-.07.75,4.29,4.29,0,0,1-1.44,2.31,6.18,6.18,0,0,1-3.78,1.47,5.61,5.61,0,0,1-4.48-2.06,6,6,0,0,1-1.42-4.74,6.59,6.59,0,0,1,1.86-3.6,6.52,6.52,0,0,1,2.28-1.51,2.67,2.67,0,0,1,1-.23,8.81,8.81,0,0,0-3,2,6.43,6.43,0,0,0-1.64,3.42A5.55,5.55,0,0,0,220,230.4a5.19,5.19,0,0,0,4.07,1.92,6,6,0,0,0,3.56-1.27,4.4,4.4,0,0,0,1.49-2.08C229.26,228.37,229.24,228,229.3,228Z" style="fill:#e0e0e0"></path><path d="M274.38,203.94c0,.16-1.9.67-4,1.92s-3.48,2.67-3.59,2.56a11.25,11.25,0,0,1,7.58-4.48Z" style="fill:#eb996e"></path><path d="M222.48,271.27l12.66-4.53L293,264.55l19.92,5.81s-25.32,32.37-47.29,30.14S222.48,271.27,222.48,271.27Z" style="fill:#ffbe9d"></path><path d="M346.49,284.06l-3.86,18.21-9.3,74.42s32.69-3.88,43.16-22.48v-3.1S355.14,286.56,346.49,284.06Z" style="fill:#D7DF23"></path><path d="M346.49,284.06l-35.26-15.89s-7.36,14.72-37.59,19-52.45-17-52.45-17-10.86,5.42-26.36,11.23l2.07,93.37,6.2,19.38s-5.42,27.13-7.36,35.27S199.23,441,199.23,441l-2.72,27H347.28L338,414.67Z" style="fill:#D7DF23"></path><path d="M194.83,281.38s-19.24,8.5-26.17,24.27c-5.9,13.43-17.49,47.39-17.49,47.39L200,376.69V310Z" style="fill:#D7DF23"></path><path d="M186.55,329.54c.14,0,3,11.3,6.32,25.31s5.94,25.39,5.8,25.43-3-11.3-6.31-25.31S186.41,329.57,186.55,329.54Z" style="fill:#263238"></path><path d="M345,314.76a.81.81,0,0,1,0,.25c0,.2,0,.45,0,.76q-.06,1.05-.15,2.88c-.16,2.54-.39,6.15-.66,10.59-.61,9-1.44,21.32-2.36,34.95s-1.87,26-2.52,34.94c-.34,4.44-.62,8-.82,10.58-.11,1.22-.19,2.18-.25,2.88,0,.3-.06.55-.08.74a1.11,1.11,0,0,1,0,.26,1,1,0,0,1,0-.26c0-.2,0-.45,0-.75,0-.7.09-1.66.16-2.88.15-2.55.38-6.16.65-10.6.61-9,1.45-21.32,2.37-35s1.87-25.95,2.51-34.93c.35-4.44.63-8,.82-10.59.11-1.21.19-2.17.25-2.87,0-.3.06-.55.08-.75A.7.7,0,0,1,345,314.76Z" style="fill:#263238"></path><path d="M319,271.48s-.05.09-.18.24l-.56.64c-.52.55-1.2,1.44-2.25,2.42a55,55,0,0,1-9.45,7.57c-1.06.74-2.26,1.35-3.46,2.07s-2.53,1.32-3.89,2a69.79,69.79,0,0,1-9,3.41,71.58,71.58,0,0,1-21.79,2.95,82.85,82.85,0,0,1-21.72-3.56,95.65,95.65,0,0,1-16.63-6.82,103.28,103.28,0,0,1-10.41-6.22c-1.19-.79-2.07-1.47-2.69-1.91l-.69-.51a1,1,0,0,1-.22-.19l.26.15.71.47c.64.41,1.53,1.06,2.74,1.82a112.83,112.83,0,0,0,10.47,6.06,97.82,97.82,0,0,0,16.6,6.69,83.36,83.36,0,0,0,21.59,3.5A70.28,70.28,0,0,0,299,286c1.35-.65,2.66-1.28,3.88-1.94s2.4-1.3,3.45-2a58.14,58.14,0,0,0,9.51-7.41c1.07-.95,1.77-1.82,2.31-2.34l.6-.61A1.41,1.41,0,0,1,319,271.48Z" style="fill:#263238"></path><path d="M195,367.91a11.42,11.42,0,0,1-1.71-.53c-1.09-.38-2.65-.95-4.57-1.68-3.85-1.46-9.13-3.59-14.88-6.12s-10.88-5-14.55-6.87c-1.84-.93-3.31-1.7-4.32-2.25a11.3,11.3,0,0,1-1.55-.9,11.51,11.51,0,0,1,1.64.72l4.39,2.1c3.71,1.77,8.86,4.19,14.6,6.72s11,4.71,14.8,6.26l4.51,1.83A12.12,12.12,0,0,1,195,367.91Z" style="fill:#263238"></path><path d="M376.64,351.11a9.69,9.69,0,0,1-1.14,1.1c-.76.68-1.89,1.63-3.31,2.77a97.71,97.71,0,0,1-11.81,7.95,96.59,96.59,0,0,1-12.86,6.1c-1.71.65-3.1,1.14-4.07,1.44a10.48,10.48,0,0,1-1.53.42,9.81,9.81,0,0,1,1.46-.61c.95-.36,2.32-.9,4-1.59a110,110,0,0,0,24.58-14c1.45-1.09,2.61-2,3.41-2.63A8.23,8.23,0,0,1,376.64,351.11Z" style="fill:#263238"></path><path d="M306.53,384.17c0,.05-.84-.51-2.48-1.17a20.09,20.09,0,0,0-7.31-1.29,31.49,31.49,0,0,0-10.8,2.18c-3.92,1.44-8.08,3.45-12.5,5.41l-22.65,10.11-6.89,3-1.89.79a3.22,3.22,0,0,1-.67.25,4.08,4.08,0,0,1,.63-.34l1.84-.88,6.83-3.16,22.58-10.25c4.43-2,8.59-4,12.56-5.39a31.32,31.32,0,0,1,11-2.1,19.43,19.43,0,0,1,7.38,1.47,15.29,15.29,0,0,1,1.81.95A4.51,4.51,0,0,1,306.53,384.17Z" style="fill:#263238"></path><g style="opacity:0.30000000000000004"><path d="M242.61,402.89c9.13,5.75,21.28,5.68,31,.95s17.09-13.31,22.22-22.8C277.32,386.77,260.07,395.32,242.61,402.89Z"></path></g><g style="opacity:0.30000000000000004"><path d="M187,332c-1.91,13.72,2.2,29.85,10.18,41.17A338,338,0,0,0,186.86,332"></path></g><path d="M192,352.73c-.07.13-7.84-3.69-17.37-8.53s-17.2-8.87-17.13-9,7.84,3.69,17.37,8.53S192.08,352.6,192,352.73Z" style="fill:#fff"></path><path d="M186.55,327.48c-.07.12-5-2.59-11-6.06s-10.77-6.38-10.7-6.5,5,2.58,11,6.05S186.63,327.35,186.55,327.48Z" style="fill:#fff"></path><path d="M359.07,303.81s-.16,0-.48.09l-1.41.21-5.43.75c-2.36.33-5.25.71-8.61,1.08s-7.19.86-11.43,1.24l-6.65.65c-2.32.22-4.73.39-7.23.6-5,.43-10.33.74-15.95,1.09-11.25.61-23.63,1-36.62,1.09s-25.39-.33-36.64-.87c-5.63-.32-11-.6-16-1-2.5-.19-4.91-.35-7.23-.56l-6.66-.6c-4.24-.36-8.07-.82-11.43-1.18s-6.26-.72-8.62-1l-5.44-.72-1.41-.2-.48-.09.49,0,1.42.15,5.44.62c2.37.28,5.26.61,8.63.94s7.19.76,11.44,1.1l6.65.57c2.32.2,4.73.34,7.23.53,5,.38,10.33.64,15.95.95,11.25.51,23.62.85,36.61.83s25.36-.47,36.6-1c5.62-.34,11-.63,15.95-1,2.49-.2,4.91-.36,7.22-.57l6.65-.61c4.25-.36,8.07-.82,11.43-1.17s6.26-.7,8.62-1l5.45-.66,1.42-.15Z" style="fill:#fff"></path><path d="M341.7,343.54c0,.14-33.69.26-75.25.26s-75.25-.12-75.25-.26,33.69-.27,75.25-.27S341.7,343.39,341.7,343.54Z" style="fill:#fff"></path><path d="M285.23,382.29c0,.14-18.83.26-42.06.26s-42-.12-42-.26,18.82-.26,42-.26S285.23,382.14,285.23,382.29Z" style="fill:#fff"></path><path d="M340.07,382.59c0,.14-7.77.26-17.36.26s-17.36-.12-17.36-.26,7.77-.26,17.36-.26S340.07,382.44,340.07,382.59Z" style="fill:#fff"></path><path d="M337.79,415c0,.14-30.93.26-69.08.26s-69.1-.12-69.1-.26,30.93-.26,69.1-.26S337.79,414.89,337.79,415Z" style="fill:#fff"></path><path d="M343.8,453.48c0,.14-32.14.26-71.79.26s-71.8-.12-71.8-.26,32.14-.26,71.8-.26S343.8,453.34,343.8,453.48Z" style="fill:#fff"></path><path d="M364.84,322.3a4,4,0,0,1-.76.71c-.5.44-1.25,1.05-2.18,1.79-1.86,1.48-4.49,3.47-7.47,5.56s-5.74,3.88-7.77,5.12c-1,.63-1.85,1.12-2.43,1.45a4.27,4.27,0,0,1-.93.46,4.1,4.1,0,0,1,.82-.64l2.34-1.58c2-1.32,4.7-3.16,7.67-5.24s5.63-4,7.55-5.42l2.28-1.66A3.64,3.64,0,0,1,364.84,322.3Z" style="fill:#fff"></path><path d="M374.59,342.11a7.56,7.56,0,0,1-1.19.94c-.78.58-1.93,1.39-3.36,2.38-2.86,2-6.88,4.61-11.4,7.38s-8.71,5.13-11.77,6.78c-1.53.82-2.78,1.47-3.65,1.91a9.08,9.08,0,0,1-1.38.63,7.43,7.43,0,0,1,1.28-.81l3.57-2.05c3-1.73,7.15-4.14,11.68-6.91s8.55-5.35,11.47-7.24l3.45-2.24A9,9,0,0,1,374.59,342.11Z" style="fill:#fff"></path><path d="M159.14,356.9l-12.23,51.57L122.1,357.31h-26s10.7,54.76,30.27,85.76c15.07,23.88,28.81,24.61,37.72,21.24s17.67-15.87,25.81-45.74c4.73-17.37,7.7-30.48,8.74-38.29.19-1.4-1.77-5.53-1.77-5.53Z" style="fill:#ffbe9d"></path><path d="M158.54,322.46s10.12-.76,10.12,4.46-14.21,5.86-14.21,5.86l-2-7.31Z" style="fill:#eb996e"></path><path d="M96.13,357.31s0-14.73,4.65-20.93c3.76-5,24.11-20.72,31.82-26.59a9.51,9.51,0,0,1,6.65-1.91l41.67,3.78s.77,5.42-3.1,6.2-20.06.69-20.06.69,1.66,6.51.87,9.28-4.36,4.48-4.36,4.48,2.18,3.84-4.41,8.49c0,0,.54,7.79-6.83,8a49.06,49.06,0,0,1-7-.39s-12,8.53-14,8.92S96.13,357.31,96.13,357.31Z" style="fill:#ffbe9d"></path><path d="M111,359.93a31.45,31.45,0,0,1,5.47-1.48,31.2,31.2,0,0,1,5.58-1,30.6,30.6,0,0,1-5.47,1.49A30.6,30.6,0,0,1,111,359.93Z" style="fill:#eb996e"></path><path d="M139.72,334.56A23.69,23.69,0,0,1,145,337.3a24,24,0,0,1,4.77,3.59c-.09.12-2.27-1.4-5.05-3.14S139.66,334.7,139.72,334.56Z" style="fill:#eb996e"></path><path d="M154.45,332c-.1.12-2.11-1.71-4.91-3.49s-5.28-2.87-5.22-3a17.46,17.46,0,0,1,5.51,2.57A17.23,17.23,0,0,1,154.45,332Z" style="fill:#eb996e"></path><path d="M147.07,316.53a28.42,28.42,0,0,1,5.38.72,28.2,28.2,0,0,1,5.29,1.22,27.13,27.13,0,0,1-5.38-.71A28.92,28.92,0,0,1,147.07,316.53Z" style="fill:#eb996e"></path><path d="M157.74,425.07a101,101,0,0,1-5.9-8.35,99.34,99.34,0,0,1-5.46-8.63,101.14,101.14,0,0,1,5.89,8.34A100.25,100.25,0,0,1,157.74,425.07Z" style="fill:#eb996e"></path></g></svg>