<svg xmlns="http://www.w3.org/2000/svg" viewBox="0 0 500 500"><g id="freepik--Device--inject-18"><path d="M298.42,454.51l-133.87-.62c-16.1-.07-29.09-13.54-29-30.09L137,78.94c.07-16.55,13.18-29.92,29.29-29.84l133.87.62c16.1.07,29.09,13.54,29,30.09l-1.46,344.86C327.64,441.22,314.53,454.59,298.42,454.51Z" style="fill:#263238"></path><path d="M318.55,364.13a2.95,2.95,0,1,1-2.94-2.95A2.95,2.95,0,0,1,318.55,364.13Z" style="fill:#e0e0e0"></path><path d="M315.61,370.6a20.26,20.26,0,0,1,0-6.47,20.26,20.26,0,0,1,0,6.47Z" style="fill:#e0e0e0"></path><path d="M302.83,61.1,276.06,61a6.65,6.65,0,0,0-6.53,6.77l0,4.85A6.65,6.65,0,0,1,263,79.37l-52.19-.24a6.66,6.66,0,0,1-6.47-6.83l0-4.85a6.65,6.65,0,0,0-6.47-6.83l-9.42,0L165,60.47a21.06,21.06,0,0,0-21.16,21l-1.43,337.89a21.06,21.06,0,0,0,21,21.16l137.81.64a21.07,21.07,0,0,0,21.16-21L323.8,82.26A21.08,21.08,0,0,0,302.83,61.1Z" style="fill:#fafafa"></path><path d="M151.58,327.74c1.18-.88,58.81-26.27,58.81-26.27l-67.32-33.58L142.84,322Z" style="fill:#ebebeb"></path><polygon points="155.1 266.85 204.21 241.89 151.44 212.63 143.3 214.67 143.1 262.01 155.1 266.85" style="fill:#D7DF23"></polygon><polygon points="155.1 266.85 204.21 241.89 151.44 212.63 143.3 214.67 143.1 262.01 155.1 266.85" style="fill:#fff;opacity:0.7000000000000001"></polygon><polygon points="145.07 209.23 296.44 138.53 146.47 89.52 145.07 209.23" style="fill:#ebebeb"></polygon><polygon points="143.31 393.35 212.48 357.85 315.45 418.43 290.92 439.94 203.05 439.94 143.31 403.43 143.31 393.35" style="fill:#ebebeb"></polygon><polygon points="226.1 354.01 311.64 404.73 321.18 403.65 321.18 354.88 274.3 330.07 226.1 354.01" style="fill:#ebebeb"></polygon><polygon points="240.16 305.58 320.81 350.95 320.81 291.64 291.63 279.14 240.16 305.58" style="fill:#ebebeb"></polygon><polygon points="154.02 330.58 201.33 356.54 258.75 326.8 213.13 303.6 154.02 330.58" style="fill:#ebebeb"></polygon><polygon points="225.04 241.56 292.06 274.77 323.14 258.9 323.34 236.64 278.07 214.67 225.04 241.56" style="fill:#ebebeb"></polygon><polygon points="156.5 270.53 223.52 303.74 254.6 287.87 254.8 265.61 209.52 243.64 156.5 270.53" style="fill:#ebebeb"></polygon><polygon points="165.78 210.84 220.4 238.19 271.34 210.84 218.56 186.76 165.78 210.84" style="fill:#ebebeb"></polygon><path d="M271.34,385.62a6.72,6.72,0,0,1-1-.5l-2.82-1.59-10.85-6.27-40.16-23.55-.83-.49.86-.44L269.23,326v1.22l-39.34-21-1.24-.66,1.25-.66,54.64-28.68v1.39l-6.52-3.3-122.4-62.1-1.15-.58,1.17-.56,65-31,18-8.49,4.74-2.18,1.23-.54a2.18,2.18,0,0,1,.43-.15,1.62,1.62,0,0,1-.39.24l-1.18.62L238.78,172l-17.88,8.81-64.71,31.47V211.1l122.53,61.83,6.52,3.3,1.35.69-1.34.7-54.68,28.62v-1.32L269.86,326l1.16.62-1.17.59L217,353.73l0-.93,39.92,24,10.7,6.51,2.75,1.72A5.69,5.69,0,0,1,271.34,385.62Z" style="fill:#D7DF23"></path><path d="M259.59,136.64c0-10-10.48-16.3-21.17-11.3a12.13,12.13,0,0,0-5.62,5.39c-2.69,5.21-1.5,11.16.93,16.1l8.32,21.08a3.58,3.58,0,0,0,6.68,0l8.15-21.19C259.71,140.24,259.59,136.64,259.59,136.64Zm-10,8.68c-7.19,4.18-14.47-3.54-10.53-11.16a6,6,0,0,1,2.28-2.42c7.19-4.18,14.47,3.54,10.53,11.16A6,6,0,0,1,249.55,145.32Z" style="fill:#D7DF23"></path><polygon points="243.63 245.78 243.39 234 274.1 248.87 274.1 261.11 243.63 245.78" style="fill:#f5f5f5"></polygon><polygon points="274.1 248.87 312.24 229.92 312.24 243.11 274.1 261.11 274.1 248.87" style="fill:#e0e0e0"></polygon><polygon points="243.39 234 280.82 215.28 312.24 229.92 274.1 248.87 243.39 234" style="fill:#f5f5f5"></polygon><polygon points="247.4 239.09 247.4 244.8 250.4 246.15 250.4 240.69 247.4 239.09" style="fill:#fafafa"></polygon><polygon points="252.2 241.2 252.2 246.92 255.21 248.27 255.21 242.81 252.2 241.2" style="fill:#fafafa"></polygon><polygon points="147.01 171.45 147.01 156.12 183.36 173.73 183.36 188.21 147.01 171.45" style="fill:#e0e0e0"></polygon><polygon points="183.36 173.73 228.52 151.29 228.52 166.91 183.36 188.21 183.36 173.73" style="fill:#f5f5f5"></polygon><polygon points="147.01 156.12 191.31 133.97 228.52 151.29 183.36 173.73 147.01 156.12" style="fill:#fafafa"></polygon><polygon points="151.76 162.14 151.76 168.91 155.31 170.51 155.31 164.04 151.76 162.14" style="fill:#fafafa"></polygon><polygon points="157.44 164.65 157.44 171.41 161 173.02 161 166.55 157.44 164.65" style="fill:#fafafa"></polygon><path d="M256.59,299.59v12.08l13,6.39V305.58Z" style="fill:#e0e0e0"></path><polygon points="286.09 297.67 269.54 305.58 269.54 318.06 286.09 308.82 286.09 297.67" style="fill:#e0e0e0"></polygon><polygon points="256.59 299.59 272.99 291.64 286.09 297.67 269.54 305.58 256.59 299.59" style="fill:#f5f5f5"></polygon><polygon points="261.19 308.26 261.19 313.97 264.19 315.33 264.19 309.87 261.19 308.26" style="fill:#fafafa"></polygon><path d="M151.94,293.34v12.08l12.95,6.39V299.33Z" style="fill:#e0e0e0"></path><polygon points="181.45 291.42 164.89 299.33 164.89 311.81 181.45 302.57 181.45 291.42" style="fill:#e0e0e0"></polygon><polygon points="151.94 293.34 168.35 285.39 181.45 291.42 164.89 299.33 151.94 293.34" style="fill:#f5f5f5"></polygon><polygon points="156.54 302.01 156.54 307.72 159.54 309.08 159.54 303.62 156.54 302.01" style="fill:#fafafa"></polygon><path d="M205.65,213.6v12.09l12.95,6.39V219.6Z" style="fill:#f5f5f5"></path><polygon points="235.16 211.69 218.6 219.6 218.6 232.08 235.16 222.84 235.16 211.69" style="fill:#e0e0e0"></polygon><polygon points="205.65 213.6 222.06 205.66 235.16 211.69 218.6 219.6 205.65 213.6" style="fill:#f5f5f5"></polygon><polygon points="210.25 222.28 210.25 227.99 213.25 229.35 213.25 223.88 210.25 222.28" style="fill:#e0e0e0"></polygon><path d="M191.25,317.13v12.09l12.95,6.38V323.13Z" style="fill:#e0e0e0"></path><polygon points="220.76 315.21 204.21 323.13 204.21 335.6 220.76 326.37 220.76 315.21" style="fill:#ebebeb"></polygon><polygon points="191.25 317.13 207.66 309.19 220.76 315.21 204.21 323.13 191.25 317.13" style="fill:#f5f5f5"></polygon><polygon points="195.85 325.8 195.85 331.52 198.85 332.87 198.85 327.41 195.85 325.8" style="fill:#fafafa"></polygon><path d="M244.73,346.32v15.15L272,377.54V361.9Z" style="fill:#f5f5f5"></path><polygon points="292.79 350.72 272.03 361.9 272.03 377.54 292.79 365.96 292.79 350.72" style="fill:#e0e0e0"></polygon><polygon points="244.73 346.31 265.31 336.35 292.79 350.72 272.03 361.9 244.73 346.31" style="fill:#fafafa"></polygon><polygon points="255.04 360.33 255.04 367.49 258.81 369.75 258.81 362.67 255.04 360.33" style="fill:#fafafa"></polygon><path d="M179.06,377.5v15.15l27.3,16.08V393.08Z" style="fill:#e0e0e0"></path><polygon points="238.94 375.43 206.36 393.08 206.36 408.73 239.03 390.62 238.94 375.43" style="fill:#fafafa"></polygon><polygon points="179.06 377.5 213.52 360.81 239.03 375.49 206.36 393.08 179.06 377.5" style="fill:#f5f5f5"></polygon><polygon points="189.37 391.51 189.37 398.68 193.13 400.94 193.13 393.85 189.37 391.51" style="fill:#fafafa"></polygon><polygon points="282.4 320.85 282.4 381.36 299.44 390.17 299.44 328.9 282.4 320.85" style="fill:#f5f5f5"></polygon><polygon points="294.99 315.05 282.4 320.85 299.44 328.9 310.9 322.44 294.99 315.05" style="fill:#fafafa"></polygon><polygon points="299.44 328.9 299.44 390.17 309.81 384.59 310.9 322.44 299.44 328.9" style="fill:#e0e0e0"></polygon><polygon points="210.39 271.84 210.39 332.35 227.43 341.16 227.43 279.89 210.39 271.84" style="fill:#f5f5f5"></polygon><polygon points="222.97 266.03 210.39 271.84 227.43 279.89 238.89 273.43 222.97 266.03" style="fill:#fafafa"></polygon><polygon points="227.43 279.89 227.43 341.16 237.79 336.05 238.89 273.43 227.43 279.89" style="fill:#e0e0e0"></polygon><path d="M218.12,386.91v15.15l27.31,16.08V402.5Z" style="fill:#e0e0e0"></path><polygon points="266.18 391.32 245.43 402.5 245.43 418.14 266.18 406.56 266.18 391.32" style="fill:#fafafa"></polygon><polygon points="218.12 386.91 238.94 375.43 266.18 391.32 245.43 402.5 218.12 386.91" style="fill:#f5f5f5"></polygon><polygon points="228.43 400.92 228.43 408.09 232.2 410.35 232.2 403.26 228.43 400.92" style="fill:#fafafa"></polygon><polygon points="278.84 206.28 229.12 183.87 298.36 148.63 321.08 182.51 278.84 206.28" style="fill:#ebebeb"></polygon><polygon points="323.1 226.86 323.44 188.06 284.89 210 323.1 226.86" style="fill:#D7DF23"></polygon><path d="M293.81,265.72a2.95,2.95,0,1,1-2.95-3A3,3,0,0,1,293.81,265.72Z" style="fill:#e0e0e0"></path><path d="M290.86,272.19a20.26,20.26,0,0,1,0-6.47,20.26,20.26,0,0,1,0,6.47Z" style="fill:#e0e0e0"></path><path d="M213.34,258.49a3,3,0,1,1-3-3A2.95,2.95,0,0,1,213.34,258.49Z" style="fill:#e0e0e0"></path><path d="M210.39,265a20.26,20.26,0,0,1,0-6.47,20.26,20.26,0,0,1,0,6.47Z" style="fill:#e0e0e0"></path><path d="M173.92,299.67a2.95,2.95,0,1,1-2.95-2.95A2.95,2.95,0,0,1,173.92,299.67Z" style="fill:#e0e0e0"></path><path d="M171,306.14a20.26,20.26,0,0,1,0-6.47,20.26,20.26,0,0,1,0,6.47Z" style="fill:#e0e0e0"></path><path d="M176.87,267.89a2.95,2.95,0,1,1-3-2.95A2.95,2.95,0,0,1,176.87,267.89Z" style="fill:#e0e0e0"></path><path d="M173.92,274.36a20.26,20.26,0,0,1,0-6.47,20.26,20.26,0,0,1,0,6.47Z" style="fill:#e0e0e0"></path><path d="M249.67,265a3,3,0,1,1-2.95-2.94A2.95,2.95,0,0,1,249.67,265Z" style="fill:#e0e0e0"></path><path d="M246.72,271.44a20.26,20.26,0,0,1,0-6.47,20.26,20.26,0,0,1,0,6.47Z" style="fill:#e0e0e0"></path><path d="M296.26,287.07a2.95,2.95,0,1,1-2.95-2.95A2.95,2.95,0,0,1,296.26,287.07Z" style="fill:#e0e0e0"></path><path d="M293.31,293.54a20.26,20.26,0,0,1,0-6.47,20.26,20.26,0,0,1,0,6.47Z" style="fill:#e0e0e0"></path><path d="M298.14,304.42a2.95,2.95,0,1,1-2.95-2.95A2.95,2.95,0,0,1,298.14,304.42Z" style="fill:#e0e0e0"></path><path d="M295.19,310.89a20.26,20.26,0,0,1,0-6.47,20.26,20.26,0,0,1,0,6.47Z" style="fill:#e0e0e0"></path><path d="M215.43,340.42a2.95,2.95,0,1,1-3-2.95A2.95,2.95,0,0,1,215.43,340.42Z" style="fill:#e0e0e0"></path><path d="M212.48,346.89a20.26,20.26,0,0,1,0-6.47,20.26,20.26,0,0,1,0,6.47Z" style="fill:#e0e0e0"></path><circle cx="309.39" cy="391.85" r="2.95" style="fill:#e0e0e0"></circle><path d="M309.39,398.32a20.26,20.26,0,0,1,0-6.47,20.26,20.26,0,0,1,0,6.47Z" style="fill:#e0e0e0"></path><path d="M256,424.11a3,3,0,1,1-2.95-2.95A2.95,2.95,0,0,1,256,424.11Z" style="fill:#e0e0e0"></path><path d="M253,430.58a20.26,20.26,0,0,1,0-6.47,20.26,20.26,0,0,1,0,6.47Z" style="fill:#e0e0e0"></path><path d="M233.26,415.2a2.95,2.95,0,1,1-2.95-2.95A2.95,2.95,0,0,1,233.26,415.2Z" style="fill:#e0e0e0"></path><path d="M230.31,421.67a20.26,20.26,0,0,1,0-6.47,19.52,19.52,0,0,1,0,6.47Z" style="fill:#e0e0e0"></path><path d="M285.35,408.73a3,3,0,1,1-3-3A2.95,2.95,0,0,1,285.35,408.73Z" style="fill:#e0e0e0"></path><path d="M282.4,415.2a20.26,20.26,0,0,1,0-6.47,20.26,20.26,0,0,1,0,6.47Z" style="fill:#e0e0e0"></path><circle cx="237.99" cy="351.92" r="2.95" style="fill:#e0e0e0"></circle><path d="M238,358.39a20.26,20.26,0,0,1,0-6.47,20.26,20.26,0,0,1,0,6.47Z" style="fill:#e0e0e0"></path><path d="M248.38,323.13a2.95,2.95,0,1,1-2.95-2.95A2.95,2.95,0,0,1,248.38,323.13Z" style="fill:#e0e0e0"></path><path d="M245.43,329.6a20.26,20.26,0,0,1,0-6.47,20.26,20.26,0,0,1,0,6.47Z" style="fill:#e0e0e0"></path><path d="M176.87,326.37a2.95,2.95,0,1,1-3-2.95A2.95,2.95,0,0,1,176.87,326.37Z" style="fill:#e0e0e0"></path><path d="M173.92,332.84a20.26,20.26,0,0,1,0-6.47,20.26,20.26,0,0,1,0,6.47Z" style="fill:#e0e0e0"></path><path d="M313.09,299.67a2.95,2.95,0,1,1-2.95-2.95A2.95,2.95,0,0,1,313.09,299.67Z" style="fill:#e0e0e0"></path><path d="M310.14,306.14a20.26,20.26,0,0,1,0-6.47,20.26,20.26,0,0,1,0,6.47Z" style="fill:#e0e0e0"></path><path d="M305.18,255.54a2.95,2.95,0,1,1-2.95-2.95A2.95,2.95,0,0,1,305.18,255.54Z" style="fill:#e0e0e0"></path><path d="M302.23,262a20.26,20.26,0,0,1,0-6.47,20.26,20.26,0,0,1,0,6.47Z" style="fill:#e0e0e0"></path><circle cx="242.5" cy="216.54" r="2.95" style="fill:#e0e0e0"></circle><path d="M242.5,223a19.52,19.52,0,0,1,0-6.47,20.26,20.26,0,0,1,0,6.47Z" style="fill:#e0e0e0"></path><path d="M189.05,272.19a2.95,2.95,0,1,1-3-2.95A2.95,2.95,0,0,1,189.05,272.19Z" style="fill:#e0e0e0"></path><path d="M186.1,278.66a20.26,20.26,0,0,1,0-6.47,19.52,19.52,0,0,1,0,6.47Z" style="fill:#e0e0e0"></path><path d="M223.71,195.49a3,3,0,1,1-3-3A2.95,2.95,0,0,1,223.71,195.49Z" style="fill:#e0e0e0"></path><path d="M220.76,202a20.26,20.26,0,0,1,0-6.47,20.26,20.26,0,0,1,0,6.47Z" style="fill:#e0e0e0"></path><path d="M283.86,189a2.95,2.95,0,1,1-2.95-3A2.95,2.95,0,0,1,283.86,189Z" style="fill:#e0e0e0"></path><path d="M280.91,195.49a20.26,20.26,0,0,1,0-6.47,20.26,20.26,0,0,1,0,6.47Z" style="fill:#e0e0e0"></path><path d="M300.49,186.3a3,3,0,1,1-2.95-3A2.95,2.95,0,0,1,300.49,186.3Z" style="fill:#e0e0e0"></path><path d="M297.54,192.77a20.26,20.26,0,0,1,0-6.47,20.26,20.26,0,0,1,0,6.47Z" style="fill:#e0e0e0"></path><path d="M293.81,164.54a2.95,2.95,0,1,1-2.95-2.95A3,3,0,0,1,293.81,164.54Z" style="fill:#e0e0e0"></path><path d="M290.86,171a20.26,20.26,0,0,1,0-6.47,20.26,20.26,0,0,1,0,6.47Z" style="fill:#e0e0e0"></path><path d="M201.18,214.67a2.95,2.95,0,1,1-3-2.95A2.95,2.95,0,0,1,201.18,214.67Z" style="fill:#e0e0e0"></path><path d="M198.23,221.14a20.26,20.26,0,0,1,0-6.47,20.26,20.26,0,0,1,0,6.47Z" style="fill:#e0e0e0"></path><path d="M269.74,186.76a3,3,0,1,1-2.95-2.95A2.95,2.95,0,0,1,269.74,186.76Z" style="fill:#e0e0e0"></path><path d="M266.79,193.23a20.26,20.26,0,0,1,0-6.47,20.26,20.26,0,0,1,0,6.47Z" style="fill:#e0e0e0"></path><path d="M186.91,120.32a3,3,0,1,1-2.95-2.95A2.95,2.95,0,0,1,186.91,120.32Z" style="fill:#e0e0e0"></path><path d="M184,126.78a10.35,10.35,0,0,1-.26-3.23,10.35,10.35,0,0,1,.26-3.23,10,10,0,0,1,.26,3.23A10,10,0,0,1,184,126.78Z" style="fill:#e0e0e0"></path><path d="M220.76,136.47a2.95,2.95,0,1,1-2.95-2.95A2.95,2.95,0,0,1,220.76,136.47Z" style="fill:#e0e0e0"></path><path d="M217.81,142.94a10.41,10.41,0,0,1-.26-3.23,10.45,10.45,0,0,1,.26-3.24,10.45,10.45,0,0,1,.26,3.24A10.41,10.41,0,0,1,217.81,142.94Z" style="fill:#e0e0e0"></path><path d="M167,187.49a3,3,0,1,1-3-3A2.95,2.95,0,0,1,167,187.49Z" style="fill:#e0e0e0"></path><path d="M164,194a20.26,20.26,0,0,1,0-6.47,20.26,20.26,0,0,1,0,6.47Z" style="fill:#e0e0e0"></path><path d="M169.91,139.42a3,3,0,1,1-2.95-2.95A2.95,2.95,0,0,1,169.91,139.42Z" style="fill:#e0e0e0"></path><path d="M167,145.89a10.06,10.06,0,0,1-.26-3.23,10.1,10.1,0,0,1,.26-3.24,10.45,10.45,0,0,1,.26,3.24A10.41,10.41,0,0,1,167,145.89Z" style="fill:#e0e0e0"></path><polygon points="296.86 276.97 321.18 264.08 321.08 287.33 296.86 276.97" style="fill:#ebebeb"></polygon><polygon points="195.85 359.41 142.57 386.91 142.57 335.6 148.47 332.97 195.85 359.41" style="fill:#ebebeb"></polygon><path d="M275.43,386.91a3.4,3.4,0,1,1-3.4-3.4A3.4,3.4,0,0,1,275.43,386.91Z" style="fill:#D7DF23"></path><polygon points="306.54 144.22 323.51 149.38 323.51 176.12 306.54 144.22" style="fill:#ebebeb"></polygon><path d="M323.68,108.5l-.1-29.18A21.06,21.06,0,0,0,302.83,61.1L276.06,61a6.65,6.65,0,0,0-6.53,6.77l0,4.85A6.65,6.65,0,0,1,263,79.37l-52.19-.24a6.66,6.66,0,0,1-6.47-6.83l0-4.85a6.65,6.65,0,0,0-6.47-6.83l-9.42,0L165,60.47A21,21,0,0,0,150.75,66c-2.35,4.53-4.92,11-3.74,15.89l176.54,57.47Z" style="fill:#D7DF23"></path><path d="M323.68,108.5l-.1-29.18A21.06,21.06,0,0,0,302.83,61.1L276.06,61a6.65,6.65,0,0,0-6.53,6.77l0,4.85A6.65,6.65,0,0,1,263,79.37l-52.19-.24a6.66,6.66,0,0,1-6.47-6.83l0-4.85a6.65,6.65,0,0,0-6.47-6.83l-9.42,0L165,60.47A21,21,0,0,0,150.75,66c-2.35,4.53-4.92,11-3.74,15.89l176.54,57.47Z" style="fill:#fff;opacity:0.7000000000000001"></path><path d="M302.83,61.1l.72,0a16.21,16.21,0,0,1,2.13.18,19.74,19.74,0,0,1,7.89,2.76A20.4,20.4,0,0,1,318.36,68a21.15,21.15,0,0,1,4,6.31,21.86,21.86,0,0,1,1.54,8.55q0,4.66,0,9.93c-.1,28.07-.24,68.68-.42,118.86s-.43,109.93-.69,176.28q0,12.43-.1,25.18,0,3.18,0,6.39a22.49,22.49,0,0,1-.84,6.41,21,21,0,0,1-2.71,5.92,22.48,22.48,0,0,1-4.4,4.84,21.27,21.27,0,0,1-12.16,4.67c-1.11.07-2.21.05-3.31.05l-3.3,0-6.63,0-26.83-.12L207.38,441l-28.16-.13L165,440.76a22.26,22.26,0,0,1-13.68-3.84A21.47,21.47,0,0,1,143,425.37a22.9,22.9,0,0,1-.85-7.12l0-7.1q.06-14.17.12-28.17.12-28,.23-55.07c.16-36.11.31-70.94.46-104.12s.29-64.7.42-94.21q.1-22.13.2-42.69c0-1.72,0-3.42,0-5.11,0-.85.08-1.71.13-2.56s.22-1.68.44-2.5a21.52,21.52,0,0,1,4.46-8.9,21.36,21.36,0,0,1,17.19-7.53l18.36.09,8.83,0,4.33,0a6.71,6.71,0,0,1,4.13,1.17A7,7,0,0,1,204.09,65a11.57,11.57,0,0,1,.41,4.16c0,.68,0,1.37,0,2a14.87,14.87,0,0,0,0,2,6.68,6.68,0,0,0,1.57,3.54,6.15,6.15,0,0,0,3.22,2,7.1,7.1,0,0,0,1.9.2h1.94l7.61,0,27.77.15,12.25.07c1,0,1.95,0,2.87,0a6.17,6.17,0,0,0,2.59-.9,6.69,6.69,0,0,0,3-4.24,12.21,12.21,0,0,0,.17-2.56c0-.85,0-1.69,0-2.52a13.33,13.33,0,0,1,.12-2.45,6.86,6.86,0,0,1,.8-2.25,6.59,6.59,0,0,1,3.37-3,10.58,10.58,0,0,1,4.18-.43l13.66.09,8.4.06,2.87,0s-1,0-2.87,0h-8.4l-13.66,0a10.16,10.16,0,0,0-4.12.43,6.46,6.46,0,0,0-3.28,2.88,6.94,6.94,0,0,0-.77,2.2,13.74,13.74,0,0,0-.11,2.42c0,.83,0,1.67,0,2.52a11.46,11.46,0,0,1-.18,2.6,6.85,6.85,0,0,1-3.06,4.38,6.37,6.37,0,0,1-2.67.94c-1,.08-1.92,0-2.9,0l-12.25,0-27.77-.11-7.61,0h-1.94a7.45,7.45,0,0,1-2-.2A6.57,6.57,0,0,1,205.87,77a7,7,0,0,1-1.64-3.71,15.7,15.7,0,0,1-.06-2.05v-2a11,11,0,0,0-.39-4,6.65,6.65,0,0,0-2.44-3.22,6.34,6.34,0,0,0-3.94-1.1l-4.33,0-8.83,0-18.37-.07A21,21,0,0,0,149,68.07a21.22,21.22,0,0,0-4.37,8.74c-.21.8-.28,1.64-.43,2.46s-.11,1.66-.12,2.51c0,1.69,0,3.4,0,5.11q-.09,20.53-.17,42.69c-.11,29.51-.24,61-.37,94.21s-.28,68-.43,104.12Q143,355,142.84,383q0,14-.11,28.17l0,7.11a22.43,22.43,0,0,0,.83,7,21,21,0,0,0,8.08,11.26A21.74,21.74,0,0,0,165,440.24l14.22.06,28.17.13,55.05.26,26.83.13,6.63,0,3.3,0c1.1,0,2.2,0,3.28-.05a20.78,20.78,0,0,0,11.88-4.56,22,22,0,0,0,4.3-4.73,20.68,20.68,0,0,0,2.65-5.77,21.84,21.84,0,0,0,.81-6.28q0-3.21,0-6.39.06-12.75.11-25.19c.31-66.34.58-126.09.8-176.27s.45-90.79.59-118.86q0-5.26.05-9.93a21.55,21.55,0,0,0-1.5-8.49,20.71,20.71,0,0,0-3.94-6.28,20.47,20.47,0,0,0-4.74-3.91,19.93,19.93,0,0,0-7.84-2.8,15.42,15.42,0,0,0-2.13-.2C303.07,61.13,302.83,61.1,302.83,61.1Z" style="fill:#263238"></path></g></svg>