<svg xmlns="http://www.w3.org/2000/svg" viewBox="0 0 500 500"><g id="freepik--Device--inject-34"><path d="M394.25,401c-.13-2.8-1.75-34.93-2.1-41.85,0-.84-.07-1.31-.07-1.31s-10.22-5.25-21.11-4.39h0c-7.62.87-14.52,5.24-14.52,5.24V360c0,6.93,0,39.1,0,41.9,0,3.15,3.15,12.84,14.67,13.62H375v.08l5.24-.26C391.75,414,394.4,404.18,394.25,401Z" style="fill:#e0e0e0"></path><path d="M394.25,401a7,7,0,0,1-.11,1.88A15.26,15.26,0,0,1,392.3,408a16.33,16.33,0,0,1-2.38,3.11,15.47,15.47,0,0,1-3.78,2.72,17.16,17.16,0,0,1-5.12,1.6l-.71.12-.72,0-1.47.08-3.07.17h-.18v-.26l.19.17a33.82,33.82,0,0,1-6.21-.28,15.89,15.89,0,0,1-6.23-2.53,15.64,15.64,0,0,1-4.75-5.4,16.49,16.49,0,0,1-1.34-3.53,8.91,8.91,0,0,1-.29-1.93c0-.64,0-1.29,0-1.94,0-10.35,0-21.69,0-33.59v-8l.12-.07a42,42,0,0,1,7.17-3.42,33,33,0,0,1,7.46-1.85l-.22.27h0l0-.25.25,0a38.59,38.59,0,0,1,11.3,1,48.33,48.33,0,0,1,9.94,3.46l.11.06v.13c.61,12.95,1.12,23.73,1.47,31.31.17,3.75.29,6.71.38,8.76,0,1,.06,1.76.08,2.31,0,.24,0,.44,0,.59a.63.63,0,0,1,0,.2.55.55,0,0,1,0-.2l-.05-.59c0-.55-.08-1.31-.14-2.31-.12-2-.29-5-.51-8.75-.4-7.57-1-18.35-1.66-31.3l.12.19a47.31,47.31,0,0,0-9.84-3.4,38,38,0,0,0-11.15-.94l.23-.27h0l0,.23-.24,0A38.08,38.08,0,0,0,356.59,359l.12-.22v7.82c0,11.9,0,23.24,0,33.59v1.93a9.51,9.51,0,0,0,.27,1.83,16.85,16.85,0,0,0,1.3,3.43,15,15,0,0,0,4.59,5.25,15.48,15.48,0,0,0,6.06,2.49,33.62,33.62,0,0,0,6.13.3h.17v.24l-.2-.17,3.06-.14,1.47-.07.73,0,.69-.12a16.75,16.75,0,0,0,5-1.52,15.48,15.48,0,0,0,3.74-2.64,16.11,16.11,0,0,0,2.38-3,15.86,15.86,0,0,0,1.92-5,10.21,10.21,0,0,0,.18-1.38C394.23,401.2,394.25,401,394.25,401Z" style="fill:#263238"></path><path d="M394.25,401l-.4-6.73-37.41.33v7.3c0,3.15,3.16,12.84,14.68,13.62l3.92.08,5.23-.26C391.74,414,394.4,404.18,394.25,401Z" style="fill:#263238"></path><path d="M380.21,368.08s0-.43-.25-1.16a4.81,4.81,0,0,0-1.78-2.55,4.63,4.63,0,1,0,0,7.43,4.85,4.85,0,0,0,1.78-2.55c.21-.73.2-1.17.25-1.17s0,.11,0,.32a3.77,3.77,0,0,1-.09.9,4.8,4.8,0,0,1-1.76,2.79,5,5,0,0,1-4.79.79,5.09,5.09,0,0,1,0-9.59,5,5,0,0,1,4.79.78,4.82,4.82,0,0,1,1.76,2.8,3.77,3.77,0,0,1,.09.9C380.24,368,380.23,368.08,380.21,368.08Z" style="fill:#263238"></path><path d="M374.74,366.42c.05.08-.51.29-.77,1.05a1.57,1.57,0,0,0,.14,1.27,1.5,1.5,0,0,0,1.31.75,1.53,1.53,0,0,0,1.3-.76,1.59,1.59,0,0,0,.13-1.28c-.26-.75-.83-1-.78-1s.68,0,1.12.89a2,2,0,0,1,0,1.65,2,2,0,0,1-1.73,1.05,2,2,0,0,1-1.73-1,1.93,1.93,0,0,1-.07-1.65C374.06,366.44,374.75,366.37,374.74,366.42Z" style="fill:#263238"></path><path d="M375.35,365.7c.14,0,.26.53.26,1.18s-.12,1.17-.26,1.17-.26-.53-.26-1.17S375.21,365.7,375.35,365.7Z" style="fill:#263238"></path><path d="M376.14,378.93a.65.65,0,1,1-.65-.65A.65.65,0,0,1,376.14,378.93Z" style="fill:#fff"></path><circle cx="359.53" cy="397.9" r="0.31" style="fill:#455a64"></circle><circle cx="359.53" cy="399.63" r="0.31" style="fill:#455a64"></circle><circle cx="361.64" cy="397.9" r="0.31" style="fill:#455a64"></circle><circle cx="361.64" cy="399.63" r="0.31" style="fill:#455a64"></circle><circle cx="363.75" cy="397.9" r="0.31" style="fill:#455a64"></circle><circle cx="363.75" cy="399.63" r="0.31" style="fill:#455a64"></circle><circle cx="365.86" cy="397.9" r="0.31" style="fill:#455a64"></circle><circle cx="365.86" cy="399.63" r="0.31" style="fill:#455a64"></circle><circle cx="367.97" cy="397.9" r="0.31" style="fill:#455a64"></circle><circle cx="367.97" cy="399.63" r="0.31" style="fill:#455a64"></circle><circle cx="370.08" cy="397.9" r="0.31" style="fill:#455a64"></circle><circle cx="370.08" cy="399.63" r="0.31" style="fill:#455a64"></circle><circle cx="372.19" cy="397.9" r="0.31" style="fill:#455a64"></circle><circle cx="372.19" cy="399.63" r="0.31" style="fill:#455a64"></circle><circle cx="374.29" cy="397.9" r="0.31" style="fill:#455a64"></circle><circle cx="374.29" cy="399.63" r="0.31" style="fill:#455a64"></circle><circle cx="376.4" cy="397.9" r="0.31" style="fill:#455a64"></circle><circle cx="376.4" cy="399.63" r="0.31" style="fill:#455a64"></circle><circle cx="378.51" cy="397.9" r="0.31" style="fill:#455a64"></circle><circle cx="378.51" cy="399.63" r="0.31" style="fill:#455a64"></circle><path d="M380.93,397.9a.31.31,0,0,1-.31.31.31.31,0,0,1,0-.61A.31.31,0,0,1,380.93,397.9Z" style="fill:#455a64"></path><path d="M380.93,399.63a.31.31,0,0,1-.31.31.3.3,0,0,1-.3-.31.29.29,0,0,1,.3-.3A.3.3,0,0,1,380.93,399.63Z" style="fill:#455a64"></path><path d="M383,397.9a.31.31,0,1,1-.31-.3A.31.31,0,0,1,383,397.9Z" style="fill:#455a64"></path><path d="M383,399.63a.31.31,0,0,1-.62,0,.31.31,0,0,1,.62,0Z" style="fill:#455a64"></path><path d="M385.14,397.9a.3.3,0,0,1-.3.31.31.31,0,1,1,0-.61A.3.3,0,0,1,385.14,397.9Z" style="fill:#455a64"></path><path d="M385.14,399.63a.3.3,0,0,1-.3.31.31.31,0,0,1-.31-.31.3.3,0,0,1,.31-.3A.29.29,0,0,1,385.14,399.63Z" style="fill:#455a64"></path><path d="M387.25,397.9a.3.3,0,0,1-.3.31.31.31,0,1,1,0-.61A.3.3,0,0,1,387.25,397.9Z" style="fill:#455a64"></path><path d="M387.25,399.63a.3.3,0,0,1-.3.31.31.31,0,0,1-.31-.31.3.3,0,0,1,.31-.3A.29.29,0,0,1,387.25,399.63Z" style="fill:#455a64"></path><path d="M389.36,397.9a.31.31,0,1,1-.3-.3A.31.31,0,0,1,389.36,397.9Z" style="fill:#455a64"></path><path d="M389.36,399.63a.31.31,0,1,1-.61,0,.31.31,0,0,1,.61,0Z" style="fill:#455a64"></path><path d="M391.47,397.9a.31.31,0,1,1-.61,0,.31.31,0,0,1,.61,0Z" style="fill:#455a64"></path><path d="M391.47,399.63a.31.31,0,1,1-.61,0,.31.31,0,0,1,.61,0Z" style="fill:#455a64"></path><circle cx="359.53" cy="401.44" r="0.31" style="fill:#455a64"></circle><circle cx="359.53" cy="403.16" r="0.31" style="fill:#455a64"></circle><circle cx="361.64" cy="401.44" r="0.31" style="fill:#455a64"></circle><circle cx="361.64" cy="403.16" r="0.31" style="fill:#455a64"></circle><circle cx="363.75" cy="401.44" r="0.31" style="fill:#455a64"></circle><circle cx="363.75" cy="403.16" r="0.31" style="fill:#455a64"></circle><circle cx="365.86" cy="401.44" r="0.31" style="fill:#455a64"></circle><circle cx="365.86" cy="403.16" r="0.31" style="fill:#455a64"></circle><circle cx="367.97" cy="401.44" r="0.31" style="fill:#455a64"></circle><circle cx="367.97" cy="403.16" r="0.31" style="fill:#455a64"></circle><circle cx="370.08" cy="401.44" r="0.31" style="fill:#455a64"></circle><circle cx="370.08" cy="403.16" r="0.31" style="fill:#455a64"></circle><circle cx="372.19" cy="401.44" r="0.31" style="fill:#455a64"></circle><circle cx="372.19" cy="403.16" r="0.31" style="fill:#455a64"></circle><circle cx="374.29" cy="401.44" r="0.31" style="fill:#455a64"></circle><circle cx="374.29" cy="403.16" r="0.31" style="fill:#455a64"></circle><circle cx="376.4" cy="401.44" r="0.31" style="fill:#455a64"></circle><circle cx="376.4" cy="403.16" r="0.31" style="fill:#455a64"></circle><circle cx="378.51" cy="401.44" r="0.31" style="fill:#455a64"></circle><circle cx="378.51" cy="403.16" r="0.31" style="fill:#455a64"></circle><path d="M380.93,401.44a.3.3,0,0,1-.31.3.29.29,0,0,1-.3-.3.3.3,0,0,1,.3-.31A.31.31,0,0,1,380.93,401.44Z" style="fill:#455a64"></path><path d="M380.93,403.16a.31.31,0,0,1-.31.31.3.3,0,0,1-.3-.31.29.29,0,0,1,.3-.3A.3.3,0,0,1,380.93,403.16Z" style="fill:#455a64"></path><path d="M383,401.44a.31.31,0,0,1-.62,0,.31.31,0,1,1,.62,0Z" style="fill:#455a64"></path><path d="M383,403.16a.31.31,0,1,1-.62,0,.31.31,0,0,1,.62,0Z" style="fill:#455a64"></path><path d="M385.14,401.44a.29.29,0,0,1-.3.3.3.3,0,0,1-.31-.3.31.31,0,0,1,.31-.31A.3.3,0,0,1,385.14,401.44Z" style="fill:#455a64"></path><path d="M385.14,403.16a.3.3,0,0,1-.3.31.31.31,0,0,1-.31-.31.3.3,0,0,1,.31-.3A.29.29,0,0,1,385.14,403.16Z" style="fill:#455a64"></path><path d="M387.25,401.44a.29.29,0,0,1-.3.3.3.3,0,0,1-.31-.3.31.31,0,0,1,.31-.31A.3.3,0,0,1,387.25,401.44Z" style="fill:#455a64"></path><path d="M387.25,403.16a.3.3,0,0,1-.3.31.31.31,0,0,1-.31-.31.3.3,0,0,1,.31-.3A.29.29,0,0,1,387.25,403.16Z" style="fill:#455a64"></path><path d="M389.36,401.44a.31.31,0,0,1-.61,0,.31.31,0,1,1,.61,0Z" style="fill:#455a64"></path><path d="M389.36,403.16a.31.31,0,1,1-.61,0,.31.31,0,0,1,.61,0Z" style="fill:#455a64"></path><path d="M391.47,401.44a.31.31,0,0,1-.61,0,.31.31,0,1,1,.61,0Z" style="fill:#455a64"></path><path d="M391.47,403.16a.31.31,0,1,1-.61,0,.31.31,0,0,1,.61,0Z" style="fill:#455a64"></path><circle cx="359.53" cy="404.84" r="0.31" style="fill:#455a64"></circle><circle cx="361.64" cy="404.84" r="0.31" style="fill:#455a64"></circle><circle cx="361.64" cy="406.56" r="0.31" style="fill:#455a64"></circle><circle cx="363.75" cy="404.84" r="0.31" style="fill:#455a64"></circle><circle cx="363.75" cy="406.56" r="0.31" style="fill:#455a64"></circle><circle cx="365.86" cy="404.84" r="0.31" style="fill:#455a64"></circle><circle cx="365.86" cy="406.56" r="0.31" style="fill:#455a64"></circle><circle cx="367.97" cy="404.84" r="0.31" style="fill:#455a64"></circle><circle cx="367.97" cy="406.56" r="0.31" style="fill:#455a64"></circle><circle cx="370.08" cy="404.84" r="0.31" style="fill:#455a64"></circle><circle cx="370.08" cy="406.56" r="0.31" style="fill:#455a64"></circle><circle cx="372.19" cy="404.84" r="0.31" style="fill:#455a64"></circle><circle cx="372.19" cy="406.56" r="0.31" style="fill:#455a64"></circle><circle cx="374.29" cy="404.84" r="0.31" style="fill:#455a64"></circle><circle cx="374.29" cy="406.56" r="0.31" style="fill:#455a64"></circle><circle cx="376.4" cy="404.84" r="0.31" style="fill:#455a64"></circle><circle cx="376.4" cy="406.56" r="0.31" style="fill:#455a64"></circle><circle cx="378.51" cy="404.84" r="0.31" style="fill:#455a64"></circle><circle cx="378.51" cy="406.56" r="0.31" style="fill:#455a64"></circle><circle cx="380.62" cy="404.84" r="0.31" style="fill:#455a64"></circle><circle cx="380.62" cy="406.56" r="0.31" style="fill:#455a64"></circle><path d="M383,404.84a.31.31,0,0,1-.62,0,.31.31,0,1,1,.62,0Z" style="fill:#455a64"></path><path d="M383,406.56a.31.31,0,1,1-.62,0,.31.31,0,0,1,.62,0Z" style="fill:#455a64"></path><path d="M385.14,404.84a.29.29,0,0,1-.3.3.3.3,0,0,1-.31-.3.31.31,0,0,1,.31-.31A.3.3,0,0,1,385.14,404.84Z" style="fill:#455a64"></path><path d="M385.14,406.56a.3.3,0,0,1-.3.31.31.31,0,0,1-.31-.31.3.3,0,0,1,.31-.3A.29.29,0,0,1,385.14,406.56Z" style="fill:#455a64"></path><path d="M387.25,404.84a.29.29,0,0,1-.3.3.3.3,0,0,1-.31-.3.31.31,0,0,1,.31-.31A.3.3,0,0,1,387.25,404.84Z" style="fill:#455a64"></path><path d="M387.25,406.56a.3.3,0,0,1-.3.31.31.31,0,0,1-.31-.31.3.3,0,0,1,.31-.3A.29.29,0,0,1,387.25,406.56Z" style="fill:#455a64"></path><path d="M389.36,404.84a.31.31,0,0,1-.61,0,.31.31,0,1,1,.61,0Z" style="fill:#455a64"></path><path d="M389.36,406.56a.31.31,0,1,1-.61,0,.31.31,0,0,1,.61,0Z" style="fill:#455a64"></path><path d="M391.47,404.84a.31.31,0,0,1-.61,0,.31.31,0,1,1,.61,0Z" style="fill:#455a64"></path><circle cx="361.64" cy="408.21" r="0.31" style="fill:#455a64"></circle><circle cx="363.75" cy="408.21" r="0.31" style="fill:#455a64"></circle><path d="M364.06,409.94a.31.31,0,0,1-.62,0,.31.31,0,1,1,.62,0Z" style="fill:#455a64"></path><circle cx="365.86" cy="408.21" r="0.31" style="fill:#455a64"></circle><path d="M366.17,409.94a.31.31,0,0,1-.62,0,.31.31,0,1,1,.62,0Z" style="fill:#455a64"></path><circle cx="367.97" cy="408.21" r="0.31" style="fill:#455a64"></circle><path d="M368.27,409.94a.29.29,0,0,1-.3.3.3.3,0,0,1-.31-.3.31.31,0,0,1,.31-.31A.3.3,0,0,1,368.27,409.94Z" style="fill:#455a64"></path><circle cx="370.08" cy="408.21" r="0.31" style="fill:#455a64"></circle><path d="M370.38,409.94a.29.29,0,0,1-.3.3.3.3,0,0,1-.31-.3.31.31,0,0,1,.31-.31A.3.3,0,0,1,370.38,409.94Z" style="fill:#455a64"></path><circle cx="372.19" cy="408.21" r="0.31" style="fill:#455a64"></circle><path d="M372.49,409.94a.31.31,0,0,1-.61,0,.31.31,0,1,1,.61,0Z" style="fill:#455a64"></path><circle cx="374.29" cy="408.21" r="0.31" style="fill:#455a64"></circle><path d="M374.6,409.94a.31.31,0,0,1-.61,0,.31.31,0,1,1,.61,0Z" style="fill:#455a64"></path><circle cx="376.4" cy="408.21" r="0.31" style="fill:#455a64"></circle><path d="M376.71,409.94a.3.3,0,0,1-.31.3.29.29,0,0,1-.3-.3.3.3,0,0,1,.3-.31A.31.31,0,0,1,376.71,409.94Z" style="fill:#455a64"></path><circle cx="378.51" cy="408.21" r="0.31" style="fill:#455a64"></circle><path d="M378.82,409.94a.3.3,0,0,1-.31.3.29.29,0,0,1-.3-.3.3.3,0,0,1,.3-.31A.31.31,0,0,1,378.82,409.94Z" style="fill:#455a64"></path><path d="M380.93,408.21a.31.31,0,0,1-.31.31.31.31,0,0,1,0-.62A.31.31,0,0,1,380.93,408.21Z" style="fill:#455a64"></path><path d="M380.93,409.94a.3.3,0,0,1-.31.3.29.29,0,0,1-.3-.3.3.3,0,0,1,.3-.31A.31.31,0,0,1,380.93,409.94Z" style="fill:#455a64"></path><path d="M383,408.21a.31.31,0,1,1-.31-.31A.31.31,0,0,1,383,408.21Z" style="fill:#455a64"></path><path d="M383,409.94a.31.31,0,0,1-.62,0,.31.31,0,1,1,.62,0Z" style="fill:#455a64"></path><path d="M385.14,408.21a.3.3,0,0,1-.3.31.31.31,0,0,1,0-.62A.3.3,0,0,1,385.14,408.21Z" style="fill:#455a64"></path><path d="M385.14,409.94a.29.29,0,0,1-.3.3.3.3,0,0,1-.31-.3.31.31,0,0,1,.31-.31A.3.3,0,0,1,385.14,409.94Z" style="fill:#455a64"></path><path d="M387.25,408.21a.3.3,0,0,1-.3.31.31.31,0,0,1,0-.62A.3.3,0,0,1,387.25,408.21Z" style="fill:#455a64"></path><path d="M387.25,409.94a.29.29,0,0,1-.3.3.3.3,0,0,1-.31-.3.31.31,0,0,1,.31-.31A.3.3,0,0,1,387.25,409.94Z" style="fill:#455a64"></path><path d="M389.36,408.21a.31.31,0,1,1-.3-.31A.31.31,0,0,1,389.36,408.21Z" style="fill:#455a64"></path><path d="M397.3,330.52s-.17-.11-.45-.37L395.64,329a18.12,18.12,0,0,0-1.95-1.73c-.4-.32-.83-.65-1.27-1l-.7-.55c-.25-.18-.52-.34-.78-.51a29.86,29.86,0,0,0-3.59-2.13c-.68-.32-1.35-.73-2.09-1l-2.3-.88a33,33,0,0,0-10.76-1.72,32.44,32.44,0,0,0-10.72,2c-.79.31-1.57.58-2.3.9l-2.08,1-1,.5-.91.57-1.7,1.07a42.56,42.56,0,0,0-4.75,3.75l-1.23,1.1a2.3,2.3,0,0,1-.46.36,2.53,2.53,0,0,1,.38-.44l1.17-1.17a37.06,37.06,0,0,1,4.69-3.91l1.69-1.1.91-.59,1-.52L359,322c.74-.33,1.53-.61,2.32-.93a31.55,31.55,0,0,1,21.81-.31l2.32.91c.75.31,1.43.72,2.11,1.06a29.79,29.79,0,0,1,3.6,2.2c.26.19.53.35.78.53l.69.58,1.26,1.05a18.16,18.16,0,0,1,1.91,1.8l1.14,1.2A3.34,3.34,0,0,1,397.3,330.52Z" style="fill:#263238"></path><path d="M390.22,340.29a31.33,31.33,0,0,0-4.66-3.77c-.4-.24-.8-.51-1.25-.75l-1.42-.67c-.25-.11-.5-.24-.76-.34l-.81-.29c-.54-.18-1.1-.4-1.69-.57a29.26,29.26,0,0,0-7.85-1.07,27.57,27.57,0,0,0-7.85,1.17l-1.7.56c-.54.19-1,.46-1.54.67a19.5,19.5,0,0,0-2.67,1.43,15.65,15.65,0,0,0-2,1.43,10.09,10.09,0,0,0-1.44,1.23,9,9,0,0,1-1.22,1.07,11.91,11.91,0,0,1,1.08-1.22,9.47,9.47,0,0,1,1.39-1.31,17.28,17.28,0,0,1,2-1.51,18.27,18.27,0,0,1,2.69-1.51c.5-.22,1-.51,1.56-.71l1.72-.59a27.36,27.36,0,0,1,8-1.23,28.67,28.67,0,0,1,8,1.13c.6.17,1.16.41,1.72.6q.4.16.81.3l.77.37,1.43.71c.45.25.85.54,1.25.79s.79.48,1.12.74l.92.77.79.68c.23.22.41.45.59.64A9,9,0,0,1,390.22,340.29Z" style="fill:#263238"></path><path d="M382.44,349.6a30.15,30.15,0,0,0-2.84-2,17.13,17.13,0,0,0-8-2.07,15.44,15.44,0,0,0-8,1.92c-1.84,1.09-2.71,2.13-2.8,2a3.27,3.27,0,0,1,.61-.72,5,5,0,0,1,.81-.76,8.75,8.75,0,0,1,1.19-.87,14.78,14.78,0,0,1,8.17-2.14,16.46,16.46,0,0,1,8.14,2.28l.66.42.54.43a6,6,0,0,1,.84.73C382.25,349.33,382.47,349.58,382.44,349.6Z" style="fill:#263238"></path></g><g id="freepik--musical-notes--inject-34"><path d="M361.66,222.45a5.07,5.07,0,1,1-5.56-4.53A5.06,5.06,0,0,1,361.66,222.45Z" style="fill:#263238"></path><path d="M360.76,220.85c-.23.21-3.94-3.64-7.56-9.08s-6.45-9.83-6.24-10,3.58,3.95,7.17,9.37S361,220.64,360.76,220.85Z" style="fill:#263238"></path><path d="M355.7,195.25c.28.07-.52,2.81-3.17,4.91s-5.49,2.32-5.49,2,2.42-1,4.79-2.9S355.4,195.11,355.7,195.25Z" style="fill:#263238"></path><path d="M358.38,199.78c.29,0-.39,2.8-3.13,4.67s-5.54,1.57-5.47,1.28,2.46-.51,4.84-2.2S358.08,199.65,358.38,199.78Z" style="fill:#263238"></path><path d="M367.61,172.26a6.14,6.14,0,1,1,3.35-8A6.15,6.15,0,0,1,367.61,172.26Z" style="fill:#263238"></path><path d="M369.16,170.66c-.51-.3,2.55-6,7.64-12.14s9.31-10.74,9.76-10.42-3.06,5.76-8.11,11.77S369.66,171,369.16,170.66Z" style="fill:#263238"></path><path d="M399.15,163.49c-.12.48-5.12-.68-9.46-5.12a14.41,14.41,0,0,1-3.89-6.77c-.45-2,.05-3.32.3-3.27s.4,1.19,1.14,2.82a19.64,19.64,0,0,0,4,5.74C395.1,160.89,399.43,162.88,399.15,163.49Z" style="fill:#263238"></path><path d="M380.19,187.65a6.14,6.14,0,1,1,3.35-8A6.14,6.14,0,0,1,380.19,187.65Z" style="fill:#263238"></path><path d="M381.74,186.05c-.51-.3,2.56-6.05,7.64-12.13s9.31-10.74,9.77-10.43-3.07,5.76-8.12,11.78S382.25,186.35,381.74,186.05Z" style="fill:#263238"></path><path d="M396.62,166.83c-.08.55-4.92-.25-9.14-4.27s-5.32-8.77-4.77-8.88,2.4,3.77,6.24,7.33S396.81,166.23,396.62,166.83Z" style="fill:#263238"></path><path d="M353.58,275.75a4.57,4.57,0,1,1-2.31-6A4.57,4.57,0,0,1,353.58,275.75Z" style="fill:#263238"></path><path d="M353.59,274.09c-.43.1-1.73-4.57-2.11-10.47S351,253,351.38,253s1.31,4.68,1.68,10.52S354,274,353.59,274.09Z" style="fill:#263238"></path><path d="M366.08,254.81c.18.32-3.11,2.26-7.73,2.1a10.66,10.66,0,0,1-5.58-1.65c-1.29-.87-1.68-1.82-1.52-1.92s.83.44,2.07.94a14.49,14.49,0,0,0,5.09,1C362.56,255.49,365.92,254.34,366.08,254.81Z" style="fill:#263238"></path><path d="M368.28,277.58a4.57,4.57,0,1,1-2.31-6A4.57,4.57,0,0,1,368.28,277.58Z" style="fill:#263238"></path><path d="M368.29,275.92c-.43.11-1.73-4.57-2.11-10.47s-.51-10.58-.1-10.64,1.31,4.68,1.68,10.52S368.72,275.83,368.29,275.92Z" style="fill:#263238"></path><path d="M366.43,257.91c.24.34-2.78,2.4-7.12,2.4s-7.38-2-7.14-2.34,3.24.8,7.14.75S366.23,257.49,366.43,257.91Z" style="fill:#263238"></path><path d="M392,227.63a2.26,2.26,0,1,1,1.39-2.89A2.26,2.26,0,0,1,392,227.63Z" style="fill:#263238"></path><path d="M392.57,227.07c-.18-.12,1.06-2.18,3-4.32s3.64-3.78,3.8-3.65-1.24,2.06-3.21,4.18S392.75,227.19,392.57,227.07Z" style="fill:#263238"></path><path d="M403.74,225c-.05.18-1.86-.35-3.38-2.06a5.31,5.31,0,0,1-1.3-2.57c-.13-.76.08-1.22.17-1.2s.13.45.37,1.06a7.23,7.23,0,0,0,1.35,2.19C402.3,224,403.86,224.78,403.74,225Z" style="fill:#263238"></path><path d="M396.31,233.53a2.26,2.26,0,1,1,1.38-2.88A2.26,2.26,0,0,1,396.31,233.53Z" style="fill:#263238"></path><path d="M396.91,233c-.18-.12,1.06-2.17,3-4.32s3.63-3.77,3.79-3.65-1.23,2.06-3.21,4.18S397.09,233.09,396.91,233Z" style="fill:#263238"></path><path d="M402.75,226.18c0,.2-1.81-.18-3.28-1.74s-1.79-3.33-1.59-3.36.81,1.43,2.16,2.82S402.83,226,402.75,226.18Z" style="fill:#263238"></path></g></svg>