<svg xmlns="http://www.w3.org/2000/svg" viewBox="0 0 500 500"><g id="freepik--Lines--inject-20"><path d="M467.4,384c0,.14-11.78.26-26.32.26s-26.32-.12-26.32-.26,11.78-.26,26.32-.26S467.4,383.9,467.4,384Z" style="fill:#263238"></path><path d="M477.31,391.33c0,.14-11.79.26-26.32.26s-26.32-.12-26.32-.26,11.78-.26,26.32-.26S477.31,391.18,477.31,391.33Z" style="fill:#263238"></path><path d="M362.28,269c0,.15-9.61.27-21.47.27s-21.47-.12-21.47-.27,9.61-.26,21.47-.26S362.28,268.87,362.28,269Z" style="fill:#263238"></path><path d="M370.36,274.82c0,.15-9.62.26-21.47.26s-21.47-.11-21.47-.26,9.61-.26,21.47-.26S370.36,274.68,370.36,274.82Z" style="fill:#263238"></path></g><g id="freepik--speech-bubble--inject-20"><path d="M207.76,207.83l-7.91.36a21.32,21.32,0,0,1-9.66,6.55,20.89,20.89,0,0,1-26.53-14,22,22,0,0,1,13.92-27.34,20.88,20.88,0,0,1,26.53,14,22.16,22.16,0,0,1-.38,14h0Z" style="fill:#fff"></path><path d="M207.76,207.83l-.29-.42-.79-1.23-3-4.69h.16a.09.09,0,0,1-.13,0,.08.08,0,0,1,0-.11,22.27,22.27,0,0,0,1.07-10.59,21.76,21.76,0,0,0-6.64-12.76,20.64,20.64,0,0,0-16.31-5.4,21.51,21.51,0,0,0-12.93,6.57,22.73,22.73,0,0,0-3,4.16A21.42,21.42,0,0,0,163,193a22.06,22.06,0,0,0,1.55,9.46,20.9,20.9,0,0,0,12.26,11.89,20.58,20.58,0,0,0,14.28-.1,21.32,21.32,0,0,0,8.71-6.15.11.11,0,0,1,.07,0l5.86-.2,1.52,0h.54l-.49,0-1.5.09-5.92.33.07,0a21.33,21.33,0,0,1-8.75,6.3,20.87,20.87,0,0,1-14.52.18,21.31,21.31,0,0,1-12.53-12.08,22.51,22.51,0,0,1-1.59-9.66,23.71,23.71,0,0,1,.84-5,23.11,23.11,0,0,1,5.13-9,22,22,0,0,1,3.95-3.3,21.6,21.6,0,0,1,9.27-3.39,20.76,20.76,0,0,1,9.23,1.07,21,21,0,0,1,7.38,4.47,21.43,21.43,0,0,1,4.65,6.33,22,22,0,0,1,2,6.67,22.34,22.34,0,0,1-1.19,10.69l-.17-.09h0a.09.09,0,0,1,.13,0s0,0,0,0c1.29,2.09,2.28,3.71,3,4.82l.74,1.22C207.69,207.7,207.76,207.83,207.76,207.83Z" style="fill:#263238"></path><path d="M191.61,191.55a4.22,4.22,0,0,0-4.29-3.28,4.3,4.3,0,0,0-2.86,1.82,7.33,7.33,0,0,0-.66,1,8.59,8.59,0,0,0-.7-1,4.34,4.34,0,0,0-2.95-1.69A4.21,4.21,0,0,0,176,191.9a6.89,6.89,0,0,0,1.59,5.49,11.07,11.07,0,0,0,6.59,4.2c2.19-.55,4.92-2.89,6.06-4.49A6.86,6.86,0,0,0,191.61,191.55Z" style="fill:#D7DF23"></path></g><g id="freepik--Character--inject-20"><polygon points="234.79 235.12 221.55 247.32 194.24 263.08 193.18 263.32 194.24 271.92 226.42 260.93 245.64 246.36 234.79 235.12" style="fill:#ffbe9d"></polygon><path d="M341.31,405.52c-.12,0,3.43-12.28,7.91-27.34s8.22-27.27,8.34-27.23-3.43,12.28-7.92,27.35S341.42,405.56,341.31,405.52Z" style="fill:#263238"></path><path d="M341.31,405.52c-.12,0,1.37-12.67,3.32-28.27S348.27,349,348.39,349,347,361.7,345.06,377.3,341.43,405.54,341.31,405.52Z" style="fill:#263238"></path><path d="M341.31,405.52c-.12,0-.9-12.72-1.74-28.42s-1.42-28.43-1.3-28.44.9,12.72,1.74,28.42S341.43,405.52,341.31,405.52Z" style="fill:#263238"></path><path d="M341.31,405.52c-.12,0-3-12.39-6.47-27.72s-6.15-27.81-6-27.83,3,12.39,6.47,27.73S341.42,405.5,341.31,405.52Z" style="fill:#263238"></path><path d="M341.31,405.52c-.11.05-5.05-11.71-11-26.25s-10.72-26.38-10.61-26.43,5,11.71,11,26.26S341.42,405.48,341.31,405.52Z" style="fill:#263238"></path><path d="M341.31,405.52c-.11.07-6.93-10.7-15.25-24s-15-24.21-14.88-24.28,6.93,10.7,15.25,24.05S341.41,405.46,341.31,405.52Z" style="fill:#263238"></path><path d="M341.31,405.52c-.09.08-8.63-9.39-19.06-21.15S303.43,363,303.52,362.92s8.62,9.39,19.06,21.16S341.4,405.44,341.31,405.52Z" style="fill:#263238"></path><path d="M341.31,405.52c-.08.1-10.08-7.82-22.33-17.67s-22.13-17.91-22.05-18,10.07,7.82,22.32,17.67S341.38,405.43,341.31,405.52Z" style="fill:#263238"></path><path d="M341.31,405.52c-.06.11-11.24-6-25-13.68s-24.82-14-24.76-14.07,11.24,6,25,13.69S341.36,405.42,341.31,405.52Z" style="fill:#263238"></path><path d="M341.31,405.52c0,.12-12.09-4.06-26.91-9.31s-26.8-9.62-26.76-9.73,12.09,4,26.91,9.32S341.35,405.41,341.31,405.52Z" style="fill:#263238"></path><path d="M341.31,405.52c0,.12-12.6-2-28.09-4.68s-28-5-28-5.12,12.59,2,28.09,4.69S341.33,405.41,341.31,405.52Z" style="fill:#263238"></path><path d="M341.31,405.52c0,.12-12.75.16-28.48.08s-28.47-.24-28.47-.36,12.75-.15,28.48-.07S341.31,405.4,341.31,405.52Z" style="fill:#263238"></path><path d="M341.31,405.52c0,.12-12.55,2.29-28.06,4.84s-28.11,4.53-28.13,4.41,12.54-2.28,28.06-4.84S341.29,405.41,341.31,405.52Z" style="fill:#263238"></path><path d="M341.31,405.52c0,.12-12,4.35-26.86,9.47s-27,9.16-27,9.05,12-4.35,26.85-9.46S341.27,405.41,341.31,405.52Z" style="fill:#263238"></path><path d="M341.31,405.52c.05.11-11.09,6.3-24.9,13.83s-25,13.54-25.1,13.44,11.09-6.3,24.9-13.83S341.25,405.42,341.31,405.52Z" style="fill:#263238"></path><path d="M341.31,405.52c.07.1-9.88,8.06-22.23,17.79s-22.43,17.55-22.5,17.46,9.87-8.06,22.23-17.8S341.23,405.43,341.31,405.52Z" style="fill:#263238"></path><path d="M341.31,405.52c.09.08-8.4,9.6-18.94,21.26s-19.18,21.05-19.27,21,8.39-9.6,18.94-21.26S341.22,405.44,341.31,405.52Z" style="fill:#263238"></path><path d="M341.31,405.52c.1.07-6.67,10.87-15.12,24.13s-15.39,24-15.49,23.9,6.67-10.87,15.12-24.13S341.2,405.46,341.31,405.52Z" style="fill:#263238"></path><path d="M341.31,405.52c.11.05-4.76,11.83-10.87,26.32S319.28,458,319.17,458s4.75-11.83,10.87-26.32S341.2,405.48,341.31,405.52Z" style="fill:#263238"></path><path d="M341.31,405.52c.11,0-2.71,12.46-6.32,27.77S328.37,461,328.26,461s2.7-12.45,6.31-27.76S341.19,405.5,341.31,405.52Z" style="fill:#263238"></path><path d="M341.31,405.52c.12,0-.59,12.74-1.58,28.43s-1.9,28.41-2,28.4.59-12.73,1.58-28.43S341.19,405.52,341.31,405.52Z" style="fill:#263238"></path><path d="M341.31,405.52c.12,0,1.55,12.66,3.19,28.3s2.89,28.32,2.77,28.34-1.55-12.66-3.2-28.3S341.19,405.54,341.31,405.52Z" style="fill:#263238"></path><path d="M341.31,405.52c.11,0,3.64,12.22,7.88,27.36s7.58,27.45,7.47,27.48S353,448.14,348.77,433,341.19,405.56,341.31,405.52Z" style="fill:#263238"></path><path d="M341.31,405.52c.1,0,5.63,11.44,12.35,25.66S365.72,457,365.61,457s-5.63-11.43-12.35-25.66S341.2,405.58,341.31,405.52Z" style="fill:#263238"></path><path d="M341.31,405.52c.09-.06,7.47,10.34,16.46,23.23s16.21,23.41,16.11,23.48S366.41,441.9,357.42,429,341.21,405.59,341.31,405.52Z" style="fill:#263238"></path><path d="M341.31,405.52c.08-.08,9.09,8.94,20.12,20.15s19.89,20.37,19.81,20.45-9.09-8.93-20.12-20.15S341.22,405.61,341.31,405.52Z" style="fill:#263238"></path><path d="M341.31,405.52c.07-.09,10.46,7.29,23.2,16.5s23,16.75,23,16.85-10.46-7.29-23.21-16.5S341.24,405.62,341.31,405.52Z" style="fill:#263238"></path><path d="M341.31,405.52c.05-.1,11.53,5.44,25.63,12.39s25.51,12.66,25.45,12.77-11.53-5.44-25.64-12.38S341.25,405.63,341.31,405.52Z" style="fill:#263238"></path><path d="M341.31,405.52c0-.11,12.28,3.43,27.34,7.92s27.27,8.22,27.23,8.34-12.28-3.43-27.35-7.92S341.27,405.64,341.31,405.52Z" style="fill:#263238"></path><path d="M341.31,405.52c0-.12,12.68,1.33,28.28,3.24s28.26,3.54,28.24,3.66-12.68-1.33-28.29-3.23S341.29,405.64,341.31,405.52Z" style="fill:#263238"></path><path d="M341.31,405.52c0-.12,12.72-.81,28.43-1.54s28.44-1.23,28.45-1.11-12.72.81-28.43,1.54S341.31,405.64,341.31,405.52Z" style="fill:#263238"></path><path d="M341.31,405.52c0-.11,12.41-2.92,27.77-6.28s27.84-6,27.86-5.85-12.4,2.93-27.77,6.28S341.33,405.64,341.31,405.52Z" style="fill:#263238"></path><path d="M341.31,405.52c-.05-.11,11.74-5,26.33-10.83s26.44-10.55,26.49-10.44-11.74,5-26.33,10.84S341.35,405.64,341.31,405.52Z" style="fill:#263238"></path><path d="M341.31,405.52c-.07-.1,10.75-6.85,24.14-15.08s24.32-14.82,24.38-14.72-10.75,6.85-24.15,15.09S341.37,405.63,341.31,405.52Z" style="fill:#263238"></path><path d="M341.31,405.52c-.08-.09,9.45-8.56,21.28-18.91s21.49-18.68,21.57-18.59-9.45,8.56-21.29,18.92S341.39,405.61,341.31,405.52Z" style="fill:#263238"></path><path d="M341.31,405.52c-.1-.07,7.88-10,17.81-22.2s18.07-22,18.16-21.94-7.88,10-17.82,22.21S341.4,405.6,341.31,405.52Z" style="fill:#263238"></path><path d="M341.31,405.52c-.11-.06,6.09-11.19,13.85-24.87s14.13-24.72,14.23-24.66-6.1,11.19-13.85,24.87S341.41,405.58,341.31,405.52Z" style="fill:#263238"></path><path d="M131.89,405.52c-.12,0,3.43-12.28,7.92-27.34S148,350.91,148.14,351s-3.43,12.28-7.92,27.35S132,405.56,131.89,405.52Z" style="fill:#263238"></path><path d="M131.89,405.52c-.12,0,1.37-12.67,3.33-28.27S138.86,349,139,349s-1.37,12.68-3.33,28.28S132,405.54,131.89,405.52Z" style="fill:#263238"></path><path d="M131.89,405.52c-.12,0-.9-12.72-1.73-28.42s-1.42-28.43-1.3-28.44.89,12.72,1.73,28.42S132,405.52,131.89,405.52Z" style="fill:#263238"></path><path d="M131.89,405.52c-.12,0-3-12.39-6.46-27.72s-6.16-27.81-6-27.83,3,12.39,6.46,27.73S132,405.5,131.89,405.52Z" style="fill:#263238"></path><path d="M131.89,405.52c-.11.05-5-11.71-11-26.25s-10.72-26.38-10.61-26.43,5,11.71,11,26.26S132,405.48,131.89,405.52Z" style="fill:#263238"></path><path d="M131.89,405.52c-.1.07-6.93-10.7-15.25-24s-15-24.21-14.88-24.28,6.93,10.7,15.25,24.05S132,405.46,131.89,405.52Z" style="fill:#263238"></path><path d="M131.89,405.52c-.09.08-8.62-9.39-19-21.15S94,363,94.1,362.92s8.62,9.39,19.06,21.16S132,405.44,131.89,405.52Z" style="fill:#263238"></path><path d="M131.89,405.52c-.08.1-10.07-7.82-22.32-17.67s-22.13-17.91-22.06-18,10.07,7.82,22.33,17.67S132,405.43,131.89,405.52Z" style="fill:#263238"></path><path d="M131.89,405.52c-.06.11-11.24-6-25-13.68s-24.81-14-24.75-14.07,11.23,6,25,13.69S132,405.42,131.89,405.52Z" style="fill:#263238"></path><path d="M131.89,405.52c0,.12-12.09-4.06-26.9-9.31s-26.81-9.62-26.77-9.73,12.09,4,26.91,9.32S131.93,405.41,131.89,405.52Z" style="fill:#263238"></path><path d="M131.89,405.52c0,.12-12.6-2-28.08-4.68s-28-5-28-5.12,12.6,2,28.09,4.69S131.91,405.41,131.89,405.52Z" style="fill:#263238"></path><path d="M131.89,405.52c0,.12-12.75.16-28.47.08S75,405.36,75,405.24s12.74-.15,28.47-.07S131.89,405.4,131.89,405.52Z" style="fill:#263238"></path><path d="M131.89,405.52c0,.12-12.54,2.29-28.06,4.84s-28.11,4.53-28.13,4.41,12.54-2.28,28.06-4.84S131.87,405.41,131.89,405.52Z" style="fill:#263238"></path><path d="M131.89,405.52c0,.12-12,4.35-26.85,9.47s-27,9.16-27,9.05,12-4.35,26.86-9.46S131.85,405.41,131.89,405.52Z" style="fill:#263238"></path><path d="M131.89,405.52c.06.11-11.09,6.3-24.89,13.83s-25,13.54-25.11,13.44S93,426.49,106.79,419,131.83,405.42,131.89,405.52Z" style="fill:#263238"></path><path d="M131.89,405.52c.07.1-9.88,8.06-22.23,17.79s-22.43,17.55-22.5,17.46S97,432.71,109.39,423,131.82,405.43,131.89,405.52Z" style="fill:#263238"></path><path d="M131.89,405.52c.09.08-8.39,9.6-18.94,21.26s-19.17,21.05-19.26,21,8.39-9.6,18.94-21.26S131.8,405.44,131.89,405.52Z" style="fill:#263238"></path><path d="M131.89,405.52c.1.07-6.67,10.87-15.12,24.13s-15.38,24-15.48,23.9,6.66-10.87,15.12-24.13S131.79,405.46,131.89,405.52Z" style="fill:#263238"></path><path d="M131.89,405.52c.11.05-4.76,11.83-10.87,26.32S109.86,458,109.75,458s4.76-11.83,10.87-26.32S131.78,405.48,131.89,405.52Z" style="fill:#263238"></path><path d="M131.89,405.52c.12,0-2.71,12.46-6.31,27.77S119,461,118.84,461s2.71-12.45,6.31-27.76S131.77,405.5,131.89,405.52Z" style="fill:#263238"></path><path d="M131.89,405.52c.12,0-.59,12.74-1.58,28.43s-1.9,28.41-2,28.4.59-12.73,1.59-28.43S131.77,405.52,131.89,405.52Z" style="fill:#263238"></path><path d="M131.89,405.52c.12,0,1.55,12.66,3.2,28.3s2.88,28.32,2.76,28.34-1.55-12.66-3.2-28.3S131.77,405.54,131.89,405.52Z" style="fill:#263238"></path><path d="M131.89,405.52c.12,0,3.65,12.22,7.88,27.36s7.59,27.45,7.47,27.48-3.64-12.22-7.88-27.36S131.77,405.56,131.89,405.52Z" style="fill:#263238"></path><path d="M131.89,405.52c.11,0,5.64,11.44,12.35,25.66S156.31,457,156.2,457s-5.64-11.43-12.35-25.66S131.78,405.58,131.89,405.52Z" style="fill:#263238"></path><path d="M131.89,405.52c.1-.06,7.47,10.34,16.47,23.23s16.21,23.41,16.11,23.48S157,441.9,148,429,131.79,405.59,131.89,405.52Z" style="fill:#263238"></path><path d="M131.89,405.52c.09-.08,9.09,8.94,20.12,20.15s19.9,20.37,19.81,20.45-9.09-8.93-20.12-20.15S131.8,405.61,131.89,405.52Z" style="fill:#263238"></path><path d="M131.89,405.52c.07-.09,10.46,7.29,23.21,16.5s23,16.75,23,16.85-10.46-7.29-23.21-16.5S131.82,405.62,131.89,405.52Z" style="fill:#263238"></path><path d="M131.89,405.52c.05-.1,11.53,5.44,25.64,12.39S183,430.57,183,430.68s-11.53-5.44-25.64-12.38S131.84,405.63,131.89,405.52Z" style="fill:#263238"></path><path d="M131.89,405.52c0-.11,12.28,3.43,27.35,7.92s27.26,8.22,27.23,8.34-12.28-3.43-27.36-7.92S131.86,405.64,131.89,405.52Z" style="fill:#263238"></path><path d="M131.89,405.52c0-.12,12.68,1.33,28.29,3.24s28.25,3.54,28.24,3.66-12.68-1.33-28.29-3.23S131.88,405.64,131.89,405.52Z" style="fill:#263238"></path><path d="M131.89,405.52c0-.12,12.72-.81,28.43-1.54s28.45-1.23,28.45-1.11-12.72.81-28.43,1.54S131.9,405.64,131.89,405.52Z" style="fill:#263238"></path><path d="M131.89,405.52c0-.11,12.41-2.92,27.77-6.28s27.84-6,27.87-5.85-12.41,2.93-27.78,6.28S131.92,405.64,131.89,405.52Z" style="fill:#263238"></path><path d="M131.89,405.52c0-.11,11.74-5,26.33-10.83s26.45-10.55,26.49-10.44-11.74,5-26.33,10.84S131.93,405.64,131.89,405.52Z" style="fill:#263238"></path><path d="M131.89,405.52c-.06-.1,10.75-6.85,24.15-15.08s24.31-14.82,24.37-14.72-10.74,6.85-24.15,15.09S132,405.63,131.89,405.52Z" style="fill:#263238"></path><path d="M131.89,405.52c-.08-.09,9.45-8.56,21.28-18.91s21.49-18.68,21.57-18.59-9.45,8.56-21.28,18.92S132,405.61,131.89,405.52Z" style="fill:#263238"></path><path d="M131.89,405.52c-.09-.07,7.89-10,17.82-22.2s18.06-22,18.16-21.94-7.89,10-17.82,22.21S132,405.6,131.89,405.52Z" style="fill:#263238"></path><path d="M131.89,405.52c-.1-.06,6.1-11.19,13.85-24.87S159.87,355.93,160,356s-6.1,11.19-13.86,24.87S132,405.58,131.89,405.52Z" style="fill:#263238"></path><path d="M67.22,405.52a64.67,64.67,0,1,0,64.67-64.67A64.67,64.67,0,0,0,67.22,405.52Zm5.46,0a59.21,59.21,0,1,1,59.21,59.21A59.21,59.21,0,0,1,72.68,405.52Z" style="fill:#263238"></path><path d="M72.68,405.52a59.21,59.21,0,1,0,59.21-59.21A59.21,59.21,0,0,0,72.68,405.52Zm2.28,0a56.93,56.93,0,1,1,56.93,56.94A56.93,56.93,0,0,1,75,405.52Z" style="fill:#e0e0e0"></path><path d="M276.64,405.52a64.67,64.67,0,1,0,64.67-64.67A64.67,64.67,0,0,0,276.64,405.52Zm5.46,0a59.21,59.21,0,1,1,59.21,59.21A59.21,59.21,0,0,1,282.1,405.52Z" style="fill:#263238"></path><path d="M282.1,405.52a59.21,59.21,0,1,0,59.21-59.21A59.21,59.21,0,0,0,282.1,405.52Zm2.27,0a56.94,56.94,0,1,1,56.94,56.94A56.93,56.93,0,0,1,284.37,405.52Z" style="fill:#e0e0e0"></path><path d="M249.62,431.1c-4.83,0-8.62-1.34-11.29-4-4.8-4.77-4.29-12-4.21-12.89-1.51-9.22,14.24-12.56,14.91-12.7l81.43-5.67c.38-.09,11-2.29,18.09,2.33,2.49,1.63,3.2,4.38,2.11,8.19a16.84,16.84,0,0,1-13.53,11.75c-19.95,3.25-68.09,11-84.16,12.79A30.33,30.33,0,0,1,249.62,431.1Zm87.19-34.84a32.29,32.29,0,0,0-6.21.57l-81.44,5.67c-.09,0-15.48,3.29-14,11.61v.13c0,.08-.73,7.54,3.92,12.16,3,3,7.69,4.2,13.82,3.51,16.05-1.79,64.16-9.54,84.11-12.79a15.8,15.8,0,0,0,12.73-11c1-3.34.39-5.72-1.7-7.08C344.63,396.81,340.31,396.26,336.81,396.26Z" style="fill:#e0e0e0"></path><path d="M185.35,264.37s-9.48,2-10.6,2.75-1.6,3.26-.86,4.69,2.47,1.71,3.46,1.93,10.35-4.68,10.35-4.68S188.9,264.78,185.35,264.37Z" style="fill:#263238"></path><path d="M197.31,290.28l-.81-.1c-1.61-.19-6-.36-7.34-1.29a5,5,0,0,1-1.9-3.54,13.38,13.38,0,0,1,.21-3.57l.49-.15,1.58-3.67a66.9,66.9,0,0,0-11.82,0c-1.47-1.15.05.61-1.2-.76-.9-1-1.86-2.24-1.41-3.48a5,5,0,0,1,1.12-1.5,2.08,2.08,0,0,0,.68-1.68c-.12-.62-1.14-1.35-1.59-.91a14.25,14.25,0,0,0-2.42,2.68,4.55,4.55,0,0,0-.74,3.4,6.4,6.4,0,0,0,2,2.95,5.68,5.68,0,0,0-3.39,2.34c-3.34,5.67,1.88,11.73,8,15.45l-3.57,11,4.42,2.38,3.64-11.52a9.72,9.72,0,0,0,.6-2.39c0-1.2-3.3-2.6-3.3-2.6s-8.61-5.2-7.31-9.79c.46-1.61,4.74-2.35,8.57-2.21a14.79,14.79,0,0,0-.51,3.79,7.87,7.87,0,0,0,2.63,5.11,8.51,8.51,0,0,0,3.14,1.74,29.67,29.67,0,0,0,10.23.83A1.27,1.27,0,0,0,197.31,290.28Zm-22.88-11.69-.12,0C174.14,278.37,174,278.21,174.43,278.59Z" style="fill:#e0e0e0"></path><polygon points="278.26 335.3 284.44 319.07 279.07 319.07 273.75 334.07 278.26 335.3" style="fill:#e0e0e0"></polygon><circle cx="249.49" cy="414.88" r="16.7" transform="translate(-228.98 488.61) rotate(-67.74)" style="fill:#263238"></circle><path d="M261.88,414.59a22.49,22.49,0,0,0-.48-3,12.27,12.27,0,0,0-4.48-6.64,12,12,0,0,0-11.42-1.7,11.39,11.39,0,0,0-3,1.65,11,11,0,0,0-2.54,2.56,12,12,0,0,0,0,14.21,11.47,11.47,0,0,0,2.55,2.56,11.08,11.08,0,0,0,3,1.64,12.16,12.16,0,0,0,15.9-8.33,22.19,22.19,0,0,0,.48-3,4.76,4.76,0,0,1,0,.79,6,6,0,0,1-.08.95,7.92,7.92,0,0,1-.22,1.29,12.41,12.41,0,0,1-9.69,9.25,12.54,12.54,0,0,1-6.57-.51,12.07,12.07,0,0,1-3.18-1.7A11.78,11.78,0,0,1,239.5,422a12.47,12.47,0,0,1,0-14.82,12.62,12.62,0,0,1,5.84-4.35,12.44,12.44,0,0,1,6.57-.51,12.41,12.41,0,0,1,9.69,9.25,7.92,7.92,0,0,1,.22,1.29,6,6,0,0,1,.08.95A4.58,4.58,0,0,1,261.88,414.59Z" style="fill:#455a64"></path><rect x="310.7" y="400.44" width="3.68" height="10.55" style="fill:#455a64"></rect><rect x="305.86" y="326.61" width="2.52" height="92.43" transform="translate(-174.35 334.01) rotate(-45.91)" style="fill:#D7DF23"></rect><path d="M407,391a5,5,0,0,0,2.66-6.28c-4.81-12.94-22.33-49.55-66.46-49.55-53.59,0-72.78,42.32-72.78,75.79l4.72-1s-2.57-70.2,68.27-70.2C391.63,339.77,407,391,407,391Z" style="fill:#D7DF23"></path><path d="M231.41,413.47s3.12-15.6,15.89-17.65,63.88,0,63.88,0,5.26.21,5.26,6.87L279.54,404l-15,6s-3.66-10.7-17.21-7.28c-10.2,2.56-10.24,10.78-10.24,10.78Z" style="fill:#455a64"></path><path d="M261.63,379.93v-6c-12.07,0-20.37-3-25.21-5.47a27.77,27.77,0,0,1-7.68-5.45l-.06-.06-48.5-52.76-5.72,2.7L224.21,367C225.1,368,236.18,379.93,261.63,379.93Z" style="fill:#D7DF23"></path><rect x="220.37" y="372.45" width="88.29" height="6.04" transform="matrix(0.27, -0.96, 0.96, 0.27, -169.16, 526.69)" style="fill:#D7DF23"></rect><polygon points="251.23 421.13 341.73 408.33 340.88 402.35 253.54 414.71 172.72 326.31 168.27 330.38 251.23 421.13" style="fill:#D7DF23"></polygon><path d="M189.51,277.94h17.27c1,0,1.89,1.83,1.89,4.09s-.85,4.09-1.89,4.09l-17.27-1.26C185.87,280.61,189.51,277.94,189.51,277.94Z" style="fill:#263238"></path><path d="M197.29,425.64a2.14,2.14,0,0,0,3.71-.94c2.19-9.78,5.88-35.83-9.9-58.29C173.6,341.49,150.58,336.75,138,335a4.23,4.23,0,0,0-4.8,3.93h0s28.37,1.87,44.83,18.1a71.42,71.42,0,0,1,19.24,68.62Z" style="fill:#D7DF23"></path><path d="M133.76,407.91c12.6-9.93,23.49-33.11,24-34.09l.11-.27,22.36-63.4-5-2.69-23,63.94c-.88,1.83-11.13,23.08-22.16,31.77Z" style="fill:#D7DF23"></path><path d="M285.36,350l16.3-20.38h70.57a1.25,1.25,0,0,0,1.26-1.26h0a1.25,1.25,0,0,0-1.26-1.25H300.45l-16.91,21.13Z" style="fill:#D7DF23"></path><rect x="309.51" y="365.59" width="78.15" height="2.52" transform="translate(-73.25 646.38) rotate(-79.99)" style="fill:#D7DF23"></rect><path d="M120.71,405.89a11.18,11.18,0,1,1,11.18,11.18A11.19,11.19,0,0,1,120.71,405.89Z" style="fill:#263238"></path><path d="M299.52,315.47c-.38,2.14-2.11,11.18-6.41,12.11s-34.91.51-39.57,0c-3-.32-5.28-4.85,1.52-5.81C264.84,320.38,300.36,310.69,299.52,315.47Z" style="fill:#455a64"></path><path d="M175.19,307.46a4.53,4.53,0,0,1,.19-.81c.18-.59.4-1.34.67-2.25.63-2,1.48-4.74,2.49-8l.11.27a22,22,0,0,1-8-7.12h0v0l-.24-.54v0l-.1-.18a8.38,8.38,0,0,1-.92-4.62,6.06,6.06,0,0,1,2-3.89,9.17,9.17,0,0,1,3.55-1.79,21,21,0,0,1,3.37-.63,31.75,31.75,0,0,1,4.94-.15c.59,0,1,.07,1.34.1a1.39,1.39,0,0,1,.47.08s-.65,0-1.81,0a40.67,40.67,0,0,0-4.89.31,22.31,22.31,0,0,0-3.3.68,8.83,8.83,0,0,0-3.35,1.74,5.61,5.61,0,0,0-1.85,3.58,7.83,7.83,0,0,0,.87,4.33l.09.16v0h0c.08.19.17.37.24.54v0a22.19,22.19,0,0,0,7.73,7l.17.09-.06.18c-1.08,3.22-2,5.94-2.67,7.93-.32.9-.58,1.63-.78,2.21A3.12,3.12,0,0,1,175.19,307.46Z" style="fill:#263238"></path><path d="M179.93,310.87c.14.05-4.79,14.36-11,32s-11.36,31.86-11.5,31.81,4.79-14.36,11-32S179.8,310.82,179.93,310.87Z" style="fill:#263238"></path><path d="M373.49,329.84c0,.14-16.21.26-36.2.26s-36.21-.12-36.21-.26,16.21-.26,36.21-.26S373.49,329.69,373.49,329.84Z" style="fill:#263238"></path><polygon points="189.4 320.19 189.4 329.18 192.03 331.92 192.03 322.94 189.4 320.19" style="fill:#e0e0e0"></polygon><path d="M349.43,356.33c-.14,0,.79-6,2.08-13.29s2.46-13.23,2.6-13.2-.79,6-2.08,13.29S349.57,356.35,349.43,356.33Z" style="fill:#263238"></path><path d="M351.77,355c-.14,0,.79-5.67,2.08-12.61s2.45-12.55,2.59-12.52-.79,5.67-2.08,12.61S351.91,355,351.77,355Z" style="fill:#263238"></path><polygon points="251.75 444.59 252.44 444.71 252.23 444.29 251.75 444.59" style="fill:#ffbe9d"></polygon><polygon points="251.09 400.35 231.47 403.84 252.23 444.29 265.38 436.13 251.09 400.35" style="fill:#ffbe9d"></polygon><path d="M248.66,439.45l.42,1s-14.15,14.06-13,17.38l33.79-14.51-5.29-11A21,21,0,0,1,248.66,439.45Z" style="fill:#455a64"></path><path d="M262.73,437.35a1.5,1.5,0,0,1,1.63,1.17,1.43,1.43,0,0,1-1.14,1.62,1.58,1.58,0,0,1-1.72-1.24,1.5,1.5,0,0,1,1.38-1.56" style="fill:#fff"></path><path d="M269.9,443.33l-1.27-2.65-31.92,14.87s-1.22,1.3-.6,2.29Z" style="fill:#263238"></path><path d="M249,440.6c.08.17.93-.11,2,.07s1.77.69,1.9.56-.53-1-1.8-1.18S248.9,440.47,249,440.6Z" style="fill:#263238"></path><path d="M246.09,443.59c0,.18.86.15,1.72.61s1.34,1.12,1.5,1.05-.13-1.06-1.21-1.61S246,443.43,246.09,443.59Z" style="fill:#263238"></path><path d="M245.89,448.7c.17,0,.05-1-.77-1.68s-1.73-.75-1.74-.58.67.45,1.33,1.05S245.72,448.75,245.89,448.7Z" style="fill:#263238"></path><path d="M240.28,319.47s-26.47,33-28.9,42.84c-1.62,6.58,1.16,12.85,3.52,16.34,3.8,5.62,21.4,36.29,21.4,36.29l16.53-7-12.55-32.45v-5.74l36-47.52-32.48-8Z" style="fill:#263238"></path><polygon points="263.14 425.56 255.74 451.01 252.67 451.49 259.31 424.26 263.14 425.56" style="fill:#263238"></polygon><rect x="245.71" y="450.27" width="17.2" height="4.85" transform="matrix(-0.92, 0.38, -0.38, -0.92, 663.27, 772.62)" style="fill:#263238"></rect><path d="M269.82,367.28c.14,0-3.46,13.24-8,29.48s-8.41,29.38-8.55,29.34,3.46-13.24,8-29.48S269.69,367.24,269.82,367.28Z" style="fill:#263238"></path><path d="M327.39,405.89a13.18,13.18,0,1,1,13.17,13.17A13.17,13.17,0,0,1,327.39,405.89Z" style="fill:#263238"></path><path d="M211.49,348.12s-.11,0-.32-.07a4,4,0,0,1-.86-.45,4.31,4.31,0,0,1-1.8-3c-.06-.37-.21-.58-.54-.49a2.76,2.76,0,0,1-1.3.22,2.79,2.79,0,0,1-2-2.09,18.76,18.76,0,0,0-.73-2.91.89.89,0,0,0-1-.58c-.44.08-1,.48-1.74.27-1.34-.49-1.59-1.94-1.67-2.93a5.81,5.81,0,0,0-.29-1.46,1.68,1.68,0,0,0-.88-.93.9.9,0,0,0-1.06.12,5.84,5.84,0,0,1-.46.54,1,1,0,0,1-.8.19,1.46,1.46,0,0,1-1-.95,7.32,7.32,0,0,1-.35-1.14,10.57,10.57,0,0,1-.23-3.52,3.83,3.83,0,0,1,.26-1.26s0,.46-.06,1.27a11.79,11.79,0,0,0,.39,3.42c.21.65.38,1.62,1.09,1.76.36.08.51-.19.85-.62a1.36,1.36,0,0,1,1.58-.25,2.18,2.18,0,0,1,1.15,1.18,5.87,5.87,0,0,1,.34,1.59,4.76,4.76,0,0,0,.32,1.49,1.73,1.73,0,0,0,1,1c.43.15.89-.13,1.49-.28a1.32,1.32,0,0,1,1,.15,1.83,1.83,0,0,1,.61.7,18.24,18.24,0,0,1,.73,3,2.38,2.38,0,0,0,1.59,1.79,2.52,2.52,0,0,0,1.15-.19.77.77,0,0,1,.72.21,1.09,1.09,0,0,1,.25.61,4.27,4.27,0,0,0,1.56,2.91A11.33,11.33,0,0,0,211.49,348.12Z" style="fill:#fff"></path><path d="M309.17,201c-3.21-.13-10.48,2.08-11-1.09,0,0-17-3.14-17.51-2.89s-10.41-.43-10.41-.43h-4.62l2.15,9.31c3.12.44,5.92,2.13,8.47,4s5,3.94,7.79,5.34,6.21,2,9.14.87c2-.79,3.56-2.33,5.38-3.43a13.93,13.93,0,0,1,8.85-1.89,23.1,23.1,0,0,0,4.45.52l4.38-7.07C313.34,202.5,312.38,201.15,309.17,201Z" style="fill:#263238"></path><path d="M235.44,165.22A19.27,19.27,0,0,0,230.52,180c.35,3.49,1.65,6.81,2.28,10.26.82,4.56.52,9.48,2.82,13.5a14.05,14.05,0,0,0,6.81,5.77,24.15,24.15,0,0,0,8.87,1.69c3.18.08,6.54-.31,9.14-2.16,3.28-2.33,4.69-6.45,5.79-10.33s2.22-8,5.21-10.72" style="fill:#263238"></path><path d="M324,187.92c5.54-1.57,6.3-4.16,6.3-4.16s-1.57-5.93-2.1-8.34c-.58-2.59-1.48-5.62-2-8-1.21,2.87-6.34,5.06-9.27,4s-6.32-4.54-11.82-5.45c-5.27-.87-10.63,3.56-14,4.38-7.93,1.92-7.83-9.2-16-9.67-2.81-.16-7.62,2-10.41,1.64-4.37-.56-8-6.12-12.37-6.94-3.41-.64-10.5.65-12.91,3.16s-3.57,3.58-4.4,7l24.88,27.35a22.74,22.74,0,0,0,16.73,7.53c3.13,0,6.21.51,8.14,1.6,3.91,2.22,8.43,4.63,12.68,3.15,3.23-1.13,5.36-4.25,8.41-5.82,3.79-1.94,8.33-1.22,12.55-.69s9.18.64,12.4-2.33L327.76,190A17.25,17.25,0,0,1,316.3,188C318.43,188,322,188.51,324,187.92Z" style="fill:#263238"></path><path d="M233.28,180c-.78-5.92,1.69-13.87,7.65-14.4l19.12,1a3.49,3.49,0,0,1,3.75,2.88l5.27,42.75c-.74,1.09-18.42,16.17-18.42,16.17l-.27-4.58s-2-15.37-2-15.32-7.73.23-11.19-9.23C235.46,194.62,234.15,186.61,233.28,180Z" style="fill:#ffbe9d"></path><path d="M237.79,188.35a1.28,1.28,0,0,0,1.46,1,1.22,1.22,0,0,0,1.07-1.38,1.28,1.28,0,0,0-1.46-1A1.22,1.22,0,0,0,237.79,188.35Z" style="fill:#263238"></path><path d="M236.13,184.57c.19.13,1-.75,2.35-1s2.46.22,2.58,0-.16-.35-.65-.58a3.5,3.5,0,0,0-2.11-.22,3.36,3.36,0,0,0-1.83,1C236.12,184.19,236,184.51,236.13,184.57Z" style="fill:#263238"></path><path d="M249.13,186.39a1.28,1.28,0,0,0,1.46,1,1.23,1.23,0,0,0,1.07-1.38,1.3,1.3,0,0,0-1.46-1A1.23,1.23,0,0,0,249.13,186.39Z" style="fill:#263238"></path><path d="M249,182c.19.13,1-.76,2.34-1s2.47.22,2.59,0-.16-.35-.66-.58a3.52,3.52,0,0,0-2.1-.23,3.37,3.37,0,0,0-1.83,1C249,181.63,248.93,182,249,182Z" style="fill:#263238"></path><path d="M246.18,192.43a8.91,8.91,0,0,0-2.26,0c-.36,0-.69,0-.8-.19a1.79,1.79,0,0,1,0-1.07c.16-.89.33-1.83.5-2.82.69-4,1.11-7.27.94-7.3a46.66,46.66,0,0,0-1.52,7.21c-.16,1-.31,1.93-.46,2.83a2,2,0,0,0,.09,1.38.85.85,0,0,0,.66.39,2.25,2.25,0,0,0,.6,0A9.86,9.86,0,0,0,246.18,192.43Z" style="fill:#263238"></path><path d="M248.38,208.55a25.37,25.37,0,0,0,12.39-6.05s-2,7.36-11.93,8.36Z" style="fill:#eb996e"></path><path d="M247.07,177c.2.34,1.51-.1,3.13-.22s3,.06,3.13-.31c.06-.17-.23-.47-.81-.73a5.42,5.42,0,0,0-4.77.41C247.21,176.46,247,176.81,247.07,177Z" style="fill:#263238"></path><path d="M235.18,180c.29.26,1.16-.24,2.27-.47s2.1-.2,2.26-.56c.06-.18-.14-.46-.61-.66a3.37,3.37,0,0,0-3.66.83C235.11,179.52,235,179.86,235.18,180Z" style="fill:#263238"></path><path d="M246.39,196.74a6.38,6.38,0,0,0,1.16,1.47,2.25,2.25,0,0,0,1.73.6,2,2,0,0,0,1.48-1.24,3.16,3.16,0,0,0,.09-2c-.15-.59-.56-1.25-1.17-1.2a1.49,1.49,0,0,0-.68.3l-2.85,1.88" style="fill:#eb996e"></path><path d="M248.13,199a4.66,4.66,0,0,0,1.62-.53,2.42,2.42,0,0,0,1-1.38,2.52,2.52,0,0,0-.36-2,2.4,2.4,0,0,0-.36-.41c-.15-.11-.13-.11-.26-.06s-.3.2-.46.29l-.46.31c-.62.4-1.17.76-1.64,1.05a5.56,5.56,0,0,1-1.59.84,5.9,5.9,0,0,1,1.36-1.17l1.57-1.15.46-.32c.17-.11.29-.22.52-.35A.74.74,0,0,1,250,194a.94.94,0,0,1,.4.21,2.56,2.56,0,0,1,.46.52,2.92,2.92,0,0,1,.4,2.5,2.69,2.69,0,0,1-1.32,1.58,2.45,2.45,0,0,1-1.33.32C248.29,199.15,248.13,199.08,248.13,199Z" style="fill:#263238"></path><path d="M253.48,171.14A18.78,18.78,0,0,1,258.94,182c.52,5.29,2,5.3,3.67,3.24,4.26-5.17,5.6,4.68,7.6,7,2.18,2.55,6,3,9.29,2.49s6.52-1.73,9.86-1.84c2.77-.09,5.5.6,8.26.81s5.76-.14,7.83-2c-4.15.85-8.4-.62-12.28-2.3s-7.79-3.64-12-3.85c-2.12-.1-4.35.23-6.29-.63-3.23-1.43-4.27-5.4-5.28-8.79a22.45,22.45,0,0,0-3.54-7.53,10.69,10.69,0,0,0-6.94-4.26,7.11,7.11,0,0,0-7.09,3.41" style="fill:#263238"></path><path d="M264,184.06c.14-.08,5.87-2.37,6.26,3.66s-5.75,5.17-5.77,5S264,184.06,264,184.06Z" style="fill:#ffbe9d"></path><path d="M265.65,190.37s.11.07.29.14a1.1,1.1,0,0,0,.79,0,2.6,2.6,0,0,0,1-2.41,3.48,3.48,0,0,0-.39-1.48,1.24,1.24,0,0,0-.85-.76.55.55,0,0,0-.6.33c-.07.17,0,.29-.05.3s-.14-.09-.11-.34a.65.65,0,0,1,.22-.39.76.76,0,0,1,.57-.19,1.46,1.46,0,0,1,1.15.86,3.67,3.67,0,0,1,.48,1.66,2.73,2.73,0,0,1-1.37,2.7,1.13,1.13,0,0,1-1-.1C265.67,190.51,265.63,190.38,265.65,190.37Z" style="fill:#eb996e"></path><path d="M306.4,160.73s-.15.25-.48.7a12.9,12.9,0,0,1-1.62,1.82,13.74,13.74,0,0,1-3.16,2.19,13,13,0,0,1-4.91,1.36,13.61,13.61,0,0,1-6.08-1,13.93,13.93,0,0,1-3-1.7c-.94-.72-1.82-1.58-2.74-2.42a14.26,14.26,0,0,0-3-2.27,6.51,6.51,0,0,0-3.83-.63,15.86,15.86,0,0,0-3.94,1.17,35.91,35.91,0,0,1-4,1.51,9.11,9.11,0,0,1-2.14.35,3.25,3.25,0,0,1-.54,0,4.55,4.55,0,0,1-.53,0l-.53-.11a2.35,2.35,0,0,1-.52-.14,6.37,6.37,0,0,1-1.86-1,12,12,0,0,1-1.56-1.36c-1-1-1.81-2-2.75-2.9a10.67,10.67,0,0,0-1.51-1.19,6.68,6.68,0,0,0-1.69-.79,7.35,7.35,0,0,0-1.79-.34,9.58,9.58,0,0,0-1.78.06,16.26,16.26,0,0,0-3.32.8c-1,.36-2,.78-3,1.21s-1.83.84-2.67,1.27a26.88,26.88,0,0,0-4.34,2.65,13.27,13.27,0,0,0-2.67,2.73c-.14.22-.29.42-.4.62s-.22.4-.32.58c-.17.36-.3.68-.41.94l-.19.6c0,.13-.07.2-.07.2s0-.07.05-.21l.18-.61c.09-.26.22-.58.39-.95l.31-.58c.11-.21.26-.41.4-.63a13.12,13.12,0,0,1,2.67-2.78,26.88,26.88,0,0,1,4.34-2.68c.84-.44,1.73-.86,2.67-1.29s1.93-.85,3-1.22a15.63,15.63,0,0,1,3.35-.82,9.9,9.9,0,0,1,1.81-.07,8.29,8.29,0,0,1,1.84.34,7.17,7.17,0,0,1,1.73.81,10.5,10.5,0,0,1,1.53,1.22c1,.9,1.82,1.93,2.77,2.89a11.63,11.63,0,0,0,1.53,1.35,6.39,6.39,0,0,0,1.81,1,2.17,2.17,0,0,0,.5.13l.51.11c.17,0,.35,0,.52,0a4.69,4.69,0,0,0,.53,0,8.37,8.37,0,0,0,2.09-.34c2.76-.76,5.21-2.33,8-2.68a6.64,6.64,0,0,1,3.94.66,14.22,14.22,0,0,1,3.08,2.3c.92.85,1.79,1.7,2.73,2.41a13.34,13.34,0,0,0,3,1.69,13.59,13.59,0,0,0,6,1,12.89,12.89,0,0,0,4.87-1.32,13.63,13.63,0,0,0,3.16-2.15,12.9,12.9,0,0,0,1.64-1.78c.17-.22.29-.4.37-.51A1.76,1.76,0,0,1,306.4,160.73Z" style="fill:#263238"></path><path d="M236.83,166.47a7.08,7.08,0,0,0,4.12,3.74,12.13,12.13,0,0,0,5.65.5c1.54-.19,3.2-.55,4.58.17a10,10,0,0,1,2.23,2.08A9.59,9.59,0,0,0,264,175a19.81,19.81,0,0,0-26.82-8.42" style="fill:#263238"></path><path d="M328.63,177.25s-.05.08-.17.23-.3.33-.55.58a14,14,0,0,1-2.46,1.91,12.56,12.56,0,0,1-4.6,1.76,11,11,0,0,1-3.1.08,8.6,8.6,0,0,1-3.22-1.35,35.24,35.24,0,0,0-6.71-4,4.89,4.89,0,0,0-4.07.23,16.5,16.5,0,0,0-3.63,2.77,22.79,22.79,0,0,1-3.78,3.18,5.84,5.84,0,0,1-5.14-.12,16,16,0,0,1-4.4-3,19.71,19.71,0,0,1-1.84-2,26.67,26.67,0,0,0-1.78-2.05,14.12,14.12,0,0,0-3.83-2.88h0a7.79,7.79,0,0,0-4.76.49,42.22,42.22,0,0,0-4.32,2.13,13.42,13.42,0,0,1-4.47,1.54,8.69,8.69,0,0,1-4.48-.72,14.91,14.91,0,0,1-6.11-5.5c-.72-1-1.53-2-2.66-2.2a10,10,0,0,0-3.28.54,3.72,3.72,0,0,1-3.07-.59,14.9,14.9,0,0,1-2-1.9,6.87,6.87,0,0,0-1.83-1.46,2.82,2.82,0,0,0-1.88-.26,5.71,5.71,0,0,0-2.38,1.29c-.48.4-.72.63-.73.62s0-.07.15-.19.28-.29.52-.51a5.65,5.65,0,0,1,2.4-1.4,3.09,3.09,0,0,1,2,.23,7.12,7.12,0,0,1,1.92,1.48,15.58,15.58,0,0,0,2,1.84,3.32,3.32,0,0,0,2.82.5,10.32,10.32,0,0,1,3.41-.57,3.22,3.22,0,0,1,1.7.86,8.71,8.71,0,0,1,1.23,1.48,14.74,14.74,0,0,0,6,5.32,8.21,8.21,0,0,0,4.23.66,12.87,12.87,0,0,0,4.3-1.51,41.31,41.31,0,0,1,4.37-2.16,8.26,8.26,0,0,1,5.07-.51h0a14.46,14.46,0,0,1,4,3,27.35,27.35,0,0,1,1.81,2.09,18.6,18.6,0,0,0,1.79,2,15.24,15.24,0,0,0,4.24,3,5.37,5.37,0,0,0,4.7.16,22.8,22.8,0,0,0,3.69-3.1,16.71,16.71,0,0,1,3.76-2.83,5.37,5.37,0,0,1,4.43-.22c2.69,1,4.77,2.79,6.75,4.1a8.18,8.18,0,0,0,3.07,1.33,10.34,10.34,0,0,0,3,0,12.4,12.4,0,0,0,4.54-1.64,16.24,16.24,0,0,0,2.5-1.81l.58-.55A1.32,1.32,0,0,1,328.63,177.25Z" style="fill:#455a64"></path><path d="M276.26,167.34a6.39,6.39,0,0,0-1.75,0,8.43,8.43,0,0,0-2,.63c-.74.33-1.55.78-2.51,1.2a9.55,9.55,0,0,1-7.2.1c-2.64-1-4.77-3.3-7-5.46A19.48,19.48,0,0,0,252.3,161a8.35,8.35,0,0,0-3.92-1.22,12.69,12.69,0,0,0-6.71,2,18.17,18.17,0,0,0-3.79,3c-.8.82-1.18,1.32-1.22,1.3a1.82,1.82,0,0,1,.24-.4,11.59,11.59,0,0,1,.84-1,16.81,16.81,0,0,1,3.74-3.15,12.9,12.9,0,0,1,6.92-2.13,8.89,8.89,0,0,1,4.16,1.25,19.66,19.66,0,0,1,3.64,2.86c2.25,2.18,4.32,4.39,6.82,5.38a9.26,9.26,0,0,0,6.88,0c.94-.37,1.77-.81,2.53-1.11a7.92,7.92,0,0,1,2.05-.57,4.58,4.58,0,0,1,1.34,0A1.26,1.26,0,0,1,276.26,167.34Z" style="fill:#455a64"></path><path d="M329.49,191.68a2.86,2.86,0,0,1-.53.42,13,13,0,0,1-1.68,1,16.6,16.6,0,0,1-7,1.84,17,17,0,0,1-5-.55,56.87,56.87,0,0,1-5.34-2,8.46,8.46,0,0,0-6-.38c-2,.78-3.32,2.7-4.94,4.37a8.52,8.52,0,0,1-2.86,2,5.94,5.94,0,0,1-3.43.26,6,6,0,0,1-2.93-1.55,24.58,24.58,0,0,1-1.88-2.48,3.4,3.4,0,0,0-2.26-1.45,6.36,6.36,0,0,0-2.63.33c-.85.24-1.66.54-2.5.71a9.12,9.12,0,0,1-2.41.21,10.61,10.61,0,0,1-6.64-2.66,6.8,6.8,0,0,1-1.67-2,14.33,14.33,0,0,0,1.8,1.9,10.61,10.61,0,0,0,6.52,2.44,8.91,8.91,0,0,0,2.32-.23c.79-.17,1.6-.48,2.46-.74a6.87,6.87,0,0,1,2.82-.36,3.87,3.87,0,0,1,2.57,1.6,22.69,22.69,0,0,0,1.85,2.42,5.51,5.51,0,0,0,2.69,1.41,5.42,5.42,0,0,0,3.13-.24,8,8,0,0,0,2.68-1.93c1.58-1.6,2.94-3.61,5.12-4.48a9,9,0,0,1,6.33.41,56.2,56.2,0,0,0,5.28,2.08,16.59,16.59,0,0,0,4.85.6,17,17,0,0,0,6.89-1.65C328.71,192.21,329.46,191.63,329.49,191.68Z" style="fill:#455a64"></path><polygon points="252.35 429.02 250.44 405.37 253.47 404.68 256.26 430.05 252.35 429.02" style="fill:#263238"></polygon><rect x="243.15" y="401.17" width="17.2" height="4.85" transform="translate(-153.87 155.12) rotate(-26.55)" style="fill:#263238"></rect><polygon points="243.31 399.28 244.01 399.37 243.78 398.97 243.31 399.28" style="fill:#ffbe9d"></polygon><polygon points="241.2 355.09 219.45 360.44 243.78 398.97 256.66 390.38 241.2 355.09" style="fill:#ffbe9d"></polygon><path d="M300.68,274.16l-40.76,9.26,1.08,5.33h0s-39.95,8.92-53.48,12.47a12.56,12.56,0,0,0-9.55,9.86c-1.15,4.89-.7,12.37,2,16.63L221.7,368l21.61-11s-14.64-30.42-13.67-30.42,60.54-4,67-8.82,9.76-10.44,10.08-21.07c.21-7.14-5.11-18.68-5.11-18.68Z" style="fill:#263238"></path><path d="M205.81,338.55s.12.17.32.52l.87,1.54,3.25,5.91,11.64,21.35-.29-.09,21.6-11-.12.33c-2.58-5.74-5.35-11.89-8.2-18.24-1.88-4.17-3.71-8.25-5.47-12.17l-.15-.33.36,0c18.22-1.57,34.28-2.7,45.71-4,5.72-.63,10.29-1.27,13.4-1.9a29.59,29.59,0,0,0,3.53-.87c.4-.12.68-.26.88-.33l.3-.1a8.35,8.35,0,0,1-1.15.52,26.89,26.89,0,0,1-3.52,1c-3.11.69-7.68,1.38-13.4,2.06-11.43,1.4-27.48,2.6-45.71,4.19l.22-.36c1.76,3.92,3.59,8,5.47,12.17l8.19,18.25.1.21-.21.11-21.63,11-.19.1-.1-.19L210,346.64l-3.16-6c-.34-.67-.61-1.19-.81-1.57S205.81,338.55,205.81,338.55Z" style="fill:#455a64"></path><path d="M222.9,320.25a10.1,10.1,0,0,1,7,6.37,29.11,29.11,0,0,0-3.07-3.68A27.92,27.92,0,0,0,222.9,320.25Z" style="fill:#455a64"></path><path d="M289.34,320.08a2.11,2.11,0,0,1-.25-.58c-.17-.46-.36-1-.6-1.68l-2-6.06,0-.09,0-.08c1.48-2.62,3.21-5.71,5.08-9l4.15-7.27.1-.17.18.07L303.3,298l2.05.82a3.26,3.26,0,0,1,.71.33,2.49,2.49,0,0,1-.76-.2l-2.1-.69-7.35-2.59.28-.11c-1.23,2.2-2.62,4.68-4.1,7.3l-5.14,9v-.17l1.83,6.12.48,1.71A2.25,2.25,0,0,1,289.34,320.08Z" style="fill:#455a64"></path><path d="M274.46,291.09a32.43,32.43,0,0,0-6.59-2,33.11,33.11,0,0,0-6.89,0,6.21,6.21,0,0,1,2-.51A17.32,17.32,0,0,1,272.7,290,5.57,5.57,0,0,1,274.46,291.09Z" style="fill:#455a64"></path><path d="M240.05,394.24l.46,1S226.82,409.76,228.12,413l33.29-15.61-5.65-10.86A21,21,0,0,1,240.05,394.24Z" style="fill:#455a64"></path><path d="M254.05,391.68a1.5,1.5,0,0,1,1.67,1.11,1.44,1.44,0,0,1-1.09,1.66,1.59,1.59,0,0,1-1.76-1.18c-.07-.74.59-1.65,1.32-1.61" style="fill:#fff"></path><path d="M261.41,397.42l-1.36-2.61-31.41,15.92s-1.18,1.34-.52,2.3Z" style="fill:#263238"></path><path d="M240.43,395.38c.08.16.93-.14,2,0s1.79.64,1.91.5-.57-1-1.83-1.12S240.33,395.25,240.43,395.38Z" style="fill:#263238"></path><path d="M237.62,398.47c0,.17.87.12,1.74.55s1.38,1.08,1.54,1-.17-1.05-1.27-1.56S237.55,398.31,237.62,398.47Z" style="fill:#263238"></path><path d="M237.6,403.57c.16,0,0-.95-.83-1.64s-1.76-.7-1.77-.53.69.43,1.37,1S237.43,403.63,237.6,403.57Z" style="fill:#263238"></path><path d="M306.39,303.58a33.49,33.49,0,0,1-11.87-5.12c.08-.13,2.62,1.25,5.89,2.66S306.43,303.43,306.39,303.58Z" style="fill:#455a64"></path><path d="M175.69,265.92l.94-1.9a5,5,0,0,1,5.34-2.7l12.59,2.25v8.24l-2.12.64a9.37,9.37,0,0,1-3.33.39l-7.41-.43s1.37-4.77-1.12-5.88A8.91,8.91,0,0,0,175.69,265.92Z" style="fill:#ffbe9d"></path><polygon points="243.63 249.5 231.1 234.3 243.08 220.51 249.89 215.1 253.57 223.53 243.63 249.5" style="fill:#455a64"></polygon><path d="M309.17,270.65c0-1.46-1.3-2.2-2.45-2.83a35.09,35.09,0,0,1-8.06-6.12c-4.76-13.63-13.86-35.48-16.24-40.72-3.4-7.46-13.05-14.59-14-14.81L249.2,217.68l-.45,5.53L243.34,230a6.42,6.42,0,0,0-.91,6.42c3.5,8.56,12.28,30.1,12.46,31.73.15,1.33.9,3.86,1.41,6.58-.4,2.44-1.33,4.86-.8,7.33a4.9,4.9,0,0,0,.93,2c1.62,2,3.56,1.48,5.87.57l3.53-1a25.32,25.32,0,0,1,8.21-3.46h0a9.76,9.76,0,0,1,6,.6c.25.11.5.21.76.3a10.13,10.13,0,0,0,8-.55c2.85-1.49,4.92-4.31,7.9-5.49l2.84-.64c2.82-.29,5.8.06,8.24-1.51A2.85,2.85,0,0,0,309.17,270.65Z" style="fill:#455a64"></path><path d="M267.34,283.62a6,6,0,0,1-5-4.59,22,22,0,0,0,2.15,2.68A21.18,21.18,0,0,0,267.34,283.62Z" style="fill:#263238"></path><path d="M266.52,278.79c.15,0,.28.86.56,1.88s.58,1.84.44,1.91-.66-.68-.95-1.77S266.38,278.79,266.52,278.79Z" style="fill:#263238"></path><path d="M292.81,268.22a19,19,0,0,0-3,1.51c-.86.55-1.82,1.33-2.91,2.16a15.87,15.87,0,0,1-3.85,2.35,10,10,0,0,1-8-.47,8.85,8.85,0,0,1-2-1.44,2.62,2.62,0,0,1-.58-.7,16.14,16.14,0,0,0,2.78,1.81,10,10,0,0,0,7.69.32,16.88,16.88,0,0,0,3.76-2.25c1.09-.81,2.09-1.56,3-2.1a10.55,10.55,0,0,1,2.26-1A2.46,2.46,0,0,1,292.81,268.22Z" style="fill:#263238"></path><path d="M290.42,264.63a15.77,15.77,0,0,1-8.6-1.37c.05-.14,1.92.41,4.28.78S290.42,264.48,290.42,264.63Z" style="fill:#263238"></path><path d="M245.64,233.72a8.78,8.78,0,0,1,.12-2.42c.16-1.49.49-3.54.94-5.78s1-4.25,1.42-5.68a11.19,11.19,0,0,1,.64-1.67c.16-.39.43-.56.44-.49-.18-.11-1.09,3.49-2,7.95-.45,2.23-.83,4.25-1.09,5.72A14.29,14.29,0,0,1,245.64,233.72Z" style="fill:#263238"></path><path d="M193.19,286,192,283.69a6,6,0,0,1,.32-6.25c1.56-2.3,3.62-5,4.54-5,1.58,0,8.82,2.48,8.82,2.48l7.56,1.26,2.62,7.57h0c-7.43,4.28-4.68-3-7.29-3.79l-4.87,1.31-.62,6Z" style="fill:#ffbe9d"></path><g style="opacity:0.30000000000000004"><path d="M258.9,253.65l12.2,2.83s5.14-21.88,2.83-26.26l-6.47,21.3-7-1Z"></path></g><path d="M243.61,245.58l-6.82,16.2L210.9,276.2l2.7,8.22s32.42-9.78,35.45-13.18,12.49-22.93,12.49-22.93Z" style="fill:#ffbe9d"></path><path d="M277,223.86c-2.44-9.57-14.16-13.16-21.84-7a13.12,13.12,0,0,0-3.4,3.91c-3.72,7.05-11,24-11,24l26.57,8.4s6.43-17.58,8.16-22.15C275.83,230.18,277.33,225.2,277,223.86Z" style="fill:#455a64"></path><path d="M277,223.86a1.54,1.54,0,0,1,.08.57,9.36,9.36,0,0,1-.16,1.66,35.6,35.6,0,0,1-1.68,6.11l-7.68,21.1-.07.21-.21-.07-26.55-8.36h0l-.28-.09.12-.26c3.22-7.47,6.35-14.54,9.43-20.89.39-.78.77-1.57,1.17-2.33a12.87,12.87,0,0,1,1.33-2.2,14.63,14.63,0,0,1,3.61-3.31,5.54,5.54,0,0,1,1-.61l1-.54,1.07-.4a5.9,5.9,0,0,1,1.06-.33l1.07-.25c.35-.07.71-.09,1.06-.13a11.91,11.91,0,0,1,2.06-.06,13.81,13.81,0,0,1,6.86,2.14,12.93,12.93,0,0,1,3.88,3.81l.57.89c.14.3.27.58.4.84l.33.72c.08.23.14.45.2.63.1.36.19.64.25.86a.92.92,0,0,1,.07.3,1.54,1.54,0,0,1-.12-.28l-.3-.84-.22-.62c-.11-.21-.23-.45-.35-.7l-.41-.82-.59-.87a12.61,12.61,0,0,0-3.87-3.67,13.56,13.56,0,0,0-6.71-2,12.38,12.38,0,0,0-2,.08c-.34,0-.69.07-1,.14l-1,.25a5.61,5.61,0,0,0-1,.33l-1,.39-1,.53a5.85,5.85,0,0,0-1,.6,14.53,14.53,0,0,0-3.49,3.22,13,13,0,0,0-1.27,2.15c-.4.75-.77,1.54-1.16,2.32-3,6.34-6.17,13.43-9.39,20.88l-.16-.35h0L267.41,253l-.29.14c3.23-8.65,5.94-15.91,7.85-21a38.37,38.37,0,0,0,1.8-6,12.68,12.68,0,0,0,.23-1.64C277,224.05,277,223.86,277,223.86Z" style="fill:#263238"></path><path d="M203,287.25c0,.07-.59.27-1.55.15-.23,0-.48,0-.76,0a1.83,1.83,0,0,1-1-.26,1.28,1.28,0,0,1-.53-1,6.53,6.53,0,0,1,.05-1.09c.18-1.45.43-2.73.6-3.66a5.07,5.07,0,0,1,.37-1.49c.18,0-.06,2.37-.45,5.2-.08.7-.17,1.42.23,1.68s1,.21,1.5.32C202.45,287.24,203,287.18,203,287.25Z" style="fill:#eb996e"></path><circle cx="206.96" cy="283.36" r="3.93" style="fill:#263238"></circle><path d="M199.32,286.18s0,.09,0,.27v0h-.07a3.11,3.11,0,0,0-.93,0,6.59,6.59,0,0,1-1.66.18,1.64,1.64,0,0,1-1-.47,1.86,1.86,0,0,1-.43-1.17c-.05-.79-.11-1.61-.17-2.47a8.34,8.34,0,0,1,.14-3,4.88,4.88,0,0,1,1.34-2.05,6,6,0,0,1,1.78-1.3,20.1,20.1,0,0,1-1.52,1.55,4.92,4.92,0,0,0-1.14,1.93,8.57,8.57,0,0,0-.08,2.8c.23,1.64-.25,3.69,1.17,3.73a7.09,7.09,0,0,0,1.56-.06,2.23,2.23,0,0,1,1,.13l-.08,0C199.24,286.24,199.29,286.17,199.32,286.18Z" style="fill:#eb996e"></path><path d="M211.48,276.28s.13-.11.39-.28l1.17-.7,4.36-2.52c3.68-2.1,8.79-5,14.45-8.11l4.58-2.54-.11.12c2-4.74,3.82-8.9,5.13-12,.64-1.42,1.15-2.59,1.55-3.48a8.65,8.65,0,0,1,.61-1.23,7.74,7.74,0,0,1-.45,1.3l-1.41,3.54-5,12,0,.08-.08,0-4.58,2.55c-5.66,3.15-10.8,6-14.53,8l-4.43,2.36-1.22.62A1.93,1.93,0,0,1,211.48,276.28Z" style="fill:#eb996e"></path></g></svg>